<?xml version="1.0" standalone="no"?>
<!DOCTYPE svg PUBLIC "-//W3C//DTD SVG 1.1//EN" "http://www.w3.org/Graphics/SVG/1.1/DTD/svg11.dtd" >
<svg xmlns="http://www.w3.org/2000/svg" xmlns:xlink="http://www.w3.org/1999/xlink" version="1.1">
<metadata></metadata>
<defs>
<font id="museo_sans_cyrl300" horiz-adv-x="780" >
<font-face units-per-em="2048" ascent="1536" descent="-512" />
<missing-glyph horiz-adv-x="512" />
<glyph unicode="ff" horiz-adv-x="1314" d="M76 913v117h129v39q0 119 38 201t99 117.5t112.5 49t106.5 13.5q41 0 64 -6v-123q-16 4 -50 4q-37 0 -70.5 -9t-73.5 -32.5t-63.5 -80t-23.5 -136.5v-37h518v39q0 119 38 201t98.5 117.5t112.5 49t106 13.5q43 0 63 -6v-123q-12 4 -49 4t-70 -9t-72.5 -32.5t-63.5 -80 t-24 -136.5v-37h263v-117h-263v-913h-139v913h-518v-913h-139v913h-129z" />
<glyph unicode="fi" horiz-adv-x="1118" d="M76 913v117h129v39q0 119 38 201t99 117.5t112.5 49t106.5 13.5q33 0 64 -6v-123q-16 4 -50 4q-37 0 -70.5 -9t-73.5 -32.5t-63.5 -80t-23.5 -136.5v-37h608v-1030h-137v913h-471v-913h-139v913h-129zM809 1266v174h149v-174h-149z" />
<glyph unicode="fl" horiz-adv-x="1142" d="M76 905v117h129v47q0 119 38 201t99 117.5t113.5 49t105.5 13.5q33 0 64 -6v-123q-16 4 -50 4q-37 0 -70.5 -9t-72.5 -32.5t-62.5 -80t-23.5 -136.5v-45h262v-117h-262v-905h-141v905h-129zM803 244v1196h139v-1166q0 -156 117 -155q20 0 33 2v-125q-25 -4 -52 -4 q-31 0 -57.5 4t-61 19.5t-59 42t-42 75t-17.5 111.5z" />
<glyph unicode="ffi" horiz-adv-x="1775" d="M76 913v117h129v39q0 119 38 201t99 117.5t112.5 49t106.5 13.5q33 0 64 -6v-123q-16 4 -50 4q-37 0 -70.5 -9t-73.5 -32.5t-63.5 -80t-23.5 -136.5v-37h518v39q0 119 38 201t98.5 117.5t112.5 49t106 13.5q33 0 63 -6v-123q-16 4 -49 4q-37 0 -70 -9t-72.5 -32.5 t-63.5 -80t-24 -136.5v-37h609v-1030h-140v913h-469v-913h-139v913h-518v-913h-139v913h-129zM1466 1266v174h150v-174h-150z" />
<glyph unicode="ffl" horiz-adv-x="1798" d="M76 913v117h129v39q0 119 38 201t99 117.5t112.5 49t106.5 13.5q33 0 64 -6v-123q-16 4 -50 4q-37 0 -70.5 -9t-73.5 -32.5t-63.5 -80t-23.5 -136.5v-37h518v39q0 119 38 201t98.5 117.5t112.5 49t106 13.5q33 0 63 -6v-123q-16 4 -49 4q-37 0 -70 -9t-72.5 -32.5 t-63.5 -80t-24 -136.5v-37h263v-117h-263v-913h-139v913h-518v-913h-139v913h-129zM1460 244v1196h139v-1166q0 -156 117 -155q20 0 33 2v-125q-25 -4 -51 -4q-31 0 -57.5 4t-61.5 19.5t-59.5 42t-42 75t-17.5 111.5z" />
<glyph unicode="fj" horiz-adv-x="1118" d="M76 913v117h129v39q0 119 38 201t99 117.5t112.5 49t106.5 13.5q33 0 64 -6v-123q-16 4 -50 4q-37 0 -70.5 -9t-73.5 -32.5t-63.5 -80t-23.5 -136.5v-37h608v-1067q0 -121 -37.5 -204t-99 -118.5t-114 -49t-107.5 -13.5q-29 0 -59 6v123q16 -4 45 -4q37 0 71.5 9t74.5 34 t64.5 82t24.5 139v946h-471v-913h-139v913h-129zM809 1266v174h149v-174h-149z" />
<glyph unicode="&#xd;" horiz-adv-x="681" />
<glyph unicode=" "  horiz-adv-x="512" />
<glyph unicode="&#x09;" horiz-adv-x="512" />
<glyph unicode="&#xa0;" horiz-adv-x="512" />
<glyph unicode="!" horiz-adv-x="536" d="M188 0v162h160v-162h-160zM195 1440h143l-6 -1063h-131z" />
<glyph unicode="&#x22;" horiz-adv-x="692" d="M162 1116v344h121v-344h-121zM410 1116v344h120v-344h-120z" />
<glyph unicode="#" horiz-adv-x="1486" d="M96 399l21 115h291l71 401h-291l21 115h289l71 410h125l-71 -410h354l72 410h125l-72 -410h287l-19 -115h-287l-71 -401h286l-20 -115h-287l-69 -399h-125l69 399h-354l-70 -399h-125l70 399h-291zM532 514h355l71 401h-356z" />
<glyph unicode="$" horiz-adv-x="1163" d="M135 160l84 108q70 -70 172.5 -113.5t204.5 -43.5q123 0 205 68.5t82 180.5q0 96 -75 165t-181.5 115t-213 95t-181 135t-74.5 207q0 143 104.5 252t272.5 129v195h114v-193q205 -10 342 -135l-69 -119q-59 55 -145.5 89t-170.5 34q-133 0 -218 -73.5t-85 -174.5 q0 -90 75 -154.5t181.5 -108.5t213 -94t181 -140t74.5 -219q0 -154 -102.5 -261.5t-276.5 -123.5v-191h-114v191q-246 18 -400 180z" />
<glyph unicode="%" horiz-adv-x="1490" d="M113 1180q0 117 84 200.5t202.5 83.5t203.5 -84t85 -200q0 -119 -85 -202t-203.5 -83t-202.5 83t-84 202zM125 0l1096 1440h147l-1096 -1440h-147zM233 1180q0 -72 48.5 -121t118 -49t117.5 49t48 121q0 70 -48 120t-117.5 50t-118 -50.5t-48.5 -119.5zM805 258 q0 119 84 203t202.5 84t203.5 -84t85 -203q0 -117 -85 -200t-203.5 -83t-202.5 83t-84 200zM926 260q0 -72 48 -121t117.5 -49t119 49t49.5 121q0 70 -49.5 120t-119 50t-117.5 -50t-48 -120z" />
<glyph unicode="&#x26;" horiz-adv-x="1361" d="M123 397q0 129 69.5 235.5t192.5 143.5v4q-199 84 -199 320q0 166 117 265t313 99q80 0 164 -22l-39 -117q-57 14 -118 14q-127 0 -209 -66.5t-82 -180.5q0 -43 11 -82t41 -83t96.5 -70t160.5 -26h303v203h141v-203h197v-126h-197v-211q0 -254 -127 -386.5t-350 -132.5 q-213 0 -349 120t-136 302zM270 406q0 -127 92.5 -212t245.5 -85q336 0 336 389v207h-303q-182 0 -276.5 -80t-94.5 -219z" />
<glyph unicode="'" horiz-adv-x="444" d="M162 1116v344h121v-344h-121z" />
<glyph unicode="(" horiz-adv-x="569" d="M119 690q0 426 229 805h131q-231 -387 -231 -807q0 -471 231 -883h-131q-229 399 -229 885z" />
<glyph unicode=")" horiz-adv-x="569" d="M90 -195q231 416 232 883q0 416 -232 807h129q231 -377 232 -805q0 -487 -232 -885h-129z" />
<glyph unicode="*" horiz-adv-x="1015" d="M115 1104l39 129l297 -109l-13 316h137l-12 -316l297 107l43 -125l-303 -88v-4l193 -246l-109 -80l-174 260h-4l-176 -258l-109 78l195 246v4z" />
<glyph unicode="+" horiz-adv-x="1163" d="M47 522v119h473v522h125v-522h471v-119h-471v-522h-125v522h-473z" />
<glyph unicode="," horiz-adv-x="536" d="M90 -199l117 367h160l-156 -367h-121z" />
<glyph unicode="-" horiz-adv-x="884" d="M152 518v127h581v-127h-581z" />
<glyph unicode="." horiz-adv-x="471" d="M152 0v170h167v-170h-167z" />
<glyph unicode="/" horiz-adv-x="823" d="M86 -86l520 1606h131l-520 -1606h-131z" />
<glyph unicode="0" horiz-adv-x="1263" d="M135 721q0 162 25.5 292t82 234.5t155 160.5t233.5 56q180 0 294.5 -102t158.5 -262t44 -379q0 -164 -25.5 -294t-81.5 -233.5t-154.5 -161t-235.5 -57.5q-262 0 -379 203t-117 543zM283 721q0 -287 79 -449.5t269 -162.5q131 0 212 83.5t109.5 213t28.5 315.5 q0 135 -16.5 240.5t-55.5 190.5t-108.5 131t-169.5 46q-348 0 -348 -608z" />
<glyph unicode="1" horiz-adv-x="966" d="M117 0v127h323v1057l2 80h-4q-14 -29 -71 -86l-154 -152l-90 90l326 324h131v-1313h317v-127h-780z" />
<glyph unicode="2" horiz-adv-x="1155" d="M119 92q0 102 41 191.5t105.5 154t144 122.5t158.5 111.5t143.5 108t105.5 125t41 148.5q0 121 -83 198.5t-216 77.5q-98 0 -183 -54t-140 -142l-105 71q63 115 179 187.5t257 72.5q199 0 319 -114.5t120 -288.5q0 -98 -40 -183t-104.5 -147.5t-142.5 -119t-156 -108.5 t-142.5 -106.5t-105.5 -123t-41 -146.5h754v-127h-901q-8 66 -8 92z" />
<glyph unicode="3" horiz-adv-x="1150" d="M100 172l88 109q66 -72 164.5 -120t204.5 -48q133 0 230.5 87t97.5 222q0 145 -105.5 226t-255.5 81h-100l-35 84l361 422l75 80v4q-41 -6 -116 -6h-541v127h842v-94l-428 -496q74 -4 147.5 -27.5t143 -69.5t113.5 -131t44 -196q0 -186 -135 -318.5t-338 -132.5 q-125 0 -246 52.5t-211 144.5z" />
<glyph unicode="4" horiz-adv-x="1230" d="M78 399v93l706 948h154v-918h205v-123h-205v-399h-141v399h-719zM248 522h549v604l8 138h-4q-35 -59 -72 -111l-481 -627v-4z" />
<glyph unicode="5" horiz-adv-x="1136" d="M111 178l92 101q115 -166 323 -166q152 0 255.5 95t103.5 241q0 147 -104.5 243t-260.5 96q-145 0 -262 -79l-90 32l78 699h696v-127h-571l-43 -369l-13 -82h4q88 55 218 56q213 0 354 -136.5t141 -332.5q0 -199 -144.5 -336.5t-355.5 -137.5q-125 0 -237 53.5 t-184 149.5z" />
<glyph unicode="6" horiz-adv-x="1206" d="M127 649q0 141 37 280.5t110.5 261.5t198.5 197.5t285 75.5q147 0 266 -59l-53 -125q-86 49 -213 49q-207 0 -331 -171t-144 -404h4q51 76 151.5 122t212.5 46q197 0 322 -131.5t125 -339.5q0 -213 -129 -344.5t-322 -131.5q-231 0 -375.5 190.5t-144.5 483.5zM281 532 q0 -82 39.5 -176t129.5 -170.5t205 -76.5q133 0 216 97t83 249q0 156 -89 248t-236 92q-137 0 -242.5 -75t-105.5 -188z" />
<glyph unicode="7" horiz-adv-x="1079" d="M90 1313v127h936v-99l-668 -1341h-147l582 1180l77 133v4q-35 -4 -106 -4h-674z" />
<glyph unicode="8" horiz-adv-x="1218" d="M121 406q0 82 28.5 154.5t73.5 123.5t78 77.5t64 47.5q-174 115 -175 287q0 154 115 261t322 107q199 0 319.5 -103.5t120.5 -268.5q0 -88 -41 -179.5t-77 -136.5t-68 -78q205 -119 204 -307q0 -172 -135 -294t-342 -122q-201 0 -344 120.5t-143 310.5zM268 416 q0 -135 102.5 -222.5t235.5 -87.5q131 0 232.5 81t101.5 202q0 55 -25.5 100.5t-80 82t-100.5 59t-130 57.5t-125 55q-211 -130 -211 -327zM334 1098q0 -45 19.5 -85t46 -66.5t76.5 -56.5t86 -46.5t102.5 -44t99.5 -43.5q160 160 160 325q0 117 -83 184.5t-216 67.5 t-212 -67.5t-79 -167.5z" />
<glyph unicode="9" horiz-adv-x="1206" d="M109 985q0 217 129 348t323 131q231 0 374.5 -190.5t143.5 -485.5q0 -141 -37.5 -279t-110.5 -260t-199 -198t-286 -76q-143 1 -264 60l56 125q94 -51 208 -51q143 0 251 88t161 214t68 275h-4q-53 -76 -153.5 -122t-211.5 -46q-199 0 -323.5 130t-124.5 337zM252 985 q0 -154 89.5 -247t236.5 -93q141 0 245.5 78t104.5 168q0 156 -106.5 297t-258.5 141q-145 0 -228 -96t-83 -248z" />
<glyph unicode=":" horiz-adv-x="464" d="M152 0v164h159v-164h-159zM152 866v164h159v-164h-159z" />
<glyph unicode=";" horiz-adv-x="575" d="M135 -199l101 367h153l-135 -367h-119zM238 866v164h157v-164h-157z" />
<glyph unicode="&#x3c;" horiz-adv-x="1163" d="M92 530v103l926 414v-138l-754 -325v-4l754 -326v-137z" />
<glyph unicode="=" horiz-adv-x="1163" d="M104 344v119h955v-119h-955zM104 700v119h955v-119h-955z" />
<glyph unicode="&#x3e;" horiz-adv-x="1163" d="M145 117v137l752 326v4l-752 325v138l924 -414v-103z" />
<glyph unicode="?" horiz-adv-x="921" d="M86 1350q57 51 147.5 83.5t182.5 32.5q176 0 292.5 -102t116.5 -260q0 -94 -37.5 -170t-91 -126t-107.5 -97t-92 -109.5t-38 -136.5v-88h-137v92q0 90 36.5 163t89 122t104.5 97t89 110.5t37 136.5q0 100 -76 167.5t-192 67.5q-133 0 -246 -86zM309 0v162h162v-162h-162z " />
<glyph unicode="@" horiz-adv-x="1593" d="M123 496q0 313 213 533t514 220q260 0 381 -110.5t121 -278.5v-645h145v-115h-551q-174 0 -290.5 116t-116.5 277.5t116.5 277.5t290.5 116h266q-4 104 -93 172.5t-259 68.5q-250 0 -423 -186t-173 -446q0 -264 173 -445.5t433 -181.5v-123q-317 0 -532 217.5t-215 532.5 zM682 495.5q0 -116.5 80 -198.5t196 -82h254v563h-249q-119 0 -200 -83t-81 -199.5z" />
<glyph unicode="A" horiz-adv-x="1294" d="M43 0l528 1440h152l528 -1440h-149l-166 459h-580l-163 -459h-150zM399 582h494l-188 522l-56 188h-4q-31 -121 -55 -188z" />
<glyph unicode="B" horiz-adv-x="1261" d="M207 0v1440h491q172 0 280.5 -98.5t108.5 -264.5q0 -221 -182 -313v-4q111 -31 176.5 -129.5t65.5 -227.5q0 -186 -123 -294.5t-309 -108.5h-508zM348 127h369q131 0 206.5 76t75.5 205t-78.5 206.5t-205.5 77.5h-367v-565zM348 815h350q109 0 176.5 69.5t67.5 182.5 q0 111 -66.5 178.5t-181.5 67.5h-346v-498z" />
<glyph unicode="C" horiz-adv-x="1470" d="M113 729q0 315 203.5 525t519.5 210q326 0 520 -186l-76 -104q-84 74 -203 115.5t-237 41.5q-258 0 -419 -171t-161 -429q0 -262 162 -442t424 -180q270 0 465 190l82 -100q-227 -223 -551 -223q-1 0 -1 -1q-323 0 -525 216t-203 538z" />
<glyph unicode="D" horiz-adv-x="1511" d="M207 0v1440h463q330 0 526.5 -191.5t196.5 -527.5q0 -338 -197 -529.5t-526 -191.5h-463zM348 127h307q270 0 430 154.5t160 439.5q0 283 -159.5 437.5t-430.5 154.5h-307v-1186z" />
<glyph unicode="E" horiz-adv-x="1146" d="M207 0v1440h809v-127h-668v-525h547v-126h-547v-535h707v-127h-848z" />
<glyph unicode="F" horiz-adv-x="1036" d="M207 0v1440h756v-127h-615v-541h529v-127h-529v-645h-141z" />
<glyph unicode="G" horiz-adv-x="1552" d="M113 721q0 313 208.5 528t518.5 215q305 0 512 -168l-78 -108q-76 63 -194.5 103t-233.5 40q-258 0 -422 -174t-164 -434q0 -266 163 -440t411 -174q127 0 246.5 56t205.5 152v244h-246v127h379v-688h-129v109l2 61h-4q-80 -88 -205 -141.5t-264 -53.5 q-299 0 -502.5 213.5t-203.5 532.5z" />
<glyph unicode="H" horiz-adv-x="1529" d="M207 0v1440h141v-656h834v656h143v-1440h-143v657h-834v-657h-141z" />
<glyph unicode="I" horiz-adv-x="555" d="M207 0v1440h141v-1440h-141z" />
<glyph unicode="J" horiz-adv-x="1064" d="M66 403v58h141v-53q0 -129 65.5 -214t194.5 -85q113 0 188.5 71.5t75.5 222.5v910h-352v127h493v-1037q0 -217 -117.5 -322.5t-285.5 -105.5t-285.5 106.5t-117.5 321.5z" />
<glyph unicode="K" horiz-adv-x="1210" d="M207 0v1440h141v-625h242l389 625h162l-432 -680v-4l460 -756h-165l-414 688h-242v-688h-141z" />
<glyph unicode="L" horiz-adv-x="1058" d="M207 0v1440h141v-1313h668v-127h-809z" />
<glyph unicode="M" horiz-adv-x="1724" d="M152 0l114 1440h146l379 -846l69 -176h4q37 102 70 176l379 846h145l115 -1440h-141l-80 1008l-4 200h-5q-43 -127 -75 -200l-340 -740h-131l-338 740l-78 204h-4q1 -32 1 -60q0 -86 -5 -144l-80 -1008h-141z" />
<glyph unicode="N" horiz-adv-x="1538" d="M207 0v1440h137l735 -1037l119 -194h4q-12 119 -12 194v1037h141v-1440h-137l-735 1036l-119 195h-4q12 -119 12 -195v-1036h-141z" />
<glyph unicode="O" horiz-adv-x="1689" d="M111 731q0 309 209.5 521t523.5 212q315 0 524 -211t209 -522q0 -319 -209 -537.5t-524 -218.5q-313 0 -523 218.5t-210 537.5zM258 731q0 -264 167 -443t419 -179t419 178t167 444q0 256 -167 428t-419 172t-419 -172t-167 -428z" />
<glyph unicode="P" horiz-adv-x="1222" d="M207 0v1440h498q195 0 319.5 -119t124.5 -315q0 -199 -125 -320t-319 -121h-357v-565h-141zM348 692h338q145 0 231.5 84t86.5 230q0 143 -85 225t-231 82h-340v-621z" />
<glyph unicode="Q" horiz-adv-x="1689" d="M113 729q0 311 209.5 523t521.5 212q317 0 526 -211t209 -524q0 -293 -180 -496l178 -178l-86 -90l-174 180q-203 -170 -473 -170q-313 0 -522 218.5t-209 535.5zM260 729q0 -262 168 -441t416 -179q217 0 373 133l-179 180l86 88l174 -178q133 166 134 397 q0 258 -169 430t-419 172q-248 0 -416 -172t-168 -430z" />
<glyph unicode="R" horiz-adv-x="1263" d="M207 0v1440h436q172 0 264 -41q213 -102 213 -361q0 -145 -75.5 -253.5t-198.5 -143.5v-4q16 -18 39 -57l313 -580h-164l-323 606h-363v-606h-141zM348 733h342q129 0 207 83t78 218q0 86 -40 152.5t-112 99.5q-59 27 -188 27h-287v-580z" />
<glyph unicode="S" horiz-adv-x="1093" d="M96 160l84 108q72 -70 171.5 -113.5t201.5 -43.5q129 0 210 67.5t81 177.5q0 74 -40 130.5t-102.5 94t-139.5 71.5t-153.5 71t-139 81t-102.5 114.5t-40 160.5q0 174 129 279.5t324 105.5q231 0 381 -139l-70 -119q-59 55 -145.5 89t-172.5 34q-127 0 -214 -65.5 t-87 -176.5q0 -70 40 -124t102.5 -88.5t139.5 -67.5t153.5 -70t139 -82t102.5 -117.5t40 -166.5q0 -172 -118.5 -284t-321.5 -112q-269 1 -453 185z" />
<glyph unicode="T" horiz-adv-x="1243" d="M35 1313v127h1175v-127h-518v-1313h-141v1313h-516z" />
<glyph unicode="U" horiz-adv-x="1480" d="M190 502v938h142v-936q0 -184 110.5 -289.5t296.5 -105.5q188 0 299 106.5t111 292.5v932h143v-938q0 -238 -152.5 -382.5t-398 -144.5t-398.5 144.5t-153 382.5z" />
<glyph unicode="V" horiz-adv-x="1294" d="M39 1440h151l400 -1094l55 -184h4q29 111 56 184l399 1094h151l-532 -1440h-152z" />
<glyph unicode="W" horiz-adv-x="1898" d="M72 1440h149l279 -1118l32 -154h5q14 78 36 154l308 1118h135l307 -1118l35 -154h4q12 80 31 154l293 1118h147l-385 -1440h-168l-279 1014l-51 215h-6q-25 -123 -51 -215l-279 -1014h-170z" />
<glyph unicode="X" horiz-adv-x="1179" d="M39 0l459 752l-420 688h166l252 -426l94 -166h4q43 92 88 166l254 426h166l-422 -688l461 -752h-162l-301 498l-90 159h-4q-43 -86 -88 -161l-295 -496h-162z" />
<glyph unicode="Y" horiz-adv-x="1185" d="M35 1440h162l305 -522l88 -173h4q45 96 88 173l305 522h162l-485 -822v-618h-142v618z" />
<glyph unicode="Z" horiz-adv-x="1185" d="M72 0v100l745 1082q23 35 48.5 67.5t39.5 48.5l13 15v4q-35 -4 -107 -4h-698v127h981v-101l-746 -1081q-23 -35 -48.5 -67.5t-37.5 -47.5l-14 -16v-4q35 4 106 4h746v-127h-1028z" />
<glyph unicode="[" horiz-adv-x="577" d="M188 -195v1690h279v-115h-150v-1460h150v-115h-279z" />
<glyph unicode="\" horiz-adv-x="823" d="M86 1520h131l520 -1606h-131z" />
<glyph unicode="]" horiz-adv-x="577" d="M111 -80h149v1460h-149v115h278v-1690h-278v115z" />
<glyph unicode="^" horiz-adv-x="1241" d="M150 512l407 928h94l408 -928h-135l-320 758l-319 -758h-135z" />
<glyph unicode="_" horiz-adv-x="1206" d="M76 0h1057v-119h-1057v119z" />
<glyph unicode="`" horiz-adv-x="1032" d="M365 1784h161l142 -244h-127z" />
<glyph unicode="a" horiz-adv-x="1058" d="M76 276q0 358 626 359h62v29q0 266 -254 266q-158 0 -293 -99l-63 107q61 53 161.5 85t202.5 32q186 0 285.5 -101.5t99.5 -294.5v-659h-133v121l6 86h-4q-43 -98 -136 -165t-212 -67q-141 0 -244.5 80t-103.5 221zM217 289q0 -78 61.5 -137.5t170.5 -59.5q141 0 228 119 t87 266v47h-59q-66 0 -114 -2t-125 -15t-126 -35.5t-86 -69.5t-37 -113z" />
<glyph unicode="b" horiz-adv-x="1206" d="M166 0v1440h139v-508l-6 -86h4q47 96 141.5 152.5t210.5 56.5q207 0 328 -148.5t121 -390.5q0 -244 -129 -392.5t-336 -148.5q-109 0 -201 57.5t-141 153.5h-4q6 -35 6 -84v-102h-133zM301 512q0 -168 86 -290t242 -122q141 0 237.5 112t96.5 302q0 186 -91.5 300 t-236.5 114q-141 0 -237.5 -104.5t-96.5 -311.5z" />
<glyph unicode="c" horiz-adv-x="1110" d="M96 514q0 236 156 388.5t385 152.5q106 0 208.5 -38t168.5 -110l-72 -104q-55 57 -136 92t-165 35q-172 0 -286.5 -117t-114.5 -299q0 -180 115.5 -296t289.5 -116q90 0 180 38t150 104l63 -105q-68 -76 -175 -120t-226 -44q-231 0 -386 150.5t-155 388.5z" />
<glyph unicode="d" horiz-adv-x="1206" d="M100 516q0 242 129 390.5t336 148.5q109 0 200 -54.5t138 -148.5h4q-6 35 -6 78v510h139v-1440h-135v117l6 73h-4q-47 -94 -139 -154.5t-219 -60.5q-205 0 -327 149.5t-122 391.5zM244 516q0 -188 91 -302t236 -114q141 0 236.5 104.5t95.5 313.5q0 168 -85 289t-240 121 q-141 0 -237.5 -111t-96.5 -301z" />
<glyph unicode="e" horiz-adv-x="1132" d="M96 514q0 246 146.5 393.5t363.5 147.5q205 0 317.5 -136.5t112.5 -338.5q0 -25 -4 -70h-790q4 -190 118.5 -299t280.5 -109q178 0 313 123l64 -106q-72 -66 -175.5 -105t-205.5 -39q-231 0 -386 151.5t-155 387.5zM248 621h647q-6 154 -88 236.5t-205 82.5 q-133 0 -231 -83.5t-123 -235.5z" />
<glyph unicode="f" horiz-adv-x="659" d="M76 905v117h129v47q0 119 38 201t99 117.5t113.5 49t105.5 13.5q33 0 64 -6v-123q-16 4 -50 4q-37 0 -70.5 -9t-72.5 -32.5t-62.5 -80t-23.5 -136.5v-45h262v-117h-262v-905h-141v905h-129z" />
<glyph unicode="g" horiz-adv-x="1191" d="M102 534.5q0 233.5 121 377t326 143.5q111 0 204 -45t138 -136h4q-4 12 -4 35v121h135v-1005q0 -229 -142.5 -342t-353.5 -113q-178 0 -335 84l51 113q135 -70 280 -70q162 0 260.5 79t98.5 242v103l8 76h-4q-100 -190 -328 -191q-207 0 -333 147.5t-126 381zM244 536.5 q0 -184.5 92 -295t246 -110.5q137 0 222 95.5t85 308.5q0 395 -326 395q-150 0 -234.5 -104.5t-84.5 -289z" />
<glyph unicode="h" horiz-adv-x="1216" d="M166 0v1440h139v-566l-6 -83h4q37 94 146.5 179t265.5 85q186 0 266 -100.5t80 -299.5v-655h-139v618q0 145 -45.5 225.5t-180.5 80.5q-164 0 -277.5 -121t-113.5 -305v-498h-139z" />
<glyph unicode="i" horiz-adv-x="471" d="M160 1266v174h151v-174h-151zM166 0v1030h139v-1030h-139z" />
<glyph unicode="j" horiz-adv-x="471" d="M-113 -293q16 -4 45 -4q37 0 71 9t74 34t64.5 82t24.5 139v1063h139v-1067q0 -121 -38 -204t-99.5 -118.5t-113.5 -49t-107 -13.5q-29 0 -60 6v123zM160 1266v174h151v-174h-151z" />
<glyph unicode="k" horiz-adv-x="1015" d="M166 0v1440h139v-803h166l307 393h168l-358 -448v-4l395 -578h-168l-342 514h-168v-514h-139z" />
<glyph unicode="l" horiz-adv-x="503" d="M166 244v1196h139v-1166q0 -155 116 -155h1q20 0 33 2v-125q-25 -4 -52 -4q-31 0 -57.5 4t-61 19.5t-59 42t-42 75t-17.5 111.5z" />
<glyph unicode="m" horiz-adv-x="1875" d="M166 0v1030h137v-162l-8 -82h4q39 106 149.5 187.5t229.5 81.5q272 0 317 -258h4q45 104 150.5 181t228.5 77q182 0 262 -100.5t80 -299.5v-655h-139v621q0 145 -46 225t-175 80q-150 0 -248 -130t-98 -298v-498h-140v621q0 143 -43 224t-174 81q-152 0 -252 -132 t-100 -296v-498h-139z" />
<glyph unicode="n" horiz-adv-x="1216" d="M166 0v1030h137v-162l-8 -82h4q39 94 146.5 181.5t269.5 87.5q186 0 266 -100.5t80 -299.5v-655h-139v618q0 145 -45.5 225.5t-180.5 80.5q-166 0 -278.5 -121t-112.5 -299v-504h-139z" />
<glyph unicode="o" horiz-adv-x="1277" d="M96 520q0 227 158 381t385 154t386 -153.5t159 -381.5q0 -231 -159 -388t-386 -157t-385 157t-158 388zM240 520q0 -180 115.5 -299t283.5 -119t284.5 119t116.5 299q0 174 -116.5 292t-284.5 118t-283.5 -118t-115.5 -292z" />
<glyph unicode="p" horiz-adv-x="1206" d="M166 -410v1440h133v-108l-6 -80h4q47 100 142.5 156.5t215.5 56.5q207 0 328 -148.5t121 -390.5q0 -244 -129 -392.5t-332 -148.5q-109 0 -199 54.5t-141 150.5h-4q6 -37 6 -90v-500h-139zM301 512q0 -166 89 -289t239 -123q141 0 237.5 112t96.5 302q0 186 -91.5 300 t-236.5 114q-141 0 -237.5 -104.5t-96.5 -311.5z" />
<glyph unicode="q" horiz-adv-x="1206" d="M100 516q0 242 129 390.5t336 148.5q109 0 201 -55.5t141 -151.5h4q-6 33 -6 78v104h135v-1440h-139v504l6 90h-4q-45 -88 -134 -148.5t-220 -60.5q-205 0 -327 149.5t-122 391.5zM244 516q0 -188 91 -302t236 -114q141 0 236.5 104.5t95.5 313.5q0 168 -85 289t-240 121 q-141 0 -237.5 -111t-96.5 -301z" />
<glyph unicode="r" horiz-adv-x="731" d="M166 0v1030h137v-190l-8 -82h4q41 123 128 202.5t202 79.5q31 0 55 -6v-137q-12 4 -51 4q-109 0 -186.5 -75.5t-109.5 -177t-32 -212.5v-436h-139z" />
<glyph unicode="s" horiz-adv-x="897" d="M76 125l74 98q121 -125 311 -125q90 0 148.5 44t58.5 122q0 63 -56.5 107.5t-137.5 74t-162 64.5t-137 99.5t-56 158.5q0 135 100 211t250 76q199 0 317 -113l-65 -104q-43 43 -114.5 68.5t-143.5 25.5q-88 0 -147.5 -40t-59.5 -120q0 -63 56.5 -108.5t138 -75 t162.5 -64.5t137.5 -99.5t56.5 -158.5q0 -127 -98.5 -209t-249.5 -82q-240 0 -383 150z" />
<glyph unicode="t" horiz-adv-x="665" d="M68 905v117h137v293h137v-293h260v-117h-260v-516q0 -84 24.5 -142.5t63.5 -84t74 -35.5t71 -10q29 0 48 4v-125q-25 -4 -60 -4q-43 0 -84 6t-93 29.5t-91 62.5t-65.5 113t-26.5 172v530h-135z" />
<glyph unicode="u" horiz-adv-x="1204" d="M154 375v655h141v-618q0 -145 44 -225.5t179 -80.5q170 0 275.5 127t105.5 304v493h139v-1030h-137v162l8 82h-4q-37 -96 -144.5 -182.5t-260.5 -86.5q-180 0 -263 98.5t-83 301.5z" />
<glyph unicode="v" horiz-adv-x="1046" d="M51 1030h150l284 -756l35 -124h4q18 74 37 124l285 756h147l-393 -1030h-151z" />
<glyph unicode="w" horiz-adv-x="1689" d="M59 1030h150l248 -766l30 -110h5q16 59 32 110l252 762h139l252 -762l33 -110h4q12 57 31 110l248 766h147l-346 -1030h-154l-251 733l-31 113h-4q-16 -61 -33 -113l-250 -733h-153z" />
<glyph unicode="x" horiz-adv-x="980" d="M41 0l360 537l-331 493h163l222 -346l34 -59h5q18 33 34 59l222 346h161l-331 -493l362 -537h-164l-250 387l-34 57h-5q-16 -29 -34 -57l-252 -387h-162z" />
<glyph unicode="y" horiz-adv-x="1077" d="M39 -369l53 111q57 -47 123 -47q123 0 197 168l61 147l-428 1020h154l301 -751l39 -109h4q14 57 35 109l296 751h150l-508 -1245q-41 -100 -117.5 -157.5t-177.5 -57.5q-47 0 -93 15.5t-67 29.5z" />
<glyph unicode="z" horiz-adv-x="1019" d="M76 0v90l575 723l82 94v4q-35 -4 -102 -4h-531v123h822v-92l-576 -721l-84 -94v-4q35 4 103 4h577v-123h-866z" />
<glyph unicode="{" horiz-adv-x="696" d="M90 598v127q82 16 128 77.5t46 158.5v167q0 96 24.5 168t58.5 109t80 58.5t78 26.5t64 5h31v-115h-18q-27 0 -52.5 -7t-60.5 -30.5t-55.5 -79t-20.5 -139.5v-200q0 -88 -43 -158t-121 -102v-5q164 -63 164 -260v-225q0 -84 20.5 -139t55.5 -79t60.5 -31t52.5 -7h18v-115 q-12 -2 -31 -2q-33 0 -64.5 5.5t-77.5 28t-80 59t-58.5 108.5t-24.5 168v195q0 92 -44 154.5t-130 78.5z" />
<glyph unicode="|" horiz-adv-x="499" d="M184 -322v1936h129v-1936h-129z" />
<glyph unicode="}" horiz-adv-x="696" d="M96 -82h19q27 0 52.5 7t59 31t55 79t21.5 139v225q0 94 43 163t121 97v5q-72 27 -118 97t-46 163v200q0 84 -21.5 139.5t-55 79t-59.5 30.5t-52 7h-19v115h31q33 0 64.5 -5t77.5 -26.5t80 -58.5t58.5 -108.5t24.5 -168.5v-167q0 -92 45 -157t129 -79v-127 q-84 -14 -129 -78.5t-45 -154.5v-195q0 -96 -24.5 -168t-58.5 -108.5t-80 -59t-77.5 -28t-64.5 -5.5l-31 2v115z" />
<glyph unicode="~" horiz-adv-x="1232" d="M152 428q0 162 68.5 239.5t189.5 77.5q76 0 134 -32.5t90 -73.5t80 -74t105 -33q82 0 114 63.5t32 141.5h118q0 -162 -68.5 -239.5t-189.5 -77.5q-76 0 -134 33.5t-89 72.5t-80 73t-106 34q-80 0 -112 -63.5t-32 -141.5h-120z" />
<glyph unicode="&#xa1;" horiz-adv-x="491" d="M162 866v162h160v-162h-160zM172 -412l6 1063h131l6 -1063h-143z" />
<glyph unicode="&#xa2;" horiz-adv-x="1163" d="M117 721q0 231 112.5 390t317.5 181v172h115v-172q260 -31 380 -303l-129 -49q-100 219 -305 219q-170 0 -259 -122t-89 -316q0 -197 88 -318.5t260 -121.5q205 0 305 219l129 -49q-127 -281 -380 -304v-174h-115v174q-205 23 -317.5 181.5t-112.5 392.5z" />
<glyph unicode="&#xa3;" horiz-adv-x="1163" d="M100 0v127h129v541h-90v112h90v305q0 162 120 270.5t302.5 108.5t321.5 -116l-88 -103q-100 86 -231.5 86t-206 -72.5t-74.5 -181.5v-297h391v-112h-391v-541h694v-127h-967z" />
<glyph unicode="&#xa4;" horiz-adv-x="1222" d="M117 369v112h147v154h-147v121h147v684h438q201 0 322 -109.5t121 -296.5q0 -184 -125 -291.5t-322 -107.5h-292v-154h518v-112h-518v-369h-142v369h-147zM406 756h278q145 0 229 76.5t84 207.5t-84 205t-229 74h-278v-563z" />
<glyph unicode="&#xa5;" horiz-adv-x="1163" d="M35 1440h162l295 -512l88 -183h4q43 100 88 183l295 512h161l-360 -619h215v-104h-272l-58 -99v-81h330v-105h-330v-432h-143v432h-334v105h334v81l-57 99h-277v104h219z" />
<glyph unicode="&#xa7;" horiz-adv-x="849" d="M117 -41l71 98q74 -61 168 -61q96 0 160 60.5t64 162.5q0 35 -9 66l-133 878h123l139 -889q6 -39 7 -71q0 -143 -97.5 -236.5t-255.5 -93.5q-135 0 -237 86zM143 1135q0 143 97.5 236t255.5 93q139 0 237 -86l-71 -96q-78 59 -166 59q-96 0 -161 -58t-65 -161 q0 -35 9 -61l135 -887h-123l-141 889q-6 37 -7 72z" />
<glyph unicode="&#xa8;" horiz-adv-x="1032" d="M299 1608v176h125v-176h-125zM608 1608v176h127v-176h-127z" />
<glyph unicode="&#xa9;" horiz-adv-x="1697" d="M123 721q0 309 212 526t511 217q305 0 518 -216t213 -527t-213 -528.5t-518 -217.5q-301 0 -512 217.5t-211 528.5zM242 721q0 -268 174 -451.5t430 -183.5q260 0 436 183.5t176 451.5q0 266 -177 449.5t-435 183.5q-254 0 -429 -183.5t-175 -449.5zM444 717 q0 172 114 297t308 125q102 0 191.5 -52.5t142.5 -138.5l-94 -63q-37 59 -101.5 100t-134.5 41q-141 0 -223 -90t-82 -217t81 -217t224 -90q70 0 133.5 38.5t102.5 102.5l94 -64q-49 -80 -140 -135t-194 -55q-195 0 -308.5 123t-113.5 295z" />
<glyph unicode="&#xaa;" horiz-adv-x="870" d="M162 541v94h538v-94h-538zM164 977q0 227 393 227h25v8q0 152 -144 152q-88 0 -174 -57l-51 77q94 76 236 76q121 0 183 -64.5t62 -187.5v-413h-108v100h-4q-25 -47 -77.5 -80t-115.5 -33q-90 0 -157.5 51.5t-67.5 143.5zM281 985q0 -45 33 -75.5t92 -30.5q78 0 127 67.5 t49 149.5v18h-27q-274 0 -274 -129z" />
<glyph unicode="&#xab;" horiz-adv-x="1077" d="M102 578l336 421h152l-336 -421l336 -420h-152zM471 578l336 421h151l-335 -421l335 -420h-151z" />
<glyph unicode="&#xac;" horiz-adv-x="1284" d="M166 700v119h956v-495h-125v376h-831z" />
<glyph unicode="&#xad;" horiz-adv-x="884" d="M152 518v127h581v-127h-581z" />
<glyph unicode="&#xae;" horiz-adv-x="1697" d="M123 721q0 309 212 526t511 217q305 0 518 -216t213 -527t-213 -528.5t-518 -217.5q-301 0 -512 217.5t-211 528.5zM242 721q0 -268 174 -451.5t430 -183.5q260 0 436 183.5t176 451.5q0 266 -177 449.5t-435 183.5q-254 0 -429 -183.5t-175 -449.5zM602 322v798h285 q109 0 175 -65.5t66 -171.5q0 -84 -45 -140.5t-106 -70.5v-4q8 -10 27 -45l155 -301h-129l-158 323h-153v-323h-117zM719 735h149q66 0 104 40t38 107.5t-38 104.5t-104 37h-149v-289z" />
<glyph unicode="&#xaf;" horiz-adv-x="1032" d="M264 1608v112h504v-112h-504z" />
<glyph unicode="&#xb0;" horiz-adv-x="815" d="M121 1178q0 117 84 200.5t202.5 83.5t203.5 -84t85 -200q0 -119 -85 -202t-203.5 -83t-202.5 83t-84 202zM242 1178q0 -72 48 -121t117.5 -49t117.5 49t48 121q0 70 -48 120t-117.5 50t-117.5 -50.5t-48 -119.5z" />
<glyph unicode="&#xb1;" horiz-adv-x="1163" d="M47 522v119h473v522h125v-522h471v-119h-471v-522h-125v522h-473zM84 -213h995v-119h-995v119z" />
<glyph unicode="&#xb2;" d="M98 930q0 94 46 167.5t110.5 121t130.5 88.5t112 93t46 116q0 66 -48.5 111.5t-119.5 45.5q-100 0 -185 -100l-71 72q39 57 109.5 96t148.5 39q127 0 203.5 -74t76.5 -186q0 -84 -44 -149.5t-107.5 -109.5t-127 -83t-110.5 -92.5t-49 -116.5h455v-103h-570q-6 35 -6 64z " />
<glyph unicode="&#xb3;" d="M78 981l72 78q31 -43 90 -75t129 -32q74 0 132 52.5t58 130t-60.5 125t-140.5 47.5h-67l-29 61l203 238l51 51v4q-37 -6 -76 -6h-313v104h537v-76l-244 -284q102 -10 179 -76t77 -188q0 -119 -88 -204t-217 -85q-84 0 -164 34.5t-129 100.5z" />
<glyph unicode="&#xb4;" horiz-adv-x="1032" d="M365 1540l141 244h162l-179 -244h-124z" />
<glyph unicode="&#xb5;" horiz-adv-x="1206" d="M182 -410v1440h140v-618q0 -70 8 -118t29.5 -94t67.5 -70t118 -24q172 0 276.5 127t104.5 304v493h139v-1030h-135v158l4 78h-4q-4 -10 -12.5 -28t-42 -63t-75.5 -79.5t-116 -62.5t-160 -28q-156 0 -223 86h-4q14 -104 14 -155v-316h-129z" />
<glyph unicode="&#xb6;" horiz-adv-x="1163" d="M82 969q0 197 143.5 334t343.5 137h490v-127h-371v-1415h-117v596q-201 0 -345 138t-144 337zM815 -102v1292h119v-1292h-119z" />
<glyph unicode="&#xb7;" horiz-adv-x="468" d="M152 506v170h163v-170h-163z" />
<glyph unicode="&#xb8;" horiz-adv-x="1032" d="M367 -311q31 -12 86 -13q104 0 104 70t-117 70l-30 -2l53 227l82 -14v-17l-23 -123q66 -10 105 -48t39 -97q0 -84 -56.5 -123t-140.5 -39q-61 0 -102 10v99z" />
<glyph unicode="&#xb9;" d="M158 1556l202 203h107v-790h188v-103h-495v103h194v592l2 49h-2q-8 -16 -43 -49l-82 -80z" />
<glyph unicode="&#xba;" horiz-adv-x="995" d="M154 1126q0 141 100 238.5t241.5 97.5t242 -97t100.5 -239q0 -145 -99.5 -243.5t-243 -98.5t-242.5 98.5t-99 243.5zM188 541v94h621v-94h-621zM266 1126q0 -102 66.5 -169.5t163 -67.5t163 67.5t66.5 169.5q0 100 -66.5 167t-163 67t-163 -66.5t-66.5 -167.5z" />
<glyph unicode="&#xbb;" horiz-adv-x="1077" d="M119 158l336 420l-336 421h151l336 -421l-336 -420h-151zM485 158l336 420l-336 421h152l336 -421l-336 -420h-152z" />
<glyph unicode="&#xbc;" horiz-adv-x="1906" d="M125 1239l203 203h106v-791h189v-102h-496v102h195v592l2 49h-2q-8 -16 -43 -49l-82 -80zM522 0l688 1440h119l-686 -1440h-121zM1141 233v78l434 582h111v-557h133v-103h-133v-233h-113v233h-432zM1280 336h293v278l8 127h-4q-33 -55 -68 -100l-229 -301v-4z" />
<glyph unicode="&#xbd;" horiz-adv-x="1884" d="M125 1239l203 203h106v-791h189v-102h-496v102h195v592l2 49h-2q-8 -16 -43 -49l-82 -80zM522 0l688 1440h119l-686 -1440h-121zM1198 63q0 94 46 168t111.5 121t130 88t110.5 93.5t46 115.5q0 66 -48 112t-119 46q-100 0 -185 -100l-71 71q39 57 109.5 96t148.5 39 q127 0 203.5 -73.5t76.5 -186.5q0 -84 -44 -149.5t-107.5 -109.5t-127 -83t-110.5 -92t-49 -117h455v-102h-570q-6 33 -6 63z" />
<glyph unicode="&#xbe;" horiz-adv-x="1947" d="M96 664l72 77q31 -43 89 -74.5t130 -31.5q74 0 132.5 52t58.5 130t-60.5 125t-140.5 47h-68l-28 62l202 237l52 51v4q-37 -6 -76 -6h-314v105h537v-76l-244 -285q102 -10 179 -75.5t77 -188.5q0 -119 -88 -204t-217 -85q-84 0 -164 35t-129 101zM561 0l688 1440h119 l-686 -1440h-121zM1182 233v78l434 582h110v-557h134v-103h-134v-233h-112v233h-432zM1321 336h293v278l8 127h-4q-33 -55 -68 -100l-229 -301v-4z" />
<glyph unicode="&#xbf;" horiz-adv-x="901" d="M84 -76q0 94 38 170t91 126t107.5 97.5t92.5 109.5t38 136v88h137v-92q0 -90 -37 -162.5t-89 -122t-104.5 -97.5t-89.5 -110.5t-37 -136.5q0 -100 76 -167.5t193 -67.5q133 0 245 86l78 -103q-57 -51 -147 -83.5t-182 -32.5q-176 0 -293 102.5t-117 259.5zM438 866v162 h162v-162h-162z" />
<glyph unicode="&#xc0;" horiz-adv-x="1294" d="M43 0l528 1440h152l528 -1440h-149l-166 459h-580l-163 -459h-150zM399 582h494l-188 522l-56 188h-4q-31 -121 -55 -188zM408 1784h161l142 -244h-127z" />
<glyph unicode="&#xc1;" horiz-adv-x="1294" d="M43 0l528 1440h152l528 -1440h-149l-166 459h-580l-163 -459h-150zM399 582h494l-188 522l-56 188h-4q-31 -121 -55 -188zM580 1540l141 244h162l-178 -244h-125z" />
<glyph unicode="&#xc2;" horiz-adv-x="1294" d="M43 0l528 1440h152l528 -1440h-149l-166 459h-580l-163 -459h-150zM399 582h494l-188 522l-56 188h-4q-31 -121 -55 -188zM399 1540l170 244h154l172 -244h-135l-111 164h-4l-110 -164h-136z" />
<glyph unicode="&#xc3;" horiz-adv-x="1294" d="M43 0l528 1440h152l528 -1440h-149l-166 459h-580l-163 -459h-150zM328 1546q0 238 188 238q59 0 103.5 -36t81 -73t73.5 -37q45 0 63.5 44t18.5 96h111q0 -238 -189 -238q-59 0 -103 37t-81 73t-74 36q-80 0 -80 -140h-112zM399 582h494l-188 522l-56 188h-4 q-31 -121 -55 -188z" />
<glyph unicode="&#xc4;" horiz-adv-x="1294" d="M43 0l528 1440h152l528 -1440h-149l-166 459h-580l-163 -459h-150zM399 582h494l-188 522l-56 188h-4q-31 -121 -55 -188zM430 1608v176h125v-176h-125zM739 1608v176h127v-176h-127z" />
<glyph unicode="&#xc5;" horiz-adv-x="1294" d="M43 0l528 1440h152l528 -1440h-149l-166 459h-580l-163 -459h-150zM399 582h494l-188 522l-56 188h-4q-31 -121 -55 -188zM492 1662.5q0 63.5 45 104.5t110 41q63 0 108.5 -41t45.5 -104.5t-45.5 -103t-108.5 -39.5q-66 0 -110.5 39.5t-44.5 103zM580 1663 q0 -29 18 -48.5t49 -19.5q29 0 47.5 19.5t18.5 48.5q0 31 -18.5 50.5t-47.5 19.5q-31 0 -49 -19.5t-18 -50.5z" />
<glyph unicode="&#xc6;" horiz-adv-x="1740" d="M35 0l592 1440h985v-127h-670v-525h547v-126h-547v-535h707v-127h-848v664h-350l-267 -664h-149zM502 786h299v527h-84z" />
<glyph unicode="&#xc7;" horiz-adv-x="1472" d="M113 729q0 315 203.5 525t519.5 210q326 0 520 -186l-76 -104q-84 74 -203 115.5t-237 41.5q-258 0 -419 -171t-161 -429q0 -262 162 -442t424 -180q270 0 465 190l82 -100q-219 -215 -529 -224l-16 -88q66 -10 104.5 -48t38.5 -97q0 -84 -56 -123t-140 -39 q-61 0 -103 10v99q31 -12 86 -13q104 0 104.5 70t-116.5 70l-31 -2l39 163q-297 25 -479 237t-182 515z" />
<glyph unicode="&#xc8;" horiz-adv-x="1146" d="M207 0v1440h809v-127h-668v-525h547v-126h-547v-535h707v-127h-848zM395 1784h162l141 -244h-127z" />
<glyph unicode="&#xc9;" horiz-adv-x="1146" d="M207 0v1440h809v-127h-668v-525h547v-126h-547v-535h707v-127h-848zM567 1540l142 244h161l-178 -244h-125z" />
<glyph unicode="&#xca;" horiz-adv-x="1146" d="M207 0v1440h809v-127h-668v-525h547v-126h-547v-535h707v-127h-848zM387 1540l170 244h154l172 -244h-135l-111 164h-4l-111 -164h-135z" />
<glyph unicode="&#xcb;" horiz-adv-x="1146" d="M207 0v1440h809v-127h-668v-525h547v-126h-547v-535h707v-127h-848zM418 1608v176h125v-176h-125zM727 1608v176h127v-176h-127z" />
<glyph unicode="&#xcc;" horiz-adv-x="555" d="M41 1784h162l141 -244h-127zM207 0v1440h141v-1440h-141z" />
<glyph unicode="&#xcd;" horiz-adv-x="555" d="M207 0v1440h141v-1440h-141zM213 1540l141 244h162l-178 -244h-125z" />
<glyph unicode="&#xce;" horiz-adv-x="555" d="M33 1540l170 244h153l172 -244h-135l-110 164h-4l-111 -164h-135zM207 0v1440h141v-1440h-141z" />
<glyph unicode="&#xcf;" horiz-adv-x="555" d="M63 1608v176h125v-176h-125zM207 0v1440h141v-1440h-141zM373 1608v176h127v-176h-127z" />
<glyph unicode="&#xd0;" horiz-adv-x="1523" d="M96 662v122h123v656h463q330 0 526.5 -191.5t196.5 -527.5q0 -338 -196.5 -529.5t-526.5 -191.5h-463v662h-123zM360 127h308q270 0 429.5 154.5t159.5 439.5q0 283 -159.5 437.5t-429.5 154.5h-308v-529h342v-122h-342v-535z" />
<glyph unicode="&#xd1;" horiz-adv-x="1538" d="M207 0v1440h137l735 -1037l119 -194h4q-12 119 -12 194v1037h141v-1440h-137l-735 1036l-119 195h-4q12 -119 12 -195v-1036h-141zM449 1546q0 238 188 238q59 0 103 -36t81 -73t74 -37q45 0 63.5 44t18.5 96h110q0 -238 -188 -238q-59 0 -103 37t-81 73t-74 36 q-80 0 -80 -140h-112z" />
<glyph unicode="&#xd2;" horiz-adv-x="1689" d="M111 731q0 309 209.5 521t523.5 212q315 0 524 -211t209 -522q0 -319 -209 -537.5t-524 -218.5q-313 0 -523 218.5t-210 537.5zM258 731q0 -264 167 -443t419 -179t419 178t167 444q0 256 -167 428t-419 172t-419 -172t-167 -428zM604 1784h162l141 -244h-127z" />
<glyph unicode="&#xd3;" horiz-adv-x="1689" d="M111 731q0 309 209.5 521t523.5 212q315 0 524 -211t209 -522q0 -319 -209 -537.5t-524 -218.5q-313 0 -523 218.5t-210 537.5zM258 731q0 -264 167 -443t419 -179t419 178t167 444q0 256 -167 428t-419 172t-419 -172t-167 -428zM776 1540l142 244h161l-178 -244h-125z " />
<glyph unicode="&#xd4;" horiz-adv-x="1689" d="M111 731q0 309 209.5 521t523.5 212q315 0 524 -211t209 -522q0 -319 -209 -537.5t-524 -218.5q-313 0 -523 218.5t-210 537.5zM258 731q0 -264 167 -443t419 -179t419 178t167 444q0 256 -167 428t-419 172t-419 -172t-167 -428zM596 1540l170 244h154l172 -244h-136 l-110 164h-4l-111 -164h-135z" />
<glyph unicode="&#xd5;" horiz-adv-x="1689" d="M111 731q0 309 209.5 521t523.5 212q315 0 524 -211t209 -522q0 -319 -209 -537.5t-524 -218.5q-313 0 -523 218.5t-210 537.5zM258 731q0 -264 167 -443t419 -179t419 178t167 444q0 256 -167 428t-419 172t-419 -172t-167 -428zM524 1546q0 238 189 238q59 0 103 -36 t81 -73t74 -37q45 0 63.5 44t18.5 96h110q0 -238 -188 -238q-59 0 -103.5 37t-81 73t-73.5 36q-80 0 -80 -140h-113z" />
<glyph unicode="&#xd6;" horiz-adv-x="1689" d="M111 731q0 309 209.5 521t523.5 212q315 0 524 -211t209 -522q0 -319 -209 -537.5t-524 -218.5q-313 0 -523 218.5t-210 537.5zM258 731q0 -264 167 -443t419 -179t419 178t167 444q0 256 -167 428t-419 172t-419 -172t-167 -428zM627 1608v176h125v-176h-125zM936 1608 v176h127v-176h-127z" />
<glyph unicode="&#xd7;" horiz-adv-x="1163" d="M57 84l443 498l-443 497l86 84l439 -491l436 491l88 -84l-444 -497l444 -498l-88 -84l-436 492l-439 -492z" />
<glyph unicode="&#xd8;" horiz-adv-x="1687" d="M111 729q0 311 213 523t520 212q209 0 387 -110l98 137l84 -61l-96 -136q260 -217 260 -565q0 -315 -213 -534.5t-520 -219.5q-213 0 -391 115l-101 -139l-84 59l101 142q-121 104 -189.5 254.5t-68.5 322.5zM258 729q0 -137 53.5 -258t141.5 -203l698 975 q-135 88 -307 88q-244 0 -415 -173t-171 -429zM530 201q139 -92 314 -92q246 0 416 178t170 440q0 279 -197 455z" />
<glyph unicode="&#xd9;" horiz-adv-x="1480" d="M190 502v938h142v-936q0 -184 110.5 -289.5t296.5 -105.5q188 0 299 106.5t111 292.5v932h143v-938q0 -238 -152.5 -382.5t-398 -144.5t-398.5 144.5t-153 382.5zM500 1784h162l141 -244h-127z" />
<glyph unicode="&#xda;" horiz-adv-x="1480" d="M190 502v938h142v-936q0 -184 110.5 -289.5t296.5 -105.5q188 0 299 106.5t111 292.5v932h143v-938q0 -238 -152.5 -382.5t-398 -144.5t-398.5 144.5t-153 382.5zM672 1540l141 244h162l-178 -244h-125z" />
<glyph unicode="&#xdb;" horiz-adv-x="1480" d="M190 502v938h142v-936q0 -184 110.5 -289.5t296.5 -105.5q188 0 299 106.5t111 292.5v932h143v-938q0 -238 -152.5 -382.5t-398 -144.5t-398.5 144.5t-153 382.5zM492 1540l170 244h153l172 -244h-135l-111 164h-4l-110 -164h-135z" />
<glyph unicode="&#xdc;" horiz-adv-x="1480" d="M190 502v938h142v-936q0 -184 110.5 -289.5t296.5 -105.5q188 0 299 106.5t111 292.5v932h143v-938q0 -238 -152.5 -382.5t-398 -144.5t-398.5 144.5t-153 382.5zM522 1608v176h125v-176h-125zM831 1608v176h127v-176h-127z" />
<glyph unicode="&#xdd;" horiz-adv-x="1185" d="M35 1440h162l305 -522l88 -173h4q45 96 88 173l305 522h162l-485 -822v-618h-142v618zM524 1540l142 244h161l-178 -244h-125z" />
<glyph unicode="&#xde;" horiz-adv-x="1228" d="M207 0v1440h141v-256h357q195 0 319.5 -119t124.5 -317q0 -197 -126 -318t-323 -121h-352v-309h-141zM348 436h338q145 0 231.5 83t86.5 228.5t-85 227.5t-231 82h-340v-621z" />
<glyph unicode="&#xdf;" horiz-adv-x="1175" d="M166 0v1087q0 174 124 275.5t290 101.5q160 0 258 -89t98 -216q0 -72 -36 -134t-78 -99t-77.5 -82t-35.5 -88q0 -37 41 -77t100 -78t118.5 -81t100.5 -106.5t41 -134.5q0 -139 -96 -216t-236 -77q-182 0 -303 65v133q121 -72 293 -71q84 0 141.5 43t57.5 127 q0 63 -62.5 123.5t-138.5 101.5t-138.5 106.5t-62.5 137.5q0 59 36 114.5t79 92t79 90t36 108.5q0 72 -58.5 127t-163.5 55q-109 0 -188.5 -69.5t-79.5 -192.5v-1077h-139z" />
<glyph unicode="&#xe0;" horiz-adv-x="1058" d="M76 276q0 358 626 359h62v29q0 266 -254 266q-158 0 -293 -99l-63 107q61 53 161.5 85t202.5 32q186 0 285.5 -101.5t99.5 -294.5v-659h-133v121l6 86h-4q-43 -98 -136 -165t-212 -67q-141 0 -244.5 80t-103.5 221zM217 289q0 -78 61.5 -137.5t170.5 -59.5q141 0 228 119 t87 266v47h-59q-66 0 -114 -2t-125 -15t-126 -35.5t-86 -69.5t-37 -113zM285 1442h161l142 -244h-127z" />
<glyph unicode="&#xe1;" horiz-adv-x="1058" d="M76 276q0 358 626 359h62v29q0 266 -254 266q-158 0 -293 -99l-63 107q61 53 161.5 85t202.5 32q186 0 285.5 -101.5t99.5 -294.5v-659h-133v121l6 86h-4q-43 -98 -136 -165t-212 -67q-141 0 -244.5 80t-103.5 221zM217 289q0 -78 61.5 -137.5t170.5 -59.5q141 0 228 119 t87 266v47h-59q-66 0 -114 -2t-125 -15t-126 -35.5t-86 -69.5t-37 -113zM453 1198l141 244h162l-178 -244h-125z" />
<glyph unicode="&#xe2;" horiz-adv-x="1058" d="M76 276q0 358 626 359h62v29q0 266 -254 266q-158 0 -293 -99l-63 107q61 53 161.5 85t202.5 32q186 0 285.5 -101.5t99.5 -294.5v-659h-133v121l6 86h-4q-43 -98 -136 -165t-212 -67q-141 0 -244.5 80t-103.5 221zM217 289q0 -78 61.5 -137.5t170.5 -59.5q141 0 228 119 t87 266v47h-59q-66 0 -114 -2t-125 -15t-126 -35.5t-86 -69.5t-37 -113zM272 1198l170 244h154l172 -244h-135l-111 164h-4l-110 -164h-136z" />
<glyph unicode="&#xe3;" horiz-adv-x="1058" d="M76 276q0 358 626 359h62v29q0 266 -254 266q-158 0 -293 -99l-63 107q61 53 161.5 85t202.5 32q186 0 285.5 -101.5t99.5 -294.5v-659h-133v121l6 86h-4q-43 -98 -136 -165t-212 -67q-141 0 -244.5 80t-103.5 221zM201 1204q0 238 188 238q59 0 103.5 -37t81 -73 t73.5 -36q45 0 63.5 44t18.5 96h111q0 -238 -189 -238q-59 0 -103 36t-81 72.5t-74 36.5q-80 0 -80 -139h-112zM217 289q0 -78 61.5 -137.5t170.5 -59.5q141 0 228 119t87 266v47h-59q-66 0 -114 -2t-125 -15t-126 -35.5t-86 -69.5t-37 -113z" />
<glyph unicode="&#xe4;" horiz-adv-x="1058" d="M76 276q0 358 626 359h62v29q0 266 -254 266q-158 0 -293 -99l-63 107q61 53 161.5 85t202.5 32q186 0 285.5 -101.5t99.5 -294.5v-659h-133v121l6 86h-4q-43 -98 -136 -165t-212 -67q-141 0 -244.5 80t-103.5 221zM217 289q0 -78 61.5 -137.5t170.5 -59.5q141 0 228 119 t87 266v47h-59q-66 0 -114 -2t-125 -15t-126 -35.5t-86 -69.5t-37 -113zM303 1266v176h125v-176h-125zM612 1266v176h127v-176h-127z" />
<glyph unicode="&#xe5;" horiz-adv-x="1058" d="M76 276q0 358 626 359h62v29q0 266 -254 266q-158 0 -293 -99l-63 107q61 53 161.5 85t202.5 32q186 0 285.5 -101.5t99.5 -294.5v-659h-133v121l6 86h-4q-43 -98 -136 -165t-212 -67q-141 0 -244.5 80t-103.5 221zM217 289q0 -78 61.5 -137.5t170.5 -59.5q141 0 228 119 t87 266v47h-59q-66 0 -114 -2t-125 -15t-126 -35.5t-86 -69.5t-37 -113zM365 1320.5q0 63.5 45 104.5t110 41q63 0 108.5 -41t45.5 -104.5t-45.5 -103t-108.5 -39.5q-66 0 -110.5 39.5t-44.5 103zM453 1321q0 -29 18 -48.5t49 -19.5q29 0 47.5 19.5t18.5 48.5 q0 31 -18.5 50.5t-47.5 19.5q-31 0 -49 -19.5t-18 -50.5z" />
<glyph unicode="&#xe6;" horiz-adv-x="1773" d="M78 281q0 70 23.5 125t58.5 90.5t91 61.5t105.5 39t119 20.5t113.5 8.5t107 1h68v37q0 266 -262 266q-154 0 -285 -99l-65 105q61 55 159.5 87t198.5 32q276 0 348 -213h4q127 213 389 213q201 0 314.5 -134.5t113.5 -334.5q0 -2 -6 -70h-774q4 -197 110.5 -305.5 t274.5 -108.5q182 0 311 123l64 -106q-68 -63 -173.5 -103.5t-207.5 -40.5q-158 0 -276.5 76t-176.5 211h-4q-6 -23 -19.5 -51.5t-46 -72.5t-72.5 -77.5t-106.5 -59.5t-144.5 -26q-150 0 -252 81.5t-102 224.5zM221 289q0 -80 60.5 -138.5t169.5 -58.5q141 0 228 120t87 267 v37h-121q-80 0 -142.5 -7t-133 -27.5t-109.5 -69.5t-39 -123zM907 627h629q-6 152 -89 230.5t-202 78.5q-133 0 -223 -79.5t-115 -229.5z" />
<glyph unicode="&#xe7;" horiz-adv-x="1114" d="M96 514q0 236 156 388.5t385 152.5q106 0 208.5 -38t168.5 -110l-72 -104q-55 57 -136 92t-165 35q-172 0 -286.5 -117t-114.5 -299q0 -180 115.5 -296t289.5 -116q90 0 180 38t150 104l63 -105q-141 -154 -383 -164l-16 -88q66 -10 104.5 -48t38.5 -97q0 -84 -56 -123 t-140 -39q-61 0 -103 10v99q31 -12 86 -13q104 0 104.5 70t-116.5 70l-31 -2l39 166q-207 23 -338 170t-131 364z" />
<glyph unicode="&#xe8;" horiz-adv-x="1132" d="M96 514q0 246 146.5 393.5t363.5 147.5q205 0 317.5 -136.5t112.5 -338.5q0 -25 -4 -70h-790q4 -190 118.5 -299t280.5 -109q178 0 313 123l64 -106q-72 -66 -175.5 -105t-205.5 -39q-231 0 -386 151.5t-155 387.5zM248 621h647q-6 154 -88 236.5t-205 82.5 q-133 0 -231 -83.5t-123 -235.5zM369 1442h161l142 -244h-127z" />
<glyph unicode="&#xe9;" horiz-adv-x="1132" d="M96 514q0 246 146.5 393.5t363.5 147.5q205 0 317.5 -136.5t112.5 -338.5q0 -25 -4 -70h-790q4 -190 118.5 -299t280.5 -109q178 0 313 123l64 -106q-72 -66 -175.5 -105t-205.5 -39q-231 0 -386 151.5t-155 387.5zM248 621h647q-6 154 -88 236.5t-205 82.5 q-133 0 -231 -83.5t-123 -235.5zM539 1198l141 244h162l-178 -244h-125z" />
<glyph unicode="&#xea;" horiz-adv-x="1132" d="M96 514q0 246 146.5 393.5t363.5 147.5q205 0 317.5 -136.5t112.5 -338.5q0 -25 -4 -70h-790q4 -190 118.5 -299t280.5 -109q178 0 313 123l64 -106q-72 -66 -175.5 -105t-205.5 -39q-231 0 -386 151.5t-155 387.5zM248 621h647q-6 154 -88 236.5t-205 82.5 q-133 0 -231 -83.5t-123 -235.5zM358 1198l170 244h154l172 -244h-135l-111 164h-4l-110 -164h-136z" />
<glyph unicode="&#xeb;" horiz-adv-x="1132" d="M96 514q0 246 146.5 393.5t363.5 147.5q205 0 317.5 -136.5t112.5 -338.5q0 -25 -4 -70h-790q4 -190 118.5 -299t280.5 -109q178 0 313 123l64 -106q-72 -66 -175.5 -105t-205.5 -39q-231 0 -386 151.5t-155 387.5zM248 621h647q-6 154 -88 236.5t-205 82.5 q-133 0 -231 -83.5t-123 -235.5zM389 1266v176h125v-176h-125zM698 1266v176h127v-176h-127z" />
<glyph unicode="&#xec;" horiz-adv-x="471" d="M0 1442h162l141 -244h-127zM166 0v1030h139v-1030h-139z" />
<glyph unicode="&#xed;" horiz-adv-x="471" d="M166 0v1030h139v-1030h-139zM172 1198l141 244h162l-178 -244h-125z" />
<glyph unicode="&#xee;" horiz-adv-x="471" d="M-8 1198l170 244h153l172 -244h-135l-110 164h-4l-111 -164h-135zM166 0v1030h139v-1030h-139z" />
<glyph unicode="&#xef;" horiz-adv-x="471" d="M23 1266v176h124v-176h-124zM166 0v1030h139v-1030h-139zM332 1266v176h127v-176h-127z" />
<glyph unicode="&#xf0;" horiz-adv-x="1185" d="M100 475q0 197 130 339t360 142q55 0 105 -11t83 -27.5t58.5 -34t35.5 -27.5l13 -12h4q-70 203 -254 327l-361 -163l-28 98l278 129q-131 68 -291 104l39 117q233 -53 404 -156l268 121l27 -98l-199 -92q307 -244 307 -674q0 -145 -49 -272t-168 -218.5t-289 -91.5 q-215 0 -344 149.5t-129 350.5zM244 473q0 -152 90 -262.5t244 -110.5q176 0 268 132.5t92 302.5q0 131 -92 217t-242 86q-174 0 -267 -107.5t-93 -257.5z" />
<glyph unicode="&#xf1;" horiz-adv-x="1216" d="M166 0v1030h137v-162l-8 -82h4q39 94 146.5 181.5t269.5 87.5q186 0 266 -100.5t80 -299.5v-655h-139v618q0 145 -45.5 225.5t-180.5 80.5q-166 0 -278.5 -121t-112.5 -299v-504h-139zM313 1204q0 238 189 238q59 0 103 -37t81 -73t74 -36q45 0 63.5 44t18.5 96h110 q0 -238 -188 -238q-59 0 -103.5 36t-81 72.5t-73.5 36.5q-80 0 -80 -139h-113z" />
<glyph unicode="&#xf2;" horiz-adv-x="1277" d="M96 520q0 227 158 381t385 154t386 -153.5t159 -381.5q0 -231 -159 -388t-386 -157t-385 157t-158 388zM240 520q0 -180 115.5 -299t283.5 -119t284.5 119t116.5 299q0 174 -116.5 292t-284.5 118t-283.5 -118t-115.5 -292zM399 1442h162l141 -244h-127z" />
<glyph unicode="&#xf3;" horiz-adv-x="1277" d="M96 520q0 227 158 381t385 154t386 -153.5t159 -381.5q0 -231 -159 -388t-386 -157t-385 157t-158 388zM240 520q0 -180 115.5 -299t283.5 -119t284.5 119t116.5 299q0 174 -116.5 292t-284.5 118t-283.5 -118t-115.5 -292zM571 1198l142 244h161l-178 -244h-125z" />
<glyph unicode="&#xf4;" horiz-adv-x="1277" d="M96 520q0 227 158 381t385 154t386 -153.5t159 -381.5q0 -231 -159 -388t-386 -157t-385 157t-158 388zM240 520q0 -180 115.5 -299t283.5 -119t284.5 119t116.5 299q0 174 -116.5 292t-284.5 118t-283.5 -118t-115.5 -292zM391 1198l170 244h154l172 -244h-135l-111 164 h-4l-111 -164h-135z" />
<glyph unicode="&#xf5;" horiz-adv-x="1277" d="M96 520q0 227 158 381t385 154t386 -153.5t159 -381.5q0 -231 -159 -388t-386 -157t-385 157t-158 388zM240 520q0 -180 115.5 -299t283.5 -119t284.5 119t116.5 299q0 174 -116.5 292t-284.5 118t-283.5 -118t-115.5 -292zM319 1204q0 238 189 238q59 0 103 -37t81 -73 t74 -36q45 0 63.5 44t18.5 96h110q0 -238 -188 -238q-59 0 -103 36t-81 72.5t-74 36.5q-80 0 -80 -139h-113z" />
<glyph unicode="&#xf6;" horiz-adv-x="1277" d="M96 520q0 227 158 381t385 154t386 -153.5t159 -381.5q0 -231 -159 -388t-386 -157t-385 157t-158 388zM240 520q0 -180 115.5 -299t283.5 -119t284.5 119t116.5 299q0 174 -116.5 292t-284.5 118t-283.5 -118t-115.5 -292zM422 1266v176h125v-176h-125zM731 1266v176 h127v-176h-127z" />
<glyph unicode="&#xf7;" horiz-adv-x="1163" d="M80 522v119h1003v-119h-1003zM504 125v151h153v-151h-153zM504 887v151h153v-151h-153z" />
<glyph unicode="&#xf8;" horiz-adv-x="1280" d="M96 520q0 227 159 381t386 154q150 0 279 -74l79 109l84 -60l-79 -110q182 -158 182 -400q0 -231 -159 -388t-386 -157q-147 0 -264 68l-78 -111l-84 62l76 106q-195 158 -195 420zM240 520q0 -186 129 -309l475 661q-98 57 -203 58q-168 0 -284.5 -118t-116.5 -292z M453 150q84 -47 188 -48q168 0 284.5 119t116.5 299q0 172 -118 287z" />
<glyph unicode="&#xf9;" horiz-adv-x="1204" d="M154 375v655h141v-618q0 -145 44 -225.5t179 -80.5q170 0 275.5 127t105.5 304v493h139v-1030h-137v162l8 82h-4q-37 -96 -144.5 -182.5t-260.5 -86.5q-180 0 -263 98.5t-83 301.5zM360 1442h162l142 -244h-127z" />
<glyph unicode="&#xfa;" horiz-adv-x="1204" d="M154 375v655h141v-618q0 -145 44 -225.5t179 -80.5q170 0 275.5 127t105.5 304v493h139v-1030h-137v162l8 82h-4q-37 -96 -144.5 -182.5t-260.5 -86.5q-180 0 -263 98.5t-83 301.5zM528 1198l142 244h161l-178 -244h-125z" />
<glyph unicode="&#xfb;" horiz-adv-x="1204" d="M154 375v655h141v-618q0 -145 44 -225.5t179 -80.5q170 0 275.5 127t105.5 304v493h139v-1030h-137v162l8 82h-4q-37 -96 -144.5 -182.5t-260.5 -86.5q-180 0 -263 98.5t-83 301.5zM348 1198l170 244h154l172 -244h-135l-111 164h-4l-111 -164h-135z" />
<glyph unicode="&#xfc;" horiz-adv-x="1204" d="M154 375v655h141v-618q0 -145 44 -225.5t179 -80.5q170 0 275.5 127t105.5 304v493h139v-1030h-137v162l8 82h-4q-37 -96 -144.5 -182.5t-260.5 -86.5q-180 0 -263 98.5t-83 301.5zM379 1266v176h125v-176h-125zM688 1266v176h127v-176h-127z" />
<glyph unicode="&#xfd;" horiz-adv-x="1077" d="M39 -369l53 111q57 -47 123 -47q123 0 197 168l61 147l-428 1020h154l301 -751l39 -109h4q14 57 35 109l296 751h150l-508 -1245q-41 -100 -117.5 -157.5t-177.5 -57.5q-47 0 -93 15.5t-67 29.5zM473 1196l141 244h162l-178 -244h-125z" />
<glyph unicode="&#xfe;" horiz-adv-x="1204" d="M166 -410v1850h139v-500l-2 -82h4q41 86 133 141.5t213 55.5q207 0 329 -149.5t122 -389.5q0 -242 -128 -391.5t-331 -149.5q-106 0 -200.5 52.5t-139.5 144.5h-4q4 -37 4 -90v-492h-139zM301 514q0 -174 89 -294t241 -120q141 0 236.5 114t95.5 302q0 184 -91.5 299 t-234.5 115t-239.5 -104.5t-96.5 -311.5z" />
<glyph unicode="&#xff;" horiz-adv-x="1077" d="M39 -369l53 111q57 -47 123 -47q123 0 197 168l61 147l-428 1020h154l301 -751l39 -109h4q14 57 35 109l296 751h150l-508 -1245q-41 -100 -117.5 -157.5t-177.5 -57.5q-47 0 -93 15.5t-67 29.5zM322 1264v176h124v-176h-124zM631 1264v176h127v-176h-127z" />
<glyph unicode="&#x100;" horiz-adv-x="1294" d="M43 0l528 1440h152l528 -1440h-149l-166 459h-580l-163 -459h-150zM395 1608v112h504v-112h-504zM399 582h494l-188 522l-56 188h-4q-31 -121 -55 -188z" />
<glyph unicode="&#x101;" horiz-adv-x="1058" d="M76 276q0 358 626 359h62v29q0 266 -254 266q-158 0 -293 -99l-63 107q61 53 161.5 85t202.5 32q186 0 285.5 -101.5t99.5 -294.5v-659h-133v121l6 86h-4q-43 -98 -136 -165t-212 -67q-141 0 -244.5 80t-103.5 221zM217 289q0 -78 61.5 -137.5t170.5 -59.5q141 0 228 119 t87 266v47h-59q-66 0 -114 -2t-125 -15t-126 -35.5t-86 -69.5t-37 -113zM268 1266v112h504v-112h-504z" />
<glyph unicode="&#x102;" horiz-adv-x="1294" d="M43 0l528 1440h152l528 -1440h-149l-166 459h-580l-163 -459h-150zM399 582h494l-188 522l-56 188h-4q-31 -121 -55 -188zM410 1753v31h112v-29q0 -63 35 -94t90 -31q51 0 87 32t36 95v27h113v-31q0 -104 -70 -161.5t-166 -57.5q-98 0 -167.5 57.5t-69.5 161.5z" />
<glyph unicode="&#x103;" horiz-adv-x="1058" d="M76 276q0 358 626 359h62v29q0 266 -254 266q-158 0 -293 -99l-63 107q61 53 161.5 85t202.5 32q186 0 285.5 -101.5t99.5 -294.5v-659h-133v121l6 86h-4q-43 -98 -136 -165t-212 -67q-141 0 -244.5 80t-103.5 221zM217 289q0 -78 61.5 -137.5t170.5 -59.5q141 0 228 119 t87 266v47h-59q-66 0 -114 -2t-125 -15t-126 -35.5t-86 -69.5t-37 -113zM283 1411v31h112v-29q0 -63 35 -94t90 -31q51 0 87 32t36 95v27h113v-31q0 -104 -70 -161.5t-166 -57.5q-98 0 -167.5 57.5t-69.5 161.5z" />
<glyph unicode="&#x104;" horiz-adv-x="1294" d="M43 0l528 1440h152l528 -1440q-150 -115 -149 -203q0 -41 31.5 -66.5t62.5 -29.5l33 -6l-31 -115q-8 0 -23.5 2t-54.5 14.5t-68.5 31t-54 55t-24.5 86.5q0 125 135 231h-6l-166 459h-580l-163 -459h-150zM399 582h494l-188 522l-56 188h-4q-31 -121 -55 -188z" />
<glyph unicode="&#x105;" horiz-adv-x="1058" d="M76 276q0 358 626 359h62v29q0 266 -254 266q-158 0 -293 -99l-63 107q61 53 161.5 85t202.5 32q186 0 285.5 -101.5t99.5 -294.5v-659q-150 -115 -149 -203q0 -41 31.5 -66.5t62.5 -29.5l33 -6l-31 -115q-8 0 -23.5 2t-54.5 14.5t-68.5 31t-54 55t-24.5 86.5 q0 121 145 231v121l6 86h-4q-43 -98 -136 -165t-212 -67q-141 0 -244.5 80t-103.5 221zM217 289q0 -78 61.5 -137.5t170.5 -59.5q141 0 228 119t87 266v47h-59q-66 0 -114 -2t-125 -15t-126 -35.5t-86 -69.5t-37 -113z" />
<glyph unicode="&#x106;" horiz-adv-x="1470" d="M113 729q0 315 203.5 525t519.5 210q326 0 520 -186l-76 -104q-84 74 -203 115.5t-237 41.5q-258 0 -419 -171t-161 -429q0 -262 162 -442t424 -180q270 0 465 190l82 -100q-227 -223 -551 -223.5t-526.5 215.5t-202.5 538zM756 1540l141 244h162l-178 -244h-125z" />
<glyph unicode="&#x107;" horiz-adv-x="1110" d="M96 514q0 236 156 388.5t385 152.5q106 0 208.5 -38t168.5 -110l-72 -104q-55 57 -136 92t-165 35q-172 0 -286.5 -117t-114.5 -299q0 -180 115.5 -296t289.5 -116q90 0 180 38t150 104l63 -105q-68 -76 -175 -120t-226 -44q-231 0 -386 150.5t-155 388.5zM532 1198 l142 244h162l-179 -244h-125z" />
<glyph unicode="&#x108;" horiz-adv-x="1470" d="M113 729q0 315 203.5 525t519.5 210q326 0 520 -186l-76 -104q-84 74 -203 115.5t-237 41.5q-258 0 -419 -171t-161 -429q0 -262 162 -442t424 -180q270 0 465 190l82 -100q-227 -223 -551 -223.5t-526.5 215.5t-202.5 538zM575 1540l170 244h154l172 -244h-135l-111 164 h-4l-110 -164h-136z" />
<glyph unicode="&#x109;" horiz-adv-x="1110" d="M96 514q0 236 156 388.5t385 152.5q106 0 208.5 -38t168.5 -110l-72 -104q-55 57 -136 92t-165 35q-172 0 -286.5 -117t-114.5 -299q0 -180 115.5 -296t289.5 -116q90 0 180 38t150 104l63 -105q-68 -76 -175 -120t-226 -44q-231 0 -386 150.5t-155 388.5zM350 1198 l170 244h154l172 -244h-135l-111 164h-4l-111 -164h-135z" />
<glyph unicode="&#x10a;" horiz-adv-x="1470" d="M113 729q0 315 203.5 525t519.5 210q326 0 520 -186l-76 -104q-84 74 -203 115.5t-237 41.5q-258 0 -419 -171t-161 -429q0 -262 162 -442t424 -180q270 0 465 190l82 -100q-227 -223 -551 -223.5t-526.5 215.5t-202.5 538zM756 1610v174h133v-174h-133z" />
<glyph unicode="&#x10b;" horiz-adv-x="1110" d="M96 514q0 236 156 388.5t385 152.5q106 0 208.5 -38t168.5 -110l-72 -104q-55 57 -136 92t-165 35q-172 0 -286.5 -117t-114.5 -299q0 -180 115.5 -296t289.5 -116q90 0 180 38t150 104l63 -105q-68 -76 -175 -120t-226 -44q-231 0 -386 150.5t-155 388.5zM532 1268v174 h134v-174h-134z" />
<glyph unicode="&#x10c;" horiz-adv-x="1470" d="M113 729q0 315 203.5 525t519.5 210q326 0 520 -186l-76 -104q-84 74 -203 115.5t-237 41.5q-258 0 -419 -171t-161 -429q0 -262 162 -442t424 -180q270 0 465 190l82 -100q-227 -223 -551 -223.5t-526.5 215.5t-202.5 538zM575 1784h136l110 -164h4l111 164h135 l-172 -244h-154z" />
<glyph unicode="&#x10d;" horiz-adv-x="1110" d="M96 514q0 236 156 388.5t385 152.5q106 0 208.5 -38t168.5 -110l-72 -104q-55 57 -136 92t-165 35q-172 0 -286.5 -117t-114.5 -299q0 -180 115.5 -296t289.5 -116q90 0 180 38t150 104l63 -105q-68 -76 -175 -120t-226 -44q-231 0 -386 150.5t-155 388.5zM350 1442h135 l111 -164h4l111 164h135l-172 -244h-154z" />
<glyph unicode="&#x10e;" horiz-adv-x="1511" d="M207 0v1440h463q330 0 526.5 -191.5t196.5 -527.5q0 -338 -197 -529.5t-526 -191.5h-463zM348 127h307q270 0 430 154.5t160 439.5q0 283 -159.5 437.5t-430.5 154.5h-307v-1186zM451 1784h135l110 -164h4l111 164h135l-172 -244h-153z" />
<glyph unicode="&#x10f;" horiz-adv-x="1214" d="M100 516q0 242 129 390.5t336 148.5q109 0 200 -54.5t138 -148.5h4q-6 35 -6 78v510h139v-1440h-135v117l6 73h-4q-47 -94 -139 -154.5t-219 -60.5q-205 0 -327 149.5t-122 391.5zM244 516q0 -188 91 -302t236 -114q141 0 236.5 104.5t95.5 313.5q0 168 -85 289t-240 121 q-141 0 -237.5 -111t-96.5 -301zM1151 1153q39 96 39 166q0 58 -23 119h133q12 -55 13 -101q0 -80 -47 -184h-115z" />
<glyph unicode="&#x110;" horiz-adv-x="1523" d="M96 662v122h123v656h463q330 0 526.5 -191.5t196.5 -527.5q0 -338 -196.5 -529.5t-526.5 -191.5h-463v662h-123zM360 127h308q270 0 429.5 154.5t159.5 439.5q0 283 -159.5 437.5t-429.5 154.5h-308v-529h342v-122h-342v-535z" />
<glyph unicode="&#x111;" horiz-adv-x="1206" d="M100 516q0 242 129 390.5t336 148.5q104 0 195.5 -51.5t138.5 -143.5h4q-2 35 -2 78v221h-270v105h270v176h139v-176h162v-105h-162v-1159h-135v109l4 75h-4q-43 -90 -136 -149.5t-220 -59.5q-205 0 -327 149.5t-122 391.5zM244 516q0 -188 91 -302t236 -114 q141 0 236.5 104.5t95.5 313.5q0 168 -85 290t-240 122q-141 0 -237.5 -112t-96.5 -302z" />
<glyph unicode="&#x112;" horiz-adv-x="1146" d="M207 0v1440h809v-127h-668v-525h547v-126h-547v-535h707v-127h-848zM383 1608v112h504v-112h-504z" />
<glyph unicode="&#x113;" horiz-adv-x="1132" d="M96 514q0 246 146.5 393.5t363.5 147.5q205 0 317.5 -136.5t112.5 -338.5q0 -25 -4 -70h-790q4 -190 118.5 -299t280.5 -109q178 0 313 123l64 -106q-72 -66 -175.5 -105t-205.5 -39q-231 0 -386 151.5t-155 387.5zM248 621h647q-6 154 -88 236.5t-205 82.5 q-133 0 -231 -83.5t-123 -235.5zM354 1266v112h504v-112h-504z" />
<glyph unicode="&#x114;" horiz-adv-x="1146" d="M207 0v1440h809v-127h-668v-525h547v-126h-547v-535h707v-127h-848zM397 1753v31h113v-29q0 -63 35 -94t90 -31q51 0 87 32t36 95v27h112v-31q0 -104 -69.5 -161.5t-165.5 -57.5q-98 0 -168 57.5t-70 161.5z" />
<glyph unicode="&#x115;" horiz-adv-x="1132" d="M96 514q0 246 146.5 393.5t363.5 147.5q205 0 317.5 -136.5t112.5 -338.5q0 -25 -4 -70h-790q4 -190 118.5 -299t280.5 -109q178 0 313 123l64 -106q-72 -66 -175.5 -105t-205.5 -39q-231 0 -386 151.5t-155 387.5zM248 621h647q-6 154 -88 236.5t-205 82.5 q-133 0 -231 -83.5t-123 -235.5zM369 1411v31h112v-29q0 -63 35 -94t90 -31q51 0 87 32t36 95v27h113v-31q0 -104 -70 -161.5t-166 -57.5q-98 0 -167.5 57.5t-69.5 161.5z" />
<glyph unicode="&#x116;" horiz-adv-x="1146" d="M207 0v1440h809v-127h-668v-525h547v-126h-547v-535h707v-127h-848zM567 1610v174h133v-174h-133z" />
<glyph unicode="&#x117;" horiz-adv-x="1132" d="M96 514q0 246 146.5 393.5t363.5 147.5q205 0 317.5 -136.5t112.5 -338.5q0 -25 -4 -70h-790q4 -190 118.5 -299t280.5 -109q178 0 313 123l64 -106q-72 -66 -175.5 -105t-205.5 -39q-231 0 -386 151.5t-155 387.5zM248 621h647q-6 154 -88 236.5t-205 82.5 q-133 0 -231 -83.5t-123 -235.5zM539 1268v174h133v-174h-133z" />
<glyph unicode="&#x118;" horiz-adv-x="1146" d="M207 0v1440h809v-127h-668v-525h547v-126h-547v-535h707v-127q-150 -115 -150 -203q0 -41 32 -66.5t62 -29.5l33 -6l-33 -115q-8 0 -23 2t-54 14.5t-68 31t-53.5 55t-24.5 86.5q0 125 150 231h-719z" />
<glyph unicode="&#x119;" horiz-adv-x="1132" d="M96 514q0 246 146.5 393.5t363.5 147.5q205 0 317.5 -136.5t112.5 -338.5l-4 -70h-790q4 -190 118.5 -299t280.5 -109q170 0 313 123l64 -104q-23 -23 -109 -83.5t-137 -118.5t-51 -122q0 -41 31.5 -66.5t62.5 -29.5l33 -6l-31 -115q-8 0 -23.5 2t-54.5 14.5t-68.5 31 t-54 55t-24.5 86.5q0 113 119 215q-45 -8 -74 -9q-231 0 -386 151.5t-155 387.5zM248 621h647q-6 156 -88 237.5t-205 81.5q-133 0 -231 -84.5t-123 -234.5z" />
<glyph unicode="&#x11a;" horiz-adv-x="1146" d="M207 0v1440h809v-127h-668v-525h547v-126h-547v-535h707v-127h-848zM387 1784h135l111 -164h4l111 164h135l-172 -244h-154z" />
<glyph unicode="&#x11b;" horiz-adv-x="1132" d="M96 514q0 246 146.5 393.5t363.5 147.5q205 0 317.5 -136.5t112.5 -338.5q0 -25 -4 -70h-790q4 -190 118.5 -299t280.5 -109q178 0 313 123l64 -106q-72 -66 -175.5 -105t-205.5 -39q-231 0 -386 151.5t-155 387.5zM248 621h647q-6 154 -88 236.5t-205 82.5 q-133 0 -231 -83.5t-123 -235.5zM358 1442h136l110 -164h4l111 164h135l-172 -244h-154z" />
<glyph unicode="&#x11c;" horiz-adv-x="1552" d="M113 721q0 313 208.5 528t518.5 215q305 0 512 -168l-78 -108q-76 63 -194.5 103t-233.5 40q-258 0 -422 -174t-164 -434q0 -266 163 -440t411 -174q127 0 246.5 56t205.5 152v244h-246v127h379v-688h-129v109l2 61h-4q-80 -88 -205 -141.5t-264 -53.5 q-299 0 -502.5 213.5t-203.5 532.5zM567 1540l170 244h154l172 -244h-135l-111 164h-4l-111 -164h-135z" />
<glyph unicode="&#x11d;" horiz-adv-x="1191" d="M102 534.5q0 233.5 121 377t326 143.5q111 0 204 -45t138 -136h4q-4 12 -4 35v121h135v-1005q0 -229 -142.5 -342t-353.5 -113q-178 0 -335 84l51 113q135 -70 280 -70q162 0 260.5 79t98.5 242v103l8 76h-4q-100 -190 -328 -191q-207 0 -333 147.5t-126 381zM244 536.5 q0 -184.5 92 -295t246 -110.5q137 0 222 95.5t85 308.5q0 395 -326 395q-150 0 -234.5 -104.5t-84.5 -289zM334 1198l170 244h153l172 -244h-135l-110 164h-4l-111 -164h-135z" />
<glyph unicode="&#x11e;" horiz-adv-x="1552" d="M113 721q0 313 208.5 528t518.5 215q305 0 512 -168l-78 -108q-76 63 -194.5 103t-233.5 40q-258 0 -422 -174t-164 -434q0 -266 163 -440t411 -174q127 0 246.5 56t205.5 152v244h-246v127h379v-688h-129v109l2 61h-4q-80 -88 -205 -141.5t-264 -53.5 q-299 0 -502.5 213.5t-203.5 532.5zM580 1753v31h112v-29q0 -63 35 -94t90 -31q51 0 87 32t36 95v27h113v-31q0 -104 -70 -161.5t-166 -57.5q-98 0 -167.5 57.5t-69.5 161.5z" />
<glyph unicode="&#x11f;" horiz-adv-x="1191" d="M102 534.5q0 233.5 121 377t326 143.5q111 0 204 -45t138 -136h4q-4 12 -4 35v121h135v-1005q0 -229 -142.5 -342t-353.5 -113q-178 0 -335 84l51 113q135 -70 280 -70q162 0 260.5 79t98.5 242v103l8 76h-4q-100 -190 -328 -191q-207 0 -333 147.5t-126 381zM244 536.5 q0 -184.5 92 -295t246 -110.5q137 0 222 95.5t85 308.5q0 395 -326 395q-150 0 -234.5 -104.5t-84.5 -289zM344 1411v31h113v-29q0 -63 34.5 -94t90.5 -31q51 0 87 32t36 95v27h112v-31q0 -104 -69.5 -161.5t-165.5 -57.5q-98 0 -168 57.5t-70 161.5z" />
<glyph unicode="&#x120;" horiz-adv-x="1552" d="M113 721q0 313 208.5 528t518.5 215q305 0 512 -168l-78 -108q-76 63 -194.5 103t-233.5 40q-258 0 -422 -174t-164 -434q0 -266 163 -440t411 -174q127 0 246.5 56t205.5 152v244h-246v127h379v-688h-129v109l2 61h-4q-80 -88 -205 -141.5t-264 -53.5 q-299 0 -502.5 213.5t-203.5 532.5zM750 1610v174h133v-174h-133z" />
<glyph unicode="&#x121;" horiz-adv-x="1191" d="M102 534.5q0 233.5 121 377t326 143.5q111 0 204 -45t138 -136h4q-4 12 -4 35v121h135v-1005q0 -229 -142.5 -342t-353.5 -113q-178 0 -335 84l51 113q135 -70 280 -70q162 0 260.5 79t98.5 242v103l8 76h-4q-100 -190 -328 -191q-207 0 -333 147.5t-126 381zM244 536.5 q0 -184.5 92 -295t246 -110.5q137 0 222 95.5t85 308.5q0 395 -326 395q-150 0 -234.5 -104.5t-84.5 -289zM514 1268v174h133v-174h-133z" />
<glyph unicode="&#x122;" horiz-adv-x="1552" d="M113 721q0 313 208.5 528t518.5 215q305 0 512 -168l-78 -108q-76 63 -194.5 103t-233.5 40q-258 0 -422 -174t-164 -434q0 -266 163 -440t411 -174q127 0 246.5 56t205.5 152v244h-246v127h379v-688h-129v109l2 61h-4q-80 -88 -205 -141.5t-264 -53.5 q-299 0 -502.5 213.5t-203.5 532.5zM733 -414q39 98 39 166q1 58 -22 119h133q12 -55 12 -100q0 -80 -47 -185h-115z" />
<glyph unicode="&#x123;" horiz-adv-x="1191" d="M102 534.5q0 233.5 121 377t326 143.5q111 0 204 -45t138 -136h4q-4 12 -4 35v121h135v-1005q0 -229 -142.5 -342t-353.5 -113q-178 0 -335 84l51 113q135 -70 280 -70q162 0 260.5 79t98.5 242v103l8 76h-4q-100 -190 -328 -191q-207 0 -333 147.5t-126 381zM244 536.5 q0 -184.5 92 -295t246 -110.5q137 0 222 95.5t85 308.5q0 395 -326 395q-150 0 -234.5 -104.5t-84.5 -289zM506 1255q0 80 47 185h115q-39 -96 -39 -166q-1 -58 22 -117h-133q-12 51 -12 98z" />
<glyph unicode="&#x124;" horiz-adv-x="1529" d="M207 0v1440h141v-656h834v656h143v-1440h-143v657h-834v-657h-141zM516 1540l170 244h154l172 -244h-135l-111 164h-4l-111 -164h-135z" />
<glyph unicode="&#x125;" horiz-adv-x="1216" d="M-8 1540l170 244h153l172 -244h-135l-110 164h-4l-111 -164h-135zM166 0v1440h139v-566l-6 -83h4q37 94 146.5 179t265.5 85q186 0 266 -100.5t80 -299.5v-655h-139v618q0 145 -45.5 225.5t-180.5 80.5q-164 0 -277.5 -121t-113.5 -305v-498h-139z" />
<glyph unicode="&#x126;" horiz-adv-x="1552" d="M86 1049v108h133v283h143v-283h828v283h143v-283h133v-108h-133v-1049h-143v657h-828v-657h-143v1049h-133zM362 784h828v265h-828v-265z" />
<glyph unicode="&#x127;" horiz-adv-x="1216" d="M10 1159v105h156v176h139v-176h275v-105h-275v-276l-4 -84h4q39 92 146.5 174t263.5 82q186 0 266 -100.5t80 -299.5v-655h-139v618q0 145 -45.5 225.5t-180.5 80.5q-168 0 -279.5 -123t-111.5 -297v-504h-139v1159h-156z" />
<glyph unicode="&#x128;" horiz-adv-x="555" d="M-39 1546q0 238 189 238q59 0 103 -36t81 -73t74 -37q45 0 63 44t18 96h111q0 -238 -188 -238q-59 0 -103.5 37t-81.5 73t-73 36q-80 0 -80 -140h-113zM207 0v1440h141v-1440h-141z" />
<glyph unicode="&#x129;" horiz-adv-x="471" d="M-80 1204q0 238 189 238q59 0 103 -37t81 -73t74 -36q45 0 63.5 44t18.5 96h110q0 -238 -188 -238q-59 0 -103.5 36t-81 72.5t-73.5 36.5q-80 0 -80 -139h-113zM166 0v1030h139v-1030h-139z" />
<glyph unicode="&#x12a;" horiz-adv-x="555" d="M29 1608v112h503v-112h-503zM207 0v1440h141v-1440h-141z" />
<glyph unicode="&#x12b;" horiz-adv-x="471" d="M-14 1266v112h503v-112h-503zM166 0v1030h139v-1030h-139z" />
<glyph unicode="&#x12c;" horiz-adv-x="555" d="M43 1753v31h113v-29q0 -63 34.5 -94t90.5 -31q51 0 86.5 32t35.5 95v27h113v-31q0 -104 -69.5 -161.5t-165.5 -57.5q-98 0 -168 57.5t-70 161.5zM207 0v1440h141v-1440h-141z" />
<glyph unicode="&#x12d;" horiz-adv-x="471" d="M2 1411v31h113v-29q0 -63 34.5 -94t90.5 -31q51 0 86.5 32t35.5 95v27h113v-31q0 -104 -69.5 -161.5t-165.5 -57.5q-98 0 -168 57.5t-70 161.5zM166 0v1030h139v-1030h-139z" />
<glyph unicode="&#x12e;" horiz-adv-x="555" d="M70 -231q0 121 143 231h-6v1440h141v-1440q-150 -115 -149 -203q0 -41 31.5 -66.5t64.5 -29.5l31 -6l-31 -115q-8 0 -23.5 2t-54.5 14.5t-68.5 31t-54 55t-24.5 86.5z" />
<glyph unicode="&#x12f;" horiz-adv-x="473" d="M29 -229q0 121 147 229h-10v1030h139v-1028l2 -2q-150 -115 -149 -203q0 -41 31.5 -66.5t64.5 -29.5l31 -6l-31 -115q-8 0 -23.5 2t-54.5 14.5t-68.5 31t-54 56t-24.5 87.5zM160 1266v174h151v-174h-151z" />
<glyph unicode="&#x130;" horiz-adv-x="555" d="M207 0v1440h141v-1440h-141zM213 1610v174h133v-174h-133z" />
<glyph unicode="&#x131;" horiz-adv-x="471" d="M166 0v1030h139v-1030h-139z" />
<glyph unicode="&#x132;" horiz-adv-x="1189" d="M207 0v1440h141v-1440h-141zM555 -10v133q299 0 299 344v973h143v-973q0 -477 -442 -477z" />
<glyph unicode="&#x133;" horiz-adv-x="944" d="M160 1266v174h151v-174h-151zM166 0v1030h139v-1030h-139zM358 -293q16 -4 45 -4q37 0 71 9t74 34t64.5 82t24.5 139v1063h139v-1067q0 -121 -38 -204t-99 -118.5t-113.5 -49t-107.5 -13.5q-29 0 -60 6v123zM631 1266v174h151v-174h-151z" />
<glyph unicode="&#x134;" horiz-adv-x="1064" d="M66 403v58h141v-53q0 -129 65.5 -214t194.5 -85q113 0 188.5 71.5t75.5 222.5v910h-352v127h493v-1037q0 -217 -117.5 -322.5t-285.5 -105.5t-285.5 106.5t-117.5 321.5zM377 1540l170 244h153l172 -244h-135l-110 164h-4l-111 -164h-135z" />
<glyph unicode="&#x135;" horiz-adv-x="471" d="M-113 -293q25 -4 45 -4q37 0 71 9t74 34t64.5 82t24.5 139v1063h139v-1067q0 -121 -38 -204t-99.5 -118.5t-113.5 -49t-107 -13.5q-29 0 -60 6v123zM-16 1196l172 244h147l172 -244h-133l-111 166h-4l-110 -166h-133z" />
<glyph unicode="&#x136;" horiz-adv-x="1210" d="M207 0v1440h141v-625h242l389 625h162l-432 -680v-4l460 -756h-165l-414 688h-242v-688h-141zM547 -414q39 98 39 166q0 58 -23 119h133q12 -55 13 -100q0 -80 -47 -185h-115z" />
<glyph unicode="&#x137;" horiz-adv-x="1015" d="M166 0v1440h139v-803h166l307 393h168l-358 -448v-4l395 -578h-168l-342 514h-168v-514h-139zM446 -414q39 98 39 166q1 58 -22 119h133q12 -55 12 -100q0 -80 -47 -185h-115z" />
<glyph unicode="&#x138;" horiz-adv-x="1011" d="M166 0v1030h139v-422h162l326 422h170l-375 -477v-4l377 -549h-172l-324 487h-164v-487h-139z" />
<glyph unicode="&#x139;" horiz-adv-x="1058" d="M207 0v1440h141v-1313h668v-127h-809zM213 1540l141 244h162l-178 -244h-125z" />
<glyph unicode="&#x13a;" horiz-adv-x="503" d="M166 244v1196h139v-1166q0 -156 117 -155q20 0 33 2v-125q-25 -4 -52 -4q-31 0 -57.5 4t-61 19.5t-59 42t-42 75t-17.5 111.5zM174 1540l141 244h162l-178 -244h-125z" />
<glyph unicode="&#x13b;" horiz-adv-x="1058" d="M207 0v1440h141v-1313h668v-127h-809zM539 -414q39 98 39 166q0 58 -23 119h133q12 -55 12 -100q0 -80 -47 -185h-114z" />
<glyph unicode="&#x13c;" horiz-adv-x="503" d="M166 244v1196h139v-1166q0 -156 117 -155q20 0 33 2v-125q-25 -4 -52 -4q-31 0 -57.5 4t-61 19.5t-59 42t-42 75t-17.5 111.5zM221 -414q39 98 39 166q1 58 -22 119h133q12 -55 12 -100q0 -80 -47 -185h-115z" />
<glyph unicode="&#x13d;" horiz-adv-x="1058" d="M207 0v1440h141v-1313h668v-127h-809zM518 1153q39 96 39 166q1 58 -22 119h133q12 -55 12 -101q0 -80 -47 -184h-115z" />
<glyph unicode="&#x13e;" horiz-adv-x="512" d="M166 244v1196h139v-1166q0 -156 117 -155q20 0 33 2v-125q-25 -4 -52 -4q-31 0 -57.5 4t-61 19.5t-59 42t-42 75t-17.5 111.5zM420 1153q39 96 39 166q0 58 -23 119h133q12 -55 13 -101q0 -80 -47 -184h-115z" />
<glyph unicode="&#x13f;" horiz-adv-x="1058" d="M207 0v1440h141v-1313h668v-127h-809zM602 676v170h164v-170h-164z" />
<glyph unicode="&#x140;" horiz-adv-x="583" d="M166 244v1196h139v-1166q0 -156 117 -155q20 0 33 2v-125q-25 -4 -52 -4q-31 0 -57.5 4t-61 19.5t-59 42t-42 75t-17.5 111.5zM444 676v170h164v-170h-164z" />
<glyph unicode="&#x141;" horiz-adv-x="1069" d="M90 618v144l127 74v604h141v-522l232 133v-146l-232 -133v-645h668v-127h-809v690z" />
<glyph unicode="&#x142;" horiz-adv-x="548" d="M33 627v143l166 96v574h139v-494l178 105v-146l-178 -104v-527q0 -156 117 -155l32 2v-125q-25 -4 -51 -4q-238 0 -237 252v477z" />
<glyph unicode="&#x143;" horiz-adv-x="1538" d="M207 0v1440h137l735 -1037l119 -194h4q-12 119 -12 194v1037h141v-1440h-137l-735 1036l-119 195h-4q12 -119 12 -195v-1036h-141zM700 1540l142 244h162l-179 -244h-125z" />
<glyph unicode="&#x144;" horiz-adv-x="1216" d="M166 0v1030h137v-162l-8 -82h4q39 94 146.5 181.5t269.5 87.5q186 0 266 -100.5t80 -299.5v-655h-139v618q0 145 -45.5 225.5t-180.5 80.5q-166 0 -278.5 -121t-112.5 -299v-504h-139zM565 1198l142 244h161l-178 -244h-125z" />
<glyph unicode="&#x145;" horiz-adv-x="1538" d="M207 0v1440h137l735 -1037l119 -194h4q-12 119 -12 194v1037h141v-1440h-137l-735 1036l-119 195h-4q12 -119 12 -195v-1036h-141zM682 -414q39 98 39 166q0 58 -23 119h133q12 -55 13 -100q0 -80 -47 -185h-115z" />
<glyph unicode="&#x146;" horiz-adv-x="1216" d="M166 0v1030h137v-162l-8 -82h4q39 94 146.5 181.5t269.5 87.5q186 0 266 -100.5t80 -299.5v-655h-139v618q0 145 -45.5 225.5t-180.5 80.5q-166 0 -278.5 -121t-112.5 -299v-504h-139zM526 -414q39 98 39 166q1 58 -22 119h133q12 -55 12 -100q0 -80 -47 -185h-115z" />
<glyph unicode="&#x147;" horiz-adv-x="1538" d="M207 0v1440h137l735 -1037l119 -194h4q-12 119 -12 194v1037h141v-1440h-137l-735 1036l-119 195h-4q12 -119 12 -195v-1036h-141zM520 1784h135l111 -164h4l111 164h135l-172 -244h-154z" />
<glyph unicode="&#x148;" horiz-adv-x="1216" d="M166 0v1030h137v-162l-8 -82h4q39 94 146.5 181.5t269.5 87.5q186 0 266 -100.5t80 -299.5v-655h-139v618q0 145 -45.5 225.5t-180.5 80.5q-166 0 -278.5 -121t-112.5 -299v-504h-139zM385 1442h135l111 -164h4l110 164h136l-172 -244h-154z" />
<glyph unicode="&#x149;" horiz-adv-x="1216" d="M23 1153q39 96 38 166q1 58 -22 119h133q12 -55 12 -101q0 -80 -47 -184h-114zM166 0v1030h137v-162l-8 -82h4q39 94 146.5 181.5t269.5 87.5q186 0 266 -100.5t80 -299.5v-655h-139v618q0 145 -45.5 225.5t-180.5 80.5q-166 0 -278.5 -121t-112.5 -299v-504h-139z" />
<glyph unicode="&#x14a;" horiz-adv-x="1538" d="M207 0v1440h137l735 -1037l119 -194h4q-12 119 -12 194v1037h141v-1415q0 -233 -125 -339t-301 -106v133q111 0 195 72t86 225l-727 1026l-119 195h-4q12 -119 12 -195v-1036h-141z" />
<glyph unicode="&#x14b;" horiz-adv-x="1216" d="M166 0v1030h137v-164l-4 -71h4q39 94 144.5 177t267.5 83q186 0 266 -100.5t80 -299.5v-702q0 -121 -38 -203t-100.5 -117.5t-114.5 -49t-108 -13.5l-59 6v121q18 -2 45 -2q37 0 72 9t74.5 33.5t64.5 82t25 139.5v659q0 145 -45.5 225.5t-180.5 80.5q-170 0 -280.5 -123 t-110.5 -297v-504h-139z" />
<glyph unicode="&#x14c;" horiz-adv-x="1689" d="M111 731q0 309 209.5 521t523.5 212q315 0 524 -211t209 -522q0 -319 -209 -537.5t-524 -218.5q-313 0 -523 218.5t-210 537.5zM258 731q0 -264 167 -443t419 -179t419 178t167 444q0 256 -167 428t-419 172t-419 -172t-167 -428zM592 1608v112h504v-112h-504z" />
<glyph unicode="&#x14d;" horiz-adv-x="1277" d="M96 520q0 227 158 381t385 154t386 -153.5t159 -381.5q0 -231 -159 -388t-386 -157t-385 157t-158 388zM240 520q0 -180 115.5 -299t283.5 -119t284.5 119t116.5 299q0 174 -116.5 292t-284.5 118t-283.5 -118t-115.5 -292zM387 1266v112h504v-112h-504z" />
<glyph unicode="&#x14e;" horiz-adv-x="1689" d="M111 731q0 309 209.5 521t523.5 212q315 0 524 -211t209 -522q0 -319 -209 -537.5t-524 -218.5q-313 0 -523 218.5t-210 537.5zM258 731q0 -264 167 -443t419 -179t419 178t167 444q0 256 -167 428t-419 172t-419 -172t-167 -428zM606 1753v31h113v-29q0 -63 34.5 -94 t90.5 -31q51 0 87 32t36 95v27h112v-31q0 -104 -69.5 -161.5t-165.5 -57.5q-98 0 -168 57.5t-70 161.5z" />
<glyph unicode="&#x14f;" horiz-adv-x="1277" d="M96 520q0 227 158 381t385 154t386 -153.5t159 -381.5q0 -231 -159 -388t-386 -157t-385 157t-158 388zM240 520q0 -180 115.5 -299t283.5 -119t284.5 119t116.5 299q0 174 -116.5 292t-284.5 118t-283.5 -118t-115.5 -292zM401 1411v31h113v-29q0 -63 35 -94t90 -31 q51 0 87 32t36 95v27h112v-31q0 -104 -69.5 -161.5t-165.5 -57.5q-98 0 -168 57.5t-70 161.5z" />
<glyph unicode="&#x150;" horiz-adv-x="1689" d="M111 731q0 309 209.5 521t523.5 212q315 0 524 -211t209 -522q0 -319 -209 -537.5t-524 -218.5q-313 0 -523 218.5t-210 537.5zM258 731q0 -264 167 -443t419 -179t419 178t167 444q0 256 -167 428t-419 172t-419 -172t-167 -428zM612 1540l133 244h140l-140 -244h-133z M887 1540l143 244h158l-178 -244h-123z" />
<glyph unicode="&#x151;" horiz-adv-x="1277" d="M96 520q0 227 158 381t385 154t386 -153.5t159 -381.5q0 -231 -159 -388t-386 -157t-385 157t-158 388zM240 520q0 -180 115.5 -299t283.5 -119t284.5 119t116.5 299q0 174 -116.5 292t-284.5 118t-283.5 -118t-115.5 -292zM408 1198l133 244h139l-139 -244h-133z M682 1198l143 244h158l-178 -244h-123z" />
<glyph unicode="&#x152;" horiz-adv-x="1931" d="M113 721q0 313 208.5 525t526.5 212q43 0 128 -9t116 -9h710v-127h-669v-525h546v-126h-546v-535h706v-127h-747q-29 0 -115 -10t-129 -10q-317 0 -526 214t-209 527zM260 721q0 -264 164 -438t424 -174q35 0 70.5 4t54.5 8l18 4v1190q-66 16 -143 16q-260 0 -424 -174 t-164 -436z" />
<glyph unicode="&#x153;" horiz-adv-x="2074" d="M96 514q0 240 158 390.5t383 150.5q154 0 276.5 -74t188.5 -203h4q59 131 176 204t264 73q205 0 318.5 -136.5t113.5 -338.5l-4 -70h-790q8 -193 121.5 -300.5t277.5 -107.5q174 0 313 123l64 -106q-72 -66 -175.5 -105t-207.5 -39q-160 0 -283 75t-186 206h-4 q-66 -131 -188.5 -206t-278.5 -75q-225 0 -383 149.5t-158 389.5zM240 514q0 -182 115.5 -297t283.5 -115t284.5 116t116.5 302q0 182 -117.5 296t-283.5 114t-282.5 -117t-116.5 -299zM1190 621h645q-6 154 -88 235.5t-203 81.5q-133 0 -231 -83.5t-123 -233.5z" />
<glyph unicode="&#x154;" horiz-adv-x="1263" d="M207 0v1440h436q172 0 264 -41q213 -102 213 -361q0 -145 -75.5 -253.5t-198.5 -143.5v-4q16 -18 39 -57l313 -580h-164l-323 606h-363v-606h-141zM348 733h342q129 0 207 83t78 218q0 86 -40 152.5t-112 99.5q-59 27 -188 27h-287v-580zM549 1540l141 244h162l-178 -244 h-125z" />
<glyph unicode="&#x155;" horiz-adv-x="731" d="M166 0v1030h137v-190l-8 -82h4q41 123 128 202.5t202 79.5q31 0 55 -6v-137q-12 4 -51 4q-109 0 -186.5 -75.5t-109.5 -177t-32 -212.5v-436h-139zM371 1196l141 244h162l-178 -244h-125z" />
<glyph unicode="&#x156;" horiz-adv-x="1263" d="M207 0v1440h436q172 0 264 -41q213 -102 213 -361q0 -145 -75.5 -253.5t-198.5 -143.5v-4q16 -18 39 -57l313 -580h-164l-323 606h-363v-606h-141zM348 733h342q129 0 207 83t78 218q0 86 -40 152.5t-112 99.5q-59 27 -188 27h-287v-580zM571 -414q39 98 39 166 q1 58 -22 119h133q12 -55 12 -100q0 -80 -47 -185h-115z" />
<glyph unicode="&#x157;" horiz-adv-x="731" d="M156 -414q39 98 39 166q0 58 -23 119h133q12 -55 12 -100q0 -80 -47 -185h-114zM166 0v1030h137v-190l-8 -82h4q41 123 128 202.5t202 79.5q31 0 55 -6v-137q-12 4 -51 4q-109 0 -186.5 -75.5t-109.5 -177t-32 -212.5v-436h-139z" />
<glyph unicode="&#x158;" horiz-adv-x="1263" d="M207 0v1440h436q172 0 264 -41q213 -102 213 -361q0 -145 -75.5 -253.5t-198.5 -143.5v-4q16 -18 39 -57l313 -580h-164l-323 606h-363v-606h-141zM348 733h342q129 0 207 83t78 218q0 86 -40 152.5t-112 99.5q-59 27 -188 27h-287v-580zM369 1784h135l110 -164h4 l111 164h135l-172 -244h-153z" />
<glyph unicode="&#x159;" horiz-adv-x="731" d="M166 0v1030h137v-190l-8 -82h4q41 123 128 202.5t202 79.5q31 0 55 -6v-137q-12 4 -51 4q-109 0 -186.5 -75.5t-109.5 -177t-32 -212.5v-436h-139zM193 1440h135l110 -164h4l111 164h135l-172 -244h-154z" />
<glyph unicode="&#x15a;" horiz-adv-x="1093" d="M96 160l84 108q72 -70 171.5 -113.5t201.5 -43.5q129 0 210 67.5t81 177.5q0 74 -40 130.5t-102.5 94t-139.5 71.5t-153.5 71t-139 81t-102.5 114.5t-40 160.5q0 174 129 279.5t324 105.5q231 0 381 -139l-70 -119q-59 55 -145.5 89t-172.5 34q-127 0 -214 -65.5 t-87 -176.5q0 -70 40 -124t102.5 -88.5t139.5 -67.5t153.5 -70t139 -82t102.5 -117.5t40 -166.5q0 -172 -118.5 -284t-321.5 -112q-269 1 -453 185zM483 1540l142 244h161l-178 -244h-125z" />
<glyph unicode="&#x15b;" horiz-adv-x="897" d="M76 125l74 98q121 -125 311 -125q90 0 148.5 44t58.5 122q0 63 -56.5 107.5t-137.5 74t-162 64.5t-137 99.5t-56 158.5q0 135 100 211t250 76q199 0 317 -113l-65 -104q-43 43 -114.5 68.5t-143.5 25.5q-88 0 -147.5 -40t-59.5 -120q0 -63 56.5 -108.5t138 -75 t162.5 -64.5t137.5 -99.5t56.5 -158.5q0 -127 -98.5 -209t-249.5 -82q-240 0 -383 150zM387 1198l141 244h162l-178 -244h-125z" />
<glyph unicode="&#x15c;" horiz-adv-x="1093" d="M96 160l84 108q72 -70 171.5 -113.5t201.5 -43.5q129 0 210 67.5t81 177.5q0 74 -40 130.5t-102.5 94t-139.5 71.5t-153.5 71t-139 81t-102.5 114.5t-40 160.5q0 174 129 279.5t324 105.5q231 0 381 -139l-70 -119q-59 55 -145.5 89t-172.5 34q-127 0 -214 -65.5 t-87 -176.5q0 -70 40 -124t102.5 -88.5t139.5 -67.5t153.5 -70t139 -82t102.5 -117.5t40 -166.5q0 -172 -118.5 -284t-321.5 -112q-269 1 -453 185zM303 1540l170 244h154l172 -244h-135l-111 164h-4l-111 -164h-135z" />
<glyph unicode="&#x15d;" horiz-adv-x="897" d="M76 125l74 98q121 -125 311 -125q90 0 148.5 44t58.5 122q0 63 -56.5 107.5t-137.5 74t-162 64.5t-137 99.5t-56 158.5q0 135 100 211t250 76q199 0 317 -113l-65 -104q-43 43 -114.5 68.5t-143.5 25.5q-88 0 -147.5 -40t-59.5 -120q0 -63 56.5 -108.5t138 -75 t162.5 -64.5t137.5 -99.5t56.5 -158.5q0 -127 -98.5 -209t-249.5 -82q-240 0 -383 150zM209 1198l170 244h153l173 -244h-136l-110 164h-4l-111 -164h-135z" />
<glyph unicode="&#x15e;" horiz-adv-x="1095" d="M96 160l84 108q72 -70 171.5 -113.5t201.5 -43.5q129 0 210 67.5t81 177.5q0 74 -40 130.5t-102.5 94t-139.5 71.5t-153.5 71t-139 81t-102.5 114.5t-40 160.5q0 174 129 279.5t324 105.5q231 0 381 -139l-70 -119q-59 55 -145.5 89t-172.5 34q-127 0 -214 -65.5 t-87 -176.5q0 -70 40 -124t102.5 -88.5t139.5 -67.5t153.5 -70t139 -82t102.5 -117.5t40 -166.5q0 -162 -106.5 -271.5t-288.5 -122.5l-16 -90q66 -10 104.5 -48t38.5 -97q0 -84 -56.5 -123t-140.5 -39q-61 0 -102 10v99q31 -12 86 -13q104 0 104 70t-116 70l-31 -2l37 163 q-246 20 -406 183z" />
<glyph unicode="&#x15f;" horiz-adv-x="901" d="M78 125l74 98q121 -125 311 -125q90 0 148.5 44t58.5 122q0 63 -56.5 107.5t-137.5 74t-162 64.5t-137 99.5t-56 158.5q0 135 100.5 211t249.5 76q199 0 317 -113l-65 -104q-43 43 -114.5 68.5t-143.5 25.5q-88 0 -147.5 -40t-59.5 -120q0 -63 56.5 -108.5t138.5 -75 t162.5 -64.5t137 -99.5t56.5 -158.5q0 -119 -87 -198.5t-226 -90.5l-17 -90q66 -10 105 -48t39 -97q0 -84 -56.5 -123t-140.5 -39q-61 0 -102 10v99q31 -12 86 -13q104 0 104 70t-117 70l-30 -2l39 163q-211 20 -328 148z" />
<glyph unicode="&#x160;" horiz-adv-x="1093" d="M96 160l84 108q72 -70 171.5 -113.5t201.5 -43.5q129 0 210 67.5t81 177.5q0 74 -40 130.5t-102.5 94t-139.5 71.5t-153.5 71t-139 81t-102.5 114.5t-40 160.5q0 174 129 279.5t324 105.5q231 0 381 -139l-70 -119q-59 55 -145.5 89t-172.5 34q-127 0 -214 -65.5 t-87 -176.5q0 -70 40 -124t102.5 -88.5t139.5 -67.5t153.5 -70t139 -82t102.5 -117.5t40 -166.5q0 -172 -118.5 -284t-321.5 -112q-269 1 -453 185zM303 1784h135l111 -164h4l111 164h135l-172 -244h-154z" />
<glyph unicode="&#x161;" horiz-adv-x="897" d="M76 125l74 98q121 -125 311 -125q90 0 148.5 44t58.5 122q0 63 -56.5 107.5t-137.5 74t-162 64.5t-137 99.5t-56 158.5q0 135 100 211t250 76q199 0 317 -113l-65 -104q-43 43 -114.5 68.5t-143.5 25.5q-88 0 -147.5 -40t-59.5 -120q0 -63 56.5 -108.5t138 -75 t162.5 -64.5t137.5 -99.5t56.5 -158.5q0 -127 -98.5 -209t-249.5 -82q-240 0 -383 150zM209 1442h135l111 -164h4l110 164h136l-173 -244h-153z" />
<glyph unicode="&#x162;" horiz-adv-x="1243" d="M35 1313v127h1175v-127h-518v-1313h-28l-21 -113q66 -10 104.5 -48t38.5 -97q0 -84 -56 -123t-140 -39q-61 0 -103 10v99q31 -12 86 -13q104 0 104.5 70t-116.5 70l-31 -2l43 186h-22v1313h-516z" />
<glyph unicode="&#x163;" horiz-adv-x="665" d="M68 905v117h137v293h137v-293h260v-117h-260v-516q0 -84 24.5 -142.5t63.5 -84t74 -35.5t71 -10q29 0 48 4v-125q-25 -4 -60 -4q-66 0 -117 12l-20 -117q66 -10 104.5 -48t38.5 -97q0 -84 -56 -123t-140 -39q-61 0 -103 10v99q31 -12 86 -13q104 0 104.5 70t-116.5 70 l-31 -2l52 223q-162 92 -162 338v530h-135z" />
<glyph unicode="&#x164;" horiz-adv-x="1243" d="M35 1313v127h1175v-127h-518v-1313h-141v1313h-516zM373 1784h135l110 -164h5l110 164h135l-172 -244h-153z" />
<glyph unicode="&#x165;" horiz-adv-x="665" d="M68 905v117h137v293h137v-293h260v-117h-260v-516q0 -84 24.5 -142.5t63.5 -84t74 -35.5t71 -10q29 0 48 4v-125q-25 -4 -60 -4q-43 0 -84 6t-93 29.5t-91 62.5t-65.5 113t-26.5 172v530h-135zM463 1155q39 98 39 164q0 58 -23 119h133q12 -55 13 -101q0 -78 -47 -182 h-115z" />
<glyph unicode="&#x166;" horiz-adv-x="1263" d="M45 1313v127h1176v-127h-519v-533h340v-116h-340v-664h-141v664h-330v116h330v533h-516z" />
<glyph unicode="&#x167;" horiz-adv-x="675" d="M68 569v109h141v227h-135v117h135v293h137v-293h260v-117h-260v-227h256v-109h-256v-184q0 -82 24.5 -140.5t63.5 -84t74 -34.5t72 -9l47 4v-125q-25 -4 -60 -4q-43 0 -84 6t-93 29.5t-90 62.5t-64.5 112.5t-26.5 172.5v194h-141z" />
<glyph unicode="&#x168;" horiz-adv-x="1480" d="M190 502v938h142v-936q0 -184 110.5 -289.5t296.5 -105.5q188 0 299 106.5t111 292.5v932h143v-938q0 -238 -152.5 -382.5t-398 -144.5t-398.5 144.5t-153 382.5zM420 1546q0 238 188 238q59 0 103.5 -36t81 -73t73.5 -37q45 0 63.5 44t18.5 96h111q0 -238 -189 -238 q-59 0 -103 37t-81 73t-74 36q-80 0 -80 -140h-112z" />
<glyph unicode="&#x169;" horiz-adv-x="1204" d="M154 375v655h141v-618q0 -145 44 -225.5t179 -80.5q170 0 275.5 127t105.5 304v493h139v-1030h-137v162l8 82h-4q-37 -96 -144.5 -182.5t-260.5 -86.5q-180 0 -263 98.5t-83 301.5zM276 1204q0 238 189 238q59 0 103 -37t81 -73t74 -36q45 0 63.5 44t18.5 96h110 q0 -238 -188 -238q-59 0 -103 36t-81 72.5t-74 36.5q-80 0 -80 -139h-113z" />
<glyph unicode="&#x16a;" horiz-adv-x="1480" d="M190 502v938h142v-936q0 -184 110.5 -289.5t296.5 -105.5q188 0 299 106.5t111 292.5v932h143v-938q0 -238 -152.5 -382.5t-398 -144.5t-398.5 144.5t-153 382.5zM487 1608v112h504v-112h-504z" />
<glyph unicode="&#x16b;" horiz-adv-x="1204" d="M154 375v655h141v-618q0 -145 44 -225.5t179 -80.5q170 0 275.5 127t105.5 304v493h139v-1030h-137v162l8 82h-4q-37 -96 -144.5 -182.5t-260.5 -86.5q-180 0 -263 98.5t-83 301.5zM344 1266v112h504v-112h-504z" />
<glyph unicode="&#x16c;" horiz-adv-x="1480" d="M190 502v938h142v-936q0 -184 110.5 -289.5t296.5 -105.5q188 0 299 106.5t111 292.5v932h143v-938q0 -238 -152.5 -382.5t-398 -144.5t-398.5 144.5t-153 382.5zM502 1753v31h112v-29q0 -63 35 -94t90 -31q51 0 87 32t36 95v27h113v-31q0 -104 -70 -161.5t-166 -57.5 q-98 0 -167.5 57.5t-69.5 161.5z" />
<glyph unicode="&#x16d;" horiz-adv-x="1204" d="M154 375v655h141v-618q0 -145 44 -225.5t179 -80.5q170 0 275.5 127t105.5 304v493h139v-1030h-137v162l8 82h-4q-37 -96 -144.5 -182.5t-260.5 -86.5q-180 0 -263 98.5t-83 301.5zM358 1411v31h113v-29q0 -63 35 -94t90 -31q51 0 87 32t36 95v27h112v-31 q0 -104 -69.5 -161.5t-165.5 -57.5q-98 0 -168 57.5t-70 161.5z" />
<glyph unicode="&#x16e;" horiz-adv-x="1480" d="M190 502v938h142v-936q0 -184 110.5 -289.5t296.5 -105.5q188 0 299 106.5t111 292.5v932h143v-938q0 -238 -152.5 -382.5t-398 -144.5t-398.5 144.5t-153 382.5zM584 1662.5q0 63.5 45 104.5t110 41q63 0 108.5 -41t45.5 -104.5t-45.5 -103t-108.5 -39.5 q-66 0 -110.5 39.5t-44.5 103zM672 1663q0 -29 18 -48.5t49 -19.5q29 0 47.5 19.5t18.5 48.5q0 31 -18.5 50.5t-47.5 19.5q-31 0 -49 -19.5t-18 -50.5z" />
<glyph unicode="&#x16f;" horiz-adv-x="1204" d="M154 375v655h141v-618q0 -145 44 -225.5t179 -80.5q170 0 275.5 127t105.5 304v493h139v-1030h-137v162l8 82h-4q-37 -96 -144.5 -182.5t-260.5 -86.5q-180 0 -263 98.5t-83 301.5zM440 1320.5q0 63.5 45 104.5t111 41q63 0 108.5 -41t45.5 -104.5t-45.5 -103 t-108.5 -39.5q-66 0 -111 39.5t-45 103zM528 1321q0 -29 18.5 -48.5t49.5 -19.5q29 0 47.5 19.5t18.5 48.5q0 31 -18.5 50.5t-47.5 19.5q-31 0 -49.5 -19.5t-18.5 -50.5z" />
<glyph unicode="&#x170;" horiz-adv-x="1480" d="M190 502v938h142v-936q0 -184 110.5 -289.5t296.5 -105.5q188 0 299 106.5t111 292.5v932h143v-938q0 -238 -152.5 -382.5t-398 -144.5t-398.5 144.5t-153 382.5zM508 1540l133 244h139l-139 -244h-133zM782 1540l144 244h157l-178 -244h-123z" />
<glyph unicode="&#x171;" horiz-adv-x="1204" d="M154 375v655h141v-618q0 -145 44 -225.5t179 -80.5q170 0 275.5 127t105.5 304v493h139v-1030h-137v162l8 82h-4q-37 -96 -144.5 -182.5t-260.5 -86.5q-180 0 -263 98.5t-83 301.5zM365 1198l133 244h139l-139 -244h-133zM639 1198l143 244h158l-178 -244h-123z" />
<glyph unicode="&#x172;" horiz-adv-x="1480" d="M190 502v938h142v-936q0 -184 110.5 -289.5t298.5 -105.5q186 0 298 106.5t112 292.5v932h141v-938q0 -176 -72.5 -280.5t-197.5 -186.5q-76 -51 -109.5 -76t-69.5 -71t-36 -91q0 -41 31.5 -66.5t62.5 -29.5l33 -6l-33 -115q-8 0 -23.5 2t-54.5 14.5t-68.5 31t-54 55 t-24.5 86.5q0 111 110 208q-33 -2 -49 -2q-238 0 -392.5 142.5t-154.5 384.5z" />
<glyph unicode="&#x173;" horiz-adv-x="1204" d="M154 375v655h141v-618q0 -145 44 -225.5t179 -80.5q170 0 275.5 127t105.5 304v493h139v-1030q-150 -115 -149 -203q0 -41 31.5 -66.5t62.5 -29.5l33 -6l-31 -115q-8 0 -23.5 2t-54.5 14.5t-68.5 31t-54 55t-24.5 86.5q0 123 147 231h-6v162l8 82h-4 q-37 -96 -144.5 -182.5t-260.5 -86.5q-180 0 -263 98.5t-83 301.5z" />
<glyph unicode="&#x174;" horiz-adv-x="1898" d="M72 1440h149l279 -1118l32 -154h5q14 78 36 154l308 1118h135l307 -1118l35 -154h4q12 80 31 154l293 1118h147l-385 -1440h-168l-279 1014l-51 215h-6q-25 -123 -51 -215l-279 -1014h-170zM717 1540l170 244h153l172 -244h-135l-110 164h-4l-111 -164h-135z" />
<glyph unicode="&#x175;" horiz-adv-x="1689" d="M59 1030h150l248 -766l30 -110h5q16 59 32 110l252 762h139l252 -762l33 -110h4q12 57 31 110l248 766h147l-346 -1030h-154l-251 733l-31 113h-4q-16 -61 -33 -113l-250 -733h-153zM596 1198l170 244h154l172 -244h-136l-110 164h-4l-111 -164h-135z" />
<glyph unicode="&#x176;" horiz-adv-x="1185" d="M35 1440h162l305 -522l88 -173h4q45 96 88 173l305 522h162l-485 -822v-618h-142v618zM344 1540l170 244h154l172 -244h-135l-111 164h-4l-111 -164h-135z" />
<glyph unicode="&#x177;" horiz-adv-x="1077" d="M39 -369l53 111q57 -47 123 -47q123 0 197 168l61 147l-428 1020h154l301 -751l39 -109h4q14 57 35 109l296 751h150l-508 -1245q-41 -100 -117.5 -157.5t-177.5 -57.5q-47 0 -93 15.5t-67 29.5zM293 1196l170 244h153l172 -244h-135l-110 164h-4l-111 -164h-135z" />
<glyph unicode="&#x178;" horiz-adv-x="1185" d="M35 1440h162l305 -522l88 -173h4q45 96 88 173l305 522h162l-485 -822v-618h-142v618zM365 1608v176h124v-176h-124zM674 1608v176h127v-176h-127z" />
<glyph unicode="&#x179;" horiz-adv-x="1185" d="M72 0v100l745 1082q23 35 48.5 67.5t39.5 48.5l13 15v4q-35 -4 -107 -4h-698v127h981v-101l-746 -1081q-23 -35 -48.5 -67.5t-37.5 -47.5l-14 -16v-4q35 4 106 4h746v-127h-1028zM549 1540l141 244h162l-178 -244h-125z" />
<glyph unicode="&#x17a;" horiz-adv-x="1019" d="M76 0v90l575 723l82 94v4q-35 -4 -102 -4h-531v123h822v-92l-576 -721l-84 -94v-4q35 4 103 4h577v-123h-866zM438 1198l142 244h161l-178 -244h-125z" />
<glyph unicode="&#x17b;" horiz-adv-x="1185" d="M72 0v100l745 1082q23 35 48.5 67.5t39.5 48.5l13 15v4q-35 -4 -107 -4h-698v127h981v-101l-746 -1081q-23 -35 -48.5 -67.5t-37.5 -47.5l-14 -16v-4q35 4 106 4h746v-127h-1028zM549 1610v174h133v-174h-133z" />
<glyph unicode="&#x17c;" horiz-adv-x="1019" d="M76 0v90l575 723l82 94v4q-35 -4 -102 -4h-531v123h822v-92l-576 -721l-84 -94v-4q35 4 103 4h577v-123h-866zM442 1268v174h133v-174h-133z" />
<glyph unicode="&#x17d;" horiz-adv-x="1185" d="M72 0v100l745 1082q23 35 48.5 67.5t39.5 48.5l13 15v4q-35 -4 -107 -4h-698v127h981v-101l-746 -1081q-23 -35 -48.5 -67.5t-37.5 -47.5l-14 -16v-4q35 4 106 4h746v-127h-1028zM367 1784h135l110 -164h4l111 164h135l-172 -244h-153z" />
<glyph unicode="&#x17e;" horiz-adv-x="1019" d="M76 0v90l575 723l82 94v4q-35 -4 -102 -4h-531v123h822v-92l-576 -721l-84 -94v-4q35 4 103 4h577v-123h-866zM260 1442h135l111 -164h4l111 164h135l-172 -244h-154z" />
<glyph unicode="&#x17f;" horiz-adv-x="552" d="M76 905v117h129v47q0 119 38 201t99 117.5t113.5 49t105.5 13.5l64 -6v-123q-18 4 -50 4q-37 0 -70.5 -9t-72.5 -32.5t-62.5 -80t-23.5 -136.5v-1067h-141v905h-129z" />
<glyph unicode="&#x192;" horiz-adv-x="1163" d="M70 -82q68 -10 131 -10q37 0 71.5 9t75.5 33.5t68.5 81t36.5 138.5l49 578h-183v116h193l20 219q10 119 55.5 201t110 118t117.5 49t109 13q37 0 78.5 -3t66.5 -7l23 -4v-123q-92 14 -166 14q-37 0 -71 -9t-75 -34.5t-69.5 -82t-36.5 -138.5l-21 -213h256v-116h-266 l-51 -584q-8 -96 -41 -169t-75 -112t-95 -63.5t-94 -30.5t-82 -6l-135 12v123z" />
<glyph unicode="&#x218;" horiz-adv-x="1093" d="M96 160l84 108q72 -70 171.5 -113.5t201.5 -43.5q129 0 210 67.5t81 177.5q0 74 -40 130.5t-102.5 94t-139.5 71.5t-153.5 71t-139 81t-102.5 114.5t-40 160.5q0 174 129 279.5t324 105.5q231 0 381 -139l-70 -119q-59 55 -145.5 89t-172.5 34q-127 0 -214 -65.5 t-87 -176.5q0 -70 40 -124t102.5 -88.5t139.5 -67.5t153.5 -70t139 -82t102.5 -117.5t40 -166.5q0 -172 -118.5 -284t-321.5 -112q-269 1 -453 185zM459 -414q39 98 39 166q0 58 -23 119h133q12 -55 13 -100q0 -80 -48 -185h-114z" />
<glyph unicode="&#x219;" horiz-adv-x="897" d="M76 125l74 98q121 -125 311 -125q90 0 148.5 44t58.5 122q0 63 -56.5 107.5t-137.5 74t-162 64.5t-137 99.5t-56 158.5q0 135 100 211t250 76q199 0 317 -113l-65 -104q-43 43 -114.5 68.5t-143.5 25.5q-88 0 -147.5 -40t-59.5 -120q0 -63 56.5 -108.5t138 -75 t162.5 -64.5t137.5 -99.5t56.5 -158.5q0 -127 -98.5 -209t-249.5 -82q-240 0 -383 150zM367 -414q39 98 39 166q0 58 -23 119h133q12 -55 12 -100q0 -80 -47 -185h-114z" />
<glyph unicode="&#x21a;" horiz-adv-x="1243" d="M35 1313v127h1175v-127h-518v-1313h-141v1313h-516zM535 -414q39 98 38 166q1 58 -22 119h133q12 -55 12 -100q0 -80 -47 -185h-114z" />
<glyph unicode="&#x21b;" horiz-adv-x="665" d="M68 905v117h137v293h137v-293h260v-117h-260v-516q0 -84 24.5 -142.5t63.5 -84t74 -35.5t71 -10q29 0 48 4v-125q-25 -4 -60 -4q-43 0 -84 6t-93 29.5t-91 62.5t-65.5 113t-26.5 172v530h-135zM330 -414q39 98 39 166q0 58 -23 119h133q12 -55 13 -100q0 -80 -48 -185 h-114z" />
<glyph unicode="&#x2c6;" horiz-adv-x="1032" d="M268 1540l170 244h154l172 -244h-135l-111 164h-4l-111 -164h-135z" />
<glyph unicode="&#x2c7;" horiz-adv-x="1032" d="M268 1784h135l111 -164h4l111 164h135l-172 -244h-154z" />
<glyph unicode="&#x2d8;" horiz-adv-x="1034" d="M281 1753v31h112v-29q0 -63 35 -94t90 -31q51 0 87 32t36 95v27h113v-31q0 -104 -70 -161.5t-166 -57.5q-98 0 -167.5 57.5t-69.5 161.5z" />
<glyph unicode="&#x2d9;" horiz-adv-x="1034" d="M451 1610v174h133v-174h-133z" />
<glyph unicode="&#x2da;" horiz-adv-x="1034" d="M362 1662.5q0 63.5 45.5 104.5t110.5 41q63 0 108.5 -41t45.5 -104.5t-45.5 -103t-108.5 -39.5q-66 0 -111 39.5t-45 103zM451 1663q0 -29 18 -48.5t49 -19.5q29 0 47.5 19.5t18.5 48.5q0 31 -18.5 50.5t-47.5 19.5q-31 0 -49 -19.5t-18 -50.5z" />
<glyph unicode="&#x2db;" horiz-adv-x="1032" d="M367 -231q0 45 20.5 91t50 77.5t59 57t50.5 38.5l20 12l101 -27q-18 -12 -47 -34.5t-77 -81t-48 -105.5q0 -41 31.5 -66.5t62.5 -29.5l33 -6l-31 -115q-8 0 -23.5 2t-54.5 14.5t-68.5 31t-54 55.5t-24.5 86z" />
<glyph unicode="&#x2dc;" horiz-adv-x="1032" d="M197 1546q0 238 188 238q59 0 103 -36t81 -73t74 -37q45 0 63.5 44t18.5 96h111q0 -238 -189 -238q-59 0 -103 37t-81 73t-74 36q-80 0 -80 -140h-112z" />
<glyph unicode="&#x2dd;" horiz-adv-x="1032" d="M229 1540l133 244h140l-140 -244h-133zM504 1540l143 244h158l-178 -244h-123z" />
<glyph unicode="&#x400;" horiz-adv-x="1146" d="M207 0v1440h809v-127h-668v-525h547v-126h-547v-535h707v-127h-848zM426 1784h162l141 -244h-127z" />
<glyph unicode="&#x401;" horiz-adv-x="1146" d="M207 0v1440h809v-127h-668v-525h547v-126h-547v-535h707v-127h-848zM408 1608v176h124v-176h-124zM717 1608v176h127v-176h-127z" />
<glyph unicode="&#x402;" horiz-adv-x="1488" d="M33 1313v127h1040v-127h-489v-471l-2 -62h4q188 90 375 90q215 0 332.5 -119.5t117.5 -312.5q0 -227 -129 -345t-321 -118q-35 0 -97 5v122q37 -4 82 -4q133 0 228.5 79t95.5 255q0 141 -82 224t-246 83q-90 0 -179 -23.5t-134 -47.5l-45 -23v-645h-142v1313h-409z" />
<glyph unicode="&#x403;" horiz-adv-x="993" d="M207 0v1440h756v-127h-615v-1313h-141zM494 1540l141 244h162l-179 -244h-124z" />
<glyph unicode="&#x404;" horiz-adv-x="1468" d="M113 729q0 313 204.5 524t518.5 211q96 0 185 -19.5t147.5 -46t102.5 -54t64 -46.5l21 -20l-76 -104q-6 6 -19.5 17t-57.5 38.5t-92 48t-122 38t-149 17.5q-238 0 -398.5 -156.5t-177.5 -394.5h811v-123h-811q20 -240 181 -396.5t401 -156.5q82 0 159.5 19.5t131 47.5 t95.5 56.5t62 49.5l21 18l78 -100l-23.5 -23.5t-68 -53.5t-112 -67.5t-153.5 -53.5t-194 -24q-315 0 -522 217.5t-207 536.5z" />
<glyph unicode="&#x405;" horiz-adv-x="1093" d="M96 160l84 108q72 -70 171.5 -113.5t201.5 -43.5q129 0 210 67.5t81 177.5q0 74 -40 130.5t-102.5 94t-139.5 71.5t-153.5 71t-139 81t-102.5 114.5t-40 160.5q0 174 129 279.5t324 105.5q231 0 381 -139l-70 -119q-59 55 -145.5 89t-172.5 34q-127 0 -214 -65.5 t-87 -176.5q0 -70 40 -124t102.5 -88.5t139.5 -67.5t153.5 -70t139 -82t102.5 -117.5t40 -166.5q0 -172 -118.5 -284t-321.5 -112q-269 1 -453 185z" />
<glyph unicode="&#x406;" horiz-adv-x="555" d="M207 0v1440h141v-1440h-141z" />
<glyph unicode="&#x407;" horiz-adv-x="555" d="M63 1608v176h125v-176h-125zM207 0v1440h141v-1440h-141zM373 1608v176h127v-176h-127z" />
<glyph unicode="&#x408;" horiz-adv-x="1064" d="M66 403v58h141v-53q0 -129 65.5 -214t194.5 -85q113 0 188.5 71.5t75.5 222.5v910h-352v127h493v-1037q0 -217 -117.5 -322.5t-285.5 -105.5t-285.5 106.5t-117.5 321.5z" />
<glyph unicode="&#x409;" horiz-adv-x="1918" d="M43 -14v133q193 23 266.5 273.5t73.5 737.5v310h733v-615h291q199 0 321.5 -110.5t122.5 -302.5q0 -186 -123.5 -299t-310.5 -113h-442v1313h-451v-183q0 -176 -7 -310t-25.5 -268t-53.5 -228.5t-87 -171t-129 -117.5t-179 -49zM1116 127h283q135 0 220 74.5t85 210.5 q0 133 -85 209.5t-222 76.5h-281v-571z" />
<glyph unicode="&#x40a;" horiz-adv-x="2043" d="M207 0v1440h141v-619h744v619h141v-617h309q190 0 311 -110.5t121 -300.5q0 -186 -124 -299t-308 -113h-450v694h-744v-694h-141zM1233 127h289q135 0 220 74.5t85 210.5q0 133 -85 208.5t-222 75.5h-287v-569z" />
<glyph unicode="&#x40b;" horiz-adv-x="1480" d="M33 1313v127h1038v-127h-487v-477l-4 -68h4q188 102 395 102q395 0 395 -411v-459h-143v436q0 152 -65.5 227.5t-211.5 75.5q-109 0 -211 -34.5t-159 -75.5v-629h-142v1313h-409z" />
<glyph unicode="&#x40c;" horiz-adv-x="1212" d="M207 0v1440h141v-625h242l389 625h162l-432 -680v-4l460 -756h-165l-414 688h-242v-688h-141zM559 1540l141 244h162l-178 -244h-125z" />
<glyph unicode="&#x40d;" horiz-adv-x="1538" d="M207 0v1440h141v-1037l-12 -194h4q76 127 125 199l729 1032h137v-1440h-141v1036l12 195h-4q-72 -123 -121 -195l-733 -1036h-137zM545 1784h162l141 -244h-127z" />
<glyph unicode="&#x40e;" horiz-adv-x="1202" d="M14 1440h158l395 -803l82 -188h4q33 100 64 186l299 805h151l-471 -1213q-98 -252 -288 -252q-113 0 -238 88l68 109q98 -70 168 -70q66 0 103.5 47.5t76.5 147.5zM328 1749v35h121v-31q0 -66 44 -103.5t105 -37.5t106.5 38t45.5 105v29h118v-35q0 -111 -79.5 -176.5 t-190.5 -65.5t-190.5 65.5t-79.5 176.5z" />
<glyph unicode="&#x40f;" horiz-adv-x="1480" d="M207 0v1440h141v-1313h785v1313h143v-1440h-469v-287h-133v287h-467z" />
<glyph unicode="&#x410;" horiz-adv-x="1294" d="M43 0l528 1440h152l528 -1440h-149l-166 459h-580l-163 -459h-150zM399 582h494l-188 522l-56 188h-4q-31 -121 -55 -188z" />
<glyph unicode="&#x411;" horiz-adv-x="1216" d="M207 0v1440h815v-127h-674v-471h344q188 0 307 -110.5t119 -313.5q0 -188 -115.5 -303t-297.5 -115h-498zM348 127h336q135 0 212 78t77 213q0 137 -80 217t-211 80h-334v-588z" />
<glyph unicode="&#x412;" horiz-adv-x="1261" d="M207 0v1440h491q172 0 280.5 -98.5t108.5 -264.5q0 -221 -182 -313v-4q111 -31 176.5 -129.5t65.5 -227.5q0 -186 -123 -294.5t-309 -108.5h-508zM348 127h369q131 0 206.5 76t75.5 205t-78.5 206.5t-205.5 77.5h-367v-565zM348 815h350q109 0 176.5 69.5t67.5 182.5 q0 111 -66.5 178.5t-181.5 67.5h-346v-498z" />
<glyph unicode="&#x413;" horiz-adv-x="993" d="M207 0v1440h756v-127h-615v-1313h-141z" />
<glyph unicode="&#x414;" horiz-adv-x="1433" d="M10 127h146q145 195 192 453t47 579v281h791v-1313h162v-414h-134v287h-1069v-287h-135v414zM307 127h737v1186h-512v-158q0 -704 -225 -1028z" />
<glyph unicode="&#x415;" horiz-adv-x="1146" d="M207 0v1440h809v-127h-668v-525h547v-126h-547v-535h707v-127h-848z" />
<glyph unicode="&#x416;" horiz-adv-x="1748" d="M45 0l430 756v4l-401 680h159l363 -625h207v625h141v-625h209l363 625h157l-401 -680v-4l432 -756h-162l-389 688h-209v-688h-141v688h-207l-389 -688h-162z" />
<glyph unicode="&#x417;" horiz-adv-x="1101" d="M66 162l84 102q61 -70 155 -114t195 -44q150 0 246 82t96 220q0 129 -87 202.5t-218 73.5h-183v123h146q123 0 209 74.5t86 191.5q0 113 -72 187.5t-217 74.5q-184 0 -332 -123l-65 111q172 141 411 141q195 0 307.5 -102t112.5 -275q0 -225 -215 -325v-4 q121 -33 192.5 -126t71.5 -229q0 -193 -137 -310.5t-346 -117.5q-125 0 -244.5 49.5t-195.5 137.5z" />
<glyph unicode="&#x418;" horiz-adv-x="1538" d="M207 0v1440h141v-1037l-12 -194h4q76 127 125 199l729 1032h137v-1440h-141v1036l12 195h-4q-72 -123 -121 -195l-733 -1036h-137z" />
<glyph unicode="&#x419;" horiz-adv-x="1538" d="M207 0v1440h141v-1037l-12 -194h4q76 127 125 199l729 1032h137v-1440h-141v1036l12 195h-4q-72 -123 -121 -195l-733 -1036h-137zM504 1749v35h121v-31q0 -66 44 -103.5t105.5 -37.5t106.5 38t45 105v29h118v-35q0 -111 -79.5 -176.5t-190 -65.5t-190.5 65.5t-80 176.5z " />
<glyph unicode="&#x41a;" horiz-adv-x="1212" d="M207 0v1440h141v-625h242l389 625h162l-432 -680v-4l460 -756h-165l-414 688h-242v-688h-141z" />
<glyph unicode="&#x41b;" horiz-adv-x="1359" d="M23 -16v133q193 27 267.5 282.5t74.5 749.5v291h790v-1440h-143v1313h-510v-166q0 -274 -20.5 -468t-72 -354.5t-147.5 -245.5t-239 -95z" />
<glyph unicode="&#x41c;" horiz-adv-x="1724" d="M152 0l114 1440h146l379 -846l69 -176h4q37 102 70 176l379 846h145l115 -1440h-141l-80 1008l-4 200h-5q-43 -127 -75 -200l-340 -740h-131l-338 740l-78 204h-4q2 -127 -4 -204l-80 -1008h-141z" />
<glyph unicode="&#x41d;" horiz-adv-x="1529" d="M207 0v1440h141v-656h834v656h143v-1440h-143v657h-834v-657h-141z" />
<glyph unicode="&#x41e;" horiz-adv-x="1689" d="M111 731q0 307 213 520t520 213t520 -212t213 -521q0 -317 -213 -536.5t-520 -219.5t-520 219.5t-213 536.5zM258 731q0 -262 171 -442t415 -180q246 0 416 180t170 442q0 254 -170 427t-416 173q-244 0 -415 -173t-171 -427z" />
<glyph unicode="&#x41f;" horiz-adv-x="1511" d="M207 0v1440h1098v-1440h-142v1313h-815v-1313h-141z" />
<glyph unicode="&#x420;" horiz-adv-x="1220" d="M207 0v1440h498q195 0 319.5 -119t124.5 -315q0 -199 -125 -320t-319 -121h-357v-565h-141zM348 692h338q145 0 231.5 84t86.5 230q0 143 -85 225t-231 82h-340v-621z" />
<glyph unicode="&#x421;" horiz-adv-x="1470" d="M113 729q0 315 203.5 525t519.5 210q326 0 520 -186l-76 -104q-84 74 -203 115.5t-237 41.5q-258 0 -419 -171t-161 -429q0 -262 162 -442t424 -180q270 0 465 190l82 -100q-227 -223 -551 -223.5t-526.5 215.5t-202.5 538z" />
<glyph unicode="&#x422;" horiz-adv-x="1245" d="M35 1313v127h1175v-127h-518v-1313h-141v1313h-516z" />
<glyph unicode="&#x423;" horiz-adv-x="1202" d="M14 1440h158l395 -803l82 -188h4q33 100 64 186l299 805h151l-471 -1213q-98 -252 -288 -252q-113 0 -238 88l68 109q98 -70 168 -70q66 0 103.5 47.5t76.5 147.5z" />
<glyph unicode="&#x424;" horiz-adv-x="1679" d="M90 764q0 274 186.5 437t491.5 163v172h143v-172q303 0 490.5 -163t187.5 -437q0 -276 -186 -439t-492 -163v-187h-143v187q-305 0 -491.5 163t-186.5 439zM238 764q0 -227 143 -354t387 -127v958q-244 0 -387 -126t-143 -351zM911 283q246 0 389.5 127t143.5 354 q0 225 -143.5 351t-389.5 126v-958z" />
<glyph unicode="&#x425;" horiz-adv-x="1179" d="M39 0l459 752l-420 688h166l252 -426l92 -162h4q45 88 90 162l254 426h166l-422 -688l461 -752h-162l-301 498l-90 157h-4q-43 -84 -88 -159l-295 -496h-162z" />
<glyph unicode="&#x426;" horiz-adv-x="1523" d="M207 0v1440h141v-1313h785v1313h143v-1313h162v-414h-131v287h-1100z" />
<glyph unicode="&#x427;" horiz-adv-x="1265" d="M115 975v465h143v-436q0 -154 72.5 -230t232.5 -76q186 0 355 111v631h143v-1440h-143v606l4 68h-4q-193 -107 -375 -107q-428 0 -428 408z" />
<glyph unicode="&#x428;" horiz-adv-x="2033" d="M207 0v1440h141v-1313h598v1313h141v-1313h599v1313h143v-1440h-1622z" />
<glyph unicode="&#x429;" horiz-adv-x="2086" d="M207 0v1440h141v-1313h598v1313h141v-1313h599v1313h143v-1313h176v-414h-133v287h-1665z" />
<glyph unicode="&#x42a;" horiz-adv-x="1370" d="M20 1313v127h521v-582h327q188 0 308 -112.5t120 -319.5q0 -193 -116.5 -309.5t-298.5 -116.5h-482v1313h-379zM541 127h319q135 0 212 79t77 220t-80 223t-211 82h-317v-604z" />
<glyph unicode="&#x42b;" horiz-adv-x="1665" d="M207 0v1440h141v-582h324q188 0 307 -112.5t119 -319.5q0 -193 -116 -309.5t-298 -116.5h-477zM348 127h316q135 0 211.5 79t76.5 220t-79.5 223t-210.5 82h-314v-604zM1317 0v1440h141v-1440h-141z" />
<glyph unicode="&#x42c;" horiz-adv-x="1177" d="M207 0v1440h141v-582h328q188 0 308 -112.5t120 -319.5q0 -193 -117 -309.5t-299 -116.5h-481zM348 127h320q135 0 211.5 79t76.5 220t-79.5 223t-210.5 82h-318v-604z" />
<glyph unicode="&#x42d;" horiz-adv-x="1468" d="M78 195l78 100q78 -84 207 -136.5t264 -52.5q236 0 396.5 158t180.5 395h-811v123h813q-16 240 -178 395.5t-399 155.5q-250 0 -443 -164l-75 107q94 90 233 139t287 49q315 0 520 -211t205 -524q0 -317 -208 -535.5t-521 -218.5q-156 0 -301.5 58t-247.5 162z" />
<glyph unicode="&#x42e;" horiz-adv-x="2150" d="M207 0v1440h141v-656h264q18 289 222 484.5t489 195.5q299 0 507 -213t208 -520q0 -317 -208 -536.5t-507 -219.5q-279 0 -481.5 195t-225.5 487h-268v-657h-141zM758 731q0 -262 164.5 -442t400.5 -180t401.5 180t165.5 442q0 252 -165.5 425t-401.5 173t-400.5 -173 t-164.5 -425z" />
<glyph unicode="&#x42f;" horiz-adv-x="1251" d="M57 0l342 565l39 60v4q-143 43 -217 148.5t-74 258.5q0 129 58.5 222.5t154.5 140.5q92 41 265 41h422v-1440h-144v606h-319l-363 -606h-164zM295 1034q0 -137 77 -220t206 -83h325v582h-270q-137 0 -195 -31q-68 -33 -105.5 -98.5t-37.5 -149.5z" />
<glyph unicode="&#x430;" horiz-adv-x="1058" d="M76 276q0 358 626 359h62v29q0 266 -254 266q-158 0 -293 -99l-63 107q61 53 161.5 85t202.5 32q186 0 285.5 -101.5t99.5 -294.5v-659h-133v121l6 86h-4q-43 -98 -136 -165t-212 -67q-141 0 -244.5 80t-103.5 221zM217 289q0 -78 61.5 -137.5t170.5 -59.5q141 0 228 119 t87 266v47h-59q-66 0 -114 -2t-125 -15t-126 -35.5t-86 -69.5t-37 -113z" />
<glyph unicode="&#x431;" horiz-adv-x="1179" d="M121 584q0 279 90 448.5t334 280.5l381 178l51 -117l-397 -182q-170 -80 -245 -192.5t-85 -282.5h4q121 217 385 217q193 0 314.5 -128t121.5 -347q0 -213 -131 -348.5t-338 -135.5q-244 0 -364.5 166.5t-120.5 442.5zM272 461q0 -166 94.5 -264.5t235.5 -98.5 t235.5 97.5t94.5 261.5q0 166 -93.5 263t-228.5 97q-150 0 -244 -102t-94 -254z" />
<glyph unicode="&#x432;" horiz-adv-x="1030" d="M166 0v1030h373q160 0 250 -68.5t90 -193.5q0 -170 -156 -227v-4q98 -20 153.5 -88t55.5 -160q0 -133 -99.5 -211t-273.5 -78h-393zM305 109h236q125 0 186 48t61 134q0 90 -64.5 138t-184.5 48h-234v-368zM305 584h219q102 0 156.5 46t54.5 130q0 164 -219 164h-211 v-340z" />
<glyph unicode="&#x433;" horiz-adv-x="827" d="M166 0v1030h614v-121h-475v-909h-139z" />
<glyph unicode="&#x434;" horiz-adv-x="1171" d="M23 119h127q180 236 180 743v168h637v-911h145v-365h-133v246h-823v-246h-133v365zM299 119h528v792h-360v-61q0 -477 -168 -731z" />
<glyph unicode="&#x435;" horiz-adv-x="1132" d="M96 514q0 246 146.5 393.5t363.5 147.5q205 0 317.5 -136.5t112.5 -338.5q0 -25 -4 -70h-790q4 -190 118.5 -299t280.5 -109q178 0 313 123l64 -106q-72 -66 -175.5 -105t-205.5 -39q-231 0 -386 151.5t-155 387.5zM248 621h647q-6 154 -88 236.5t-205 82.5 q-133 0 -231 -83.5t-123 -235.5z" />
<glyph unicode="&#x436;" horiz-adv-x="1476" d="M41 0l348 526v4l-315 500h151l279 -442h166v442h135v-442h166l278 442h154l-316 -500v-4l349 -526h-164l-301 465h-166v-465h-135v465h-164l-303 -465h-162z" />
<glyph unicode="&#x437;" horiz-adv-x="899" d="M61 125l74 96q121 -127 277 -127q102 0 174.5 52.5t72.5 148.5q0 182 -249 182h-125v111h108q109 0 169.5 44t60.5 130t-57.5 130t-155.5 44q-135 0 -252 -92l-62 98q135 113 334 113q150 0 243 -72t93 -205q0 -174 -158 -235v-4q88 -23 141.5 -86.5t53.5 -161.5 q0 -150 -111.5 -233t-271.5 -83q-205 0 -359 150z" />
<glyph unicode="&#x438;" horiz-adv-x="1210" d="M166 0v1030h135v-676q0 -141 -6 -153h4q8 14 107 153l505 676h133v-1030h-137v678q0 27 1 61.5t3 60t2 27.5h-4q0 -4 -17.5 -28.5t-45 -61.5t-41.5 -59l-506 -678h-133z" />
<glyph unicode="&#x439;" horiz-adv-x="1210" d="M166 0v1030h135v-676q0 -141 -6 -153h4q8 14 107 153l505 676h133v-1030h-137v678q0 27 1 61.5t3 60t2 27.5h-4q0 -4 -17.5 -28.5t-45 -61.5t-41.5 -59l-506 -678h-133zM334 1407v35h121v-31q0 -66 44 -103.5t105.5 -37.5t106.5 38t45 105v29h118v-35 q0 -111 -79.5 -176.5t-190 -65.5t-190.5 65.5t-80 176.5z" />
<glyph unicode="&#x43a;" horiz-adv-x="1013" d="M166 0v1030h139v-436h164l309 436h164l-358 -489v-4l399 -537h-170l-342 471h-166v-471h-139z" />
<glyph unicode="&#x43b;" horiz-adv-x="1085" d="M41 -8v125q127 20 186.5 166.5t59.5 435.5v311h631v-1030h-140v909h-356v-190q0 -365 -91 -538t-290 -189z" />
<glyph unicode="&#x43c;" horiz-adv-x="1468" d="M127 0l84 1030h147l310 -635l63 -145h4q33 80 64 145l311 635h145l86 -1030h-137l-51 666v178h-4q-23 -66 -66 -150l-286 -575h-127l-285 571l-68 154h-4q4 -123 0 -178l-51 -666h-135z" />
<glyph unicode="&#x43d;" horiz-adv-x="1212" d="M166 0v1030h139v-440h602v440h140v-1030h-140v467h-602v-467h-139z" />
<glyph unicode="&#x43e;" horiz-adv-x="1277" d="M96 520q0 227 158 381t385 154t386 -153.5t159 -381.5q0 -231 -159 -388t-386 -157t-385 157t-158 388zM240 520q0 -180 115.5 -299t283.5 -119t284.5 119t116.5 299q0 174 -116.5 292t-284.5 118t-283.5 -118t-115.5 -292z" />
<glyph unicode="&#x43f;" horiz-adv-x="1193" d="M166 0v1030h862v-1030h-139v907h-584v-907h-139z" />
<glyph unicode="&#x440;" horiz-adv-x="1206" d="M166 -410v1440h133v-108l-6 -80h4q47 100 142.5 156.5t215.5 56.5q207 0 328 -148.5t121 -390.5q0 -244 -129 -392.5t-332 -148.5q-109 0 -199 54.5t-141 150.5h-4q6 -37 6 -90v-500h-139zM301 512q0 -166 89 -289t239 -123q141 0 237.5 112t96.5 302q0 186 -91.5 300 t-236.5 114q-141 0 -237.5 -104.5t-96.5 -311.5z" />
<glyph unicode="&#x441;" horiz-adv-x="1110" d="M96 514q0 236 156 388.5t385 152.5q106 0 208.5 -38t168.5 -110l-72 -104q-55 57 -136 92t-165 35q-172 0 -286.5 -117t-114.5 -299q0 -180 115.5 -296t289.5 -116q90 0 180 38t150 104l63 -105q-68 -76 -175 -120t-226 -44q-231 0 -386 150.5t-155 388.5z" />
<glyph unicode="&#x442;" horiz-adv-x="985" d="M47 907v123h891v-123h-377v-907h-139v907h-375z" />
<glyph unicode="&#x443;" horiz-adv-x="1077" d="M39 -369l53 111q57 -47 123 -47q123 0 197 168l61 147l-428 1020h154l301 -751l39 -109h4q14 57 35 109l296 751h150l-508 -1245q-41 -100 -117.5 -157.5t-177.5 -57.5q-47 0 -93 15.5t-67 29.5z" />
<glyph unicode="&#x444;" horiz-adv-x="1441" d="M98 520q0 231 155 376.5t400 156.5v381h135v-381q246 -10 400.5 -155.5t154.5 -377.5q0 -236 -154.5 -384t-400.5 -159v-387h-135v387q-246 10 -400.5 158.5t-154.5 384.5zM240 520q0 -184 113.5 -297.5t299.5 -124.5v832q-186 -10 -299.5 -119t-113.5 -291zM788 98 q186 10 300 124t114 298q0 182 -113.5 291t-300.5 119v-832z" />
<glyph unicode="&#x445;" horiz-adv-x="980" d="M41 0l360 537l-331 493h163l222 -346l34 -59h5q18 33 34 59l222 346h161l-331 -493l362 -537h-164l-250 387l-34 57h-5q-16 -29 -34 -57l-252 -387h-162z" />
<glyph unicode="&#x446;" horiz-adv-x="1220" d="M166 0v1030h139v-907h569v907h142v-907h143v-369h-131v246h-862z" />
<glyph unicode="&#x447;" horiz-adv-x="1028" d="M96 702v328h137v-313q0 -98 48.5 -156.5t185.5 -58.5q147 0 256 84v444h139v-1030h-139v391l4 66h-4q-129 -80 -281 -80q-174 0 -260 85t-86 240z" />
<glyph unicode="&#x448;" horiz-adv-x="1619" d="M166 0v1030h135v-907h442v907h136v-907h440v907h135v-1030h-1288z" />
<glyph unicode="&#x449;" horiz-adv-x="1660" d="M166 0v1030h135v-907h442v907h136v-907h440v907h135v-907h145v-369h-131v246h-1302z" />
<glyph unicode="&#x44a;" horiz-adv-x="1099" d="M25 909v121h424v-393h223q156 0 257 -76t101 -246q0 -145 -91 -230t-271 -85h-359v909h-284zM449 111h204q236 0 236 206q0 98 -57.5 153.5t-174.5 55.5h-208v-415z" />
<glyph unicode="&#x44b;" horiz-adv-x="1366" d="M166 0v1030h139v-393h221q156 0 258.5 -76t102.5 -246q0 -145 -92.5 -230t-272.5 -85h-356zM305 111h205q233 0 233 206q0 98 -57 153.5t-174 55.5h-207v-415zM1061 0v1030h139v-1030h-139z" />
<glyph unicode="&#x44c;" horiz-adv-x="958" d="M166 0v1030h139v-393h223q156 0 258.5 -76t102.5 -246q0 -145 -92 -230t-273 -85h-358zM305 111h207q233 0 233 206q0 98 -57 153.5t-174 55.5h-209v-415z" />
<glyph unicode="&#x44d;" horiz-adv-x="1107" d="M72 133l61 105q129 -141 336 -142q158 0 271.5 100.5t129.5 262.5h-530v110h530q-16 164 -128.5 264.5t-268.5 100.5q-178 0 -309 -127l-72 102q63 70 168 108t215 38q227 0 382 -152.5t155 -388.5q0 -238 -153.5 -388.5t-387.5 -150.5q-243 0 -399 158z" />
<glyph unicode="&#x44e;" horiz-adv-x="1648" d="M166 0v1030h139v-455h205q20 207 167.5 343.5t350.5 136.5q219 0 372.5 -153.5t153.5 -381.5q0 -231 -152.5 -388t-371.5 -157q-203 0 -349 136.5t-169 343.5h-207v-455h-139zM649 520q0 -180 110.5 -299t270.5 -119q158 0 268.5 119t110.5 299q0 174 -110.5 292 t-268.5 118q-160 0 -270.5 -118t-110.5 -292z" />
<glyph unicode="&#x44f;" horiz-adv-x="1013" d="M61 0l248 354l47 62v4q-98 20 -167.5 99t-69.5 198q0 152 99 232.5t265 80.5h363v-1030h-139v395h-213l-271 -395h-162zM262 717q0 -100 67 -156.5t171 -56.5h207v420h-197q-248 0 -248 -207z" />
<glyph unicode="&#x450;" horiz-adv-x="1132" d="M96 514q0 246 146.5 393.5t363.5 147.5q205 0 317.5 -136.5t112.5 -338.5q0 -25 -4 -70h-790q4 -190 118.5 -299t280.5 -109q178 0 313 123l64 -106q-72 -66 -175.5 -105t-205.5 -39q-231 0 -386 151.5t-155 387.5zM248 621h647q-6 154 -88 236.5t-205 82.5 q-133 0 -231 -83.5t-123 -235.5zM391 1442h162l141 -244h-127z" />
<glyph unicode="&#x451;" horiz-adv-x="1132" d="M96 514q0 246 146.5 393.5t363.5 147.5q205 0 317.5 -136.5t112.5 -338.5q0 -25 -4 -70h-790q4 -190 118.5 -299t280.5 -109q178 0 313 123l64 -106q-72 -66 -175.5 -105t-205.5 -39q-231 0 -386 151.5t-155 387.5zM248 621h647q-6 154 -88 236.5t-205 82.5 q-133 0 -231 -83.5t-123 -235.5zM375 1266v176h125v-176h-125zM684 1266v176h127v-176h-127z" />
<glyph unicode="&#x452;" horiz-adv-x="1216" d="M35 1157v111h131v172h139v-172h457v-111h-457v-383l-4 -86h4q39 94 145.5 176t264.5 82q184 0 265 -101.5t81 -297.5v-580q0 -123 -37 -208t-98.5 -122.5t-112.5 -52t-106 -14.5l-66 4v123q23 -4 51 -4q37 0 71 9t72.5 35.5t62.5 85t24 144.5v543q0 145 -45.5 225 t-180.5 80q-131 0 -234.5 -82t-137.5 -211q-18 -55 -19 -137v-385h-139v1157h-131z" />
<glyph unicode="&#x453;" horiz-adv-x="827" d="M166 0v1030h614v-121h-475v-909h-139zM371 1198l141 244h162l-178 -244h-125z" />
<glyph unicode="&#x454;" horiz-adv-x="1110" d="M96 514q0 236 156 388.5t385 152.5q72 0 136.5 -15.5t107.5 -36t74.5 -42t45.5 -35.5l15 -17l-72 -102q-12 14 -36.5 34.5t-103.5 55.5t-163 35q-160 0 -271.5 -96.5t-131.5 -255.5h530v-111h-530q12 -166 126.5 -269.5t278.5 -103.5q59 0 116.5 15.5t94.5 36t66.5 42 t42.5 35.5l14 17l61 -107q-6 -6 -16 -17.5t-49 -39t-82 -48t-111.5 -38t-142.5 -17.5q-231 0 -386 150.5t-155 388.5z" />
<glyph unicode="&#x455;" horiz-adv-x="897" d="M76 125l74 98q121 -125 311 -125q90 0 148.5 44t58.5 122q0 63 -56.5 107.5t-137.5 74t-162 64.5t-137 99.5t-56 158.5q0 135 100 211t250 76q199 0 317 -113l-65 -104q-43 43 -114.5 68.5t-143.5 25.5q-88 0 -147.5 -40t-59.5 -120q0 -63 56.5 -108.5t138 -75 t162.5 -64.5t137.5 -99.5t56.5 -158.5q0 -127 -98.5 -209t-249.5 -82q-240 0 -383 150z" />
<glyph unicode="&#x456;" horiz-adv-x="471" d="M160 1266v174h151v-174h-151zM166 0v1030h139v-1030h-139z" />
<glyph unicode="&#x457;" horiz-adv-x="471" d="M20 1266v176h125v-176h-125zM166 0v1030h139v-1030h-139zM330 1266v176h127v-176h-127z" />
<glyph unicode="&#x458;" horiz-adv-x="471" d="M-113 -293q16 -4 45 -4q37 0 71 9t74 34t64.5 82t24.5 139v1063h139v-1067q0 -121 -38 -204t-99.5 -118.5t-113.5 -49t-107 -13.5q-29 0 -60 6v123zM160 1266v174h151v-174h-151z" />
<glyph unicode="&#x459;" horiz-adv-x="1490" d="M59 -8v125q129 20 188.5 165.5t59.5 432.5v315h533v-399h221q156 0 258 -76t102 -244q0 -143 -92 -227t-270 -84h-359v909h-258v-192q0 -369 -91 -539t-292 -186zM840 111h209q233 0 233 200q0 98 -57.5 153.5t-173.5 55.5h-211v-409z" />
<glyph unicode="&#x45a;" horiz-adv-x="1632" d="M166 0v1030h139v-409h539v409h139v-409h211q156 0 263.5 -74t107.5 -232q0 -143 -92.5 -229t-272.5 -86h-356v502h-539v-502h-139zM983 111h209q233 0 233 204q0 195 -241 195h-201v-399z" />
<glyph unicode="&#x45b;" horiz-adv-x="1216" d="M35 1157v111h131v172h139v-172h457v-111h-457v-383l-4 -86h4q39 94 145.5 176t264.5 82q186 0 266 -100.5t80 -298.5v-547h-139v510q0 145 -45.5 225t-180.5 80q-131 0 -234.5 -82t-137.5 -211q-18 -53 -19 -137v-385h-139v1157h-131z" />
<glyph unicode="&#x45c;" horiz-adv-x="1013" d="M166 0v1030h139v-436h164l309 436h164l-358 -489v-4l399 -537h-170l-342 471h-166v-471h-139zM440 1198l142 244h161l-178 -244h-125z" />
<glyph unicode="&#x45d;" horiz-adv-x="1210" d="M166 0v1030h135v-676q0 -141 -6 -153h4q8 14 107 153l505 676h133v-1030h-137v678q0 27 1 61.5t3 60t2 27.5h-4q0 -4 -17.5 -28.5t-45 -61.5t-41.5 -59l-506 -678h-133zM414 1442h161l142 -244h-127z" />
<glyph unicode="&#x45e;" horiz-adv-x="1077" d="M39 -369l53 111q57 -47 123 -47q123 0 197 168l61 147l-428 1020h154l301 -751l39 -109h4q14 57 35 109l296 751h150l-508 -1245q-41 -100 -117.5 -157.5t-177.5 -57.5q-47 0 -93 15.5t-67 29.5zM268 1407v35h121v-31q0 -66 44 -103.5t105.5 -37.5t106.5 38t45 105v29 h119v-35q0 -111 -80 -176.5t-190.5 -65.5t-190.5 65.5t-80 176.5z" />
<glyph unicode="&#x45f;" horiz-adv-x="1150" d="M166 0v1030h139v-907h539v907h139v-1030h-342v-246h-131v246h-344z" />
<glyph unicode="&#x462;" horiz-adv-x="1388" d="M29 1106v119h379v229h139v-229h418v-119h-418v-264h334q190 0 313 -112t123 -302q0 -195 -124 -311.5t-310 -116.5h-477v1106h-377zM547 127h315q137 0 222 80t85 221q0 133 -86 210t-221 77h-315v-588z" />
<glyph unicode="&#x463;" horiz-adv-x="1046" d="M0 944v111h248v385h141v-385h344v-111h-344v-307h225q156 0 258.5 -76t102.5 -246q0 -145 -92 -230t-273 -85h-360v944h-250zM389 111h209q233 0 233 206q0 98 -57 153.5t-174 55.5h-211v-415z" />
<glyph unicode="&#x472;" horiz-adv-x="1689" d="M111 731q0 309 210.5 521t522 212t522.5 -212t211 -521q0 -319 -211 -537.5t-522.5 -218.5t-522 218.5t-210.5 537.5zM258 668q23 -244 187.5 -404t400.5 -160q233 0 397 160t187 404h-1172zM258 788h1172q-20 236 -184 390.5t-400 154.5q-238 0 -402.5 -154.5 t-185.5 -390.5z" />
<glyph unicode="&#x473;" horiz-adv-x="1277" d="M96 520q0 227 158 381t385 154t386 -153.5t159 -381.5q0 -231 -159 -388t-386 -157t-385 157t-158 388zM233 469q18 -164 133 -270.5t273 -106.5t273.5 106.5t131.5 270.5h-811zM233 571h811q-16 160 -131.5 263.5t-273.5 103.5t-272.5 -103.5t-133.5 -263.5z" />
<glyph unicode="&#x474;" horiz-adv-x="1400" d="M39 1440h154l397 -1094l55 -184h4q31 111 56 184l311 914q41 119 92 149.5t176 30.5h90v-129h-45q-94 0 -119 -15q-39 -20 -69 -108l-418 -1188h-152z" />
<glyph unicode="&#x475;" horiz-adv-x="1128" d="M51 1030h148l286 -756l35 -124h4q18 74 37 124l197 574q33 102 88 142t162 40h77v-127h-43q-72 0 -104.5 -22.5t-58.5 -96.5l-279 -784h-154z" />
<glyph unicode="&#x48a;" horiz-adv-x="1593" d="M207 0v1440h141v-1037l-12 -194h4q76 127 125 199l729 1032h137v-1313h203v-92l-135 -322h-113l94 287h-190v1036l12 195h-4q-72 -123 -121 -195l-733 -1036h-137zM506 1749v35h121v-31q0 -66 44 -103.5t105.5 -37.5t106.5 38t45 105v29h119v-35q0 -111 -80 -176.5 t-190.5 -65.5t-190.5 65.5t-80 176.5z" />
<glyph unicode="&#x48b;" horiz-adv-x="1265" d="M166 0v1030h135v-676q0 -141 -6 -153h4q8 14 107 153l505 676h133v-909h164v-88l-114 -279h-109l82 246h-160v678q0 27 1 61.5t3 60t2 27.5h-4q0 -4 -17.5 -28.5t-45 -61.5t-41.5 -59l-506 -678h-133zM342 1407v35h121v-31q0 -66 44 -103.5t105.5 -37.5t106.5 38t45 105 v29h119v-35q0 -111 -80 -176.5t-190.5 -65.5t-190.5 65.5t-80 176.5z" />
<glyph unicode="&#x48c;" horiz-adv-x="1355" d="M25 1184v119h335v233h142v-233h362v-119h-362v-326h350q188 0 311 -116.5t123 -313.5q0 -193 -124 -310.5t-308 -117.5h-494v1184h-335zM502 127h332q135 0 220 80t85 221q0 139 -85 221t-223 82h-329v-604z" />
<glyph unicode="&#x48d;" horiz-adv-x="1062" d="M14 944v111h248v385h141v-385h345v-111h-345v-307h226q156 0 258 -76t102 -246q0 -145 -92 -230t-272 -85h-361v944h-250zM403 111h209q233 0 234 206q0 98 -57.5 153.5t-174.5 55.5h-211v-415z" />
<glyph unicode="&#x48e;" horiz-adv-x="1259" d="M207 0v1440h498q195 0 319.5 -119t124.5 -315q0 -207 -137 -332l125 -172l-88 -68l-129 178q-98 -47 -215 -47h-357v-565h-141zM348 684h342q88 0 156 31l-146 200l88 68l146 -203q76 82 76 221q0 147 -86 229.5t-234 82.5h-342v-629z" />
<glyph unicode="&#x48f;" horiz-adv-x="1224" d="M166 -410v1440h133v-108l-6 -80h4q4 8 11 22.5t37 51t67 65.5t102.5 51.5t140.5 22.5q207 0 328 -148.5t121 -390.5q0 -240 -127 -389l117 -137l-84 -74l-113 135q-111 -76 -254 -76q-70 0 -130 21.5t-97 51.5t-63.5 59.5t-37.5 52.5l-12 20h-4q6 -37 6 -90v-500h-139z M301 510q0 -168 89 -290t241 -122q104 0 180 56l-143 174l84 71l137 -166q80 111 80 279q0 188 -92.5 302t-237.5 114q-143 0 -240.5 -104.5t-97.5 -313.5z" />
<glyph unicode="&#x490;" horiz-adv-x="1001" d="M207 0v1440h639v180h127v-307h-625v-1313h-141z" />
<glyph unicode="&#x491;" horiz-adv-x="817" d="M166 0v1030h485v164h119v-285h-465v-909h-139z" />
<glyph unicode="&#x492;" horiz-adv-x="1017" d="M88 653v113h129v674h758v-127h-617v-547h332v-113h-332v-653h-141v653h-129z" />
<glyph unicode="&#x493;" horiz-adv-x="839" d="M41 451v104h129v475h614v-121h-475v-354h271v-104h-271v-451h-139v451h-129z" />
<glyph unicode="&#x494;" horiz-adv-x="1220" d="M207 0v1440h758v-127h-617v-527q47 27 133 49.5t162 22.5q80 0 146.5 -14.5t130 -53t106.5 -101t69.5 -166t26.5 -240.5q0 -330 -134 -484.5t-359 -154.5v120q152 0 250 117t98 402q0 242 -86 345t-266 103q-125 0 -277 -67v-664h-141z" />
<glyph unicode="&#x495;" horiz-adv-x="997" d="M166 0v1030h620v-119h-481v-391q123 61 244 62q104 0 180 -38t116 -103.5t58.5 -138.5t18.5 -157q0 -373 -293 -567l-70 103q225 154 225 458q0 319 -254 320q-125 0 -225 -64v-395h-139z" />
<glyph unicode="&#x496;" horiz-adv-x="1841" d="M45 0l430 756v4l-401 680h159l363 -625h207v625h141v-625h209l363 625h157l-401 -680v-4l358 -629h182v-414h-133v287h-137l-389 688h-209v-688h-141v688h-207l-389 -688h-162z" />
<glyph unicode="&#x497;" horiz-adv-x="1548" d="M41 0l348 526v4l-315 500h151l279 -442h166v442h135v-442h166l278 442h154l-316 -500v-4l267 -403h155v-369h-133v246h-104l-301 465h-166v-465h-135v465h-164l-303 -465h-162z" />
<glyph unicode="&#x498;" horiz-adv-x="1105" d="M66 162l84 102q61 -70 155 -114t195 -44q150 0 246 82t96 220q0 129 -87 202.5t-218 73.5h-183v123h146q123 0 209 74.5t86 191.5q0 113 -72 187.5t-217 74.5q-184 0 -332 -123l-65 111q172 141 411 141q195 0 307.5 -102t112.5 -275q0 -225 -215 -325v-4 q121 -33 192.5 -126t71.5 -229q0 -174 -113.5 -287.5t-293.5 -133.5v-269h-131v267q-113 10 -216 57t-169 125z" />
<glyph unicode="&#x499;" horiz-adv-x="903" d="M61 125l74 96q121 -127 277 -127q102 0 174.5 52.5t72.5 148.5q0 182 -249 182h-125v111h108q109 0 169.5 44t60.5 130t-57.5 130t-155.5 44q-135 0 -252 -92l-62 98q135 113 334 113q150 0 243 -72t93 -205q0 -174 -158 -235v-4q88 -23 141.5 -86.5t53.5 -161.5 q0 -127 -84 -207t-213 -100v-230h-129v223q-185 17 -316 148z" />
<glyph unicode="&#x49a;" horiz-adv-x="1304" d="M207 0v1440h141v-625h242l389 625h162l-432 -680v-4l383 -629h182v-414h-131v287h-139l-414 688h-242v-688h-141z" />
<glyph unicode="&#x49b;" horiz-adv-x="1081" d="M166 0v1030h139v-436h164l309 436h164l-358 -489v-4l307 -414h151v-369h-131v246h-98l-342 471h-166v-471h-139z" />
<glyph unicode="&#x49c;" horiz-adv-x="1359" d="M207 0v1440h141v-625h162v256h117v-256h110l389 625h162l-430 -680v-4l459 -756h-166l-414 688h-110v-256h-117v256h-162v-688h-141z" />
<glyph unicode="&#x49d;" horiz-adv-x="1153" d="M166 0v1030h139v-436h129v217h111v-217h63l310 436h163l-358 -489v-4l399 -537h-170l-342 471h-65v-221h-111v221h-129v-471h-139z" />
<glyph unicode="&#x49e;" horiz-adv-x="1220" d="M23 1083v113h192v244h141v-244h213v-113h-213v-268h242l389 625h162l-432 -680v-4l461 -756h-166l-414 688h-242v-688h-141v1083h-192z" />
<glyph unicode="&#x49f;" horiz-adv-x="1015" d="M39 1083v109h127v248h139v-248h258v-109h-258v-450h166l307 397h168l-358 -452v-5l395 -573h-168l-342 510h-168v-510h-139v1083h-127z" />
<glyph unicode="&#x4a0;" horiz-adv-x="1497" d="M37 1313v127h596v-625h244l387 625h161l-430 -680v-4l459 -756h-166l-411 688h-244v-688h-141v1313h-455z" />
<glyph unicode="&#x4a1;" horiz-adv-x="1155" d="M25 909v121h424v-436h161l312 436h161l-356 -489v-4l399 -537h-170l-344 471h-163v-471h-140v909h-284z" />
<glyph unicode="&#x4a2;" horiz-adv-x="1587" d="M207 0v1440h141v-656h834v656h143v-1313h186v-414h-131v287h-198v657h-834v-657h-141z" />
<glyph unicode="&#x4a3;" horiz-adv-x="1261" d="M166 0v1030h139v-440h602v440h140v-907h161v-369h-131v246h-170v467h-602v-467h-139z" />
<glyph unicode="&#x4a4;" horiz-adv-x="1888" d="M207 0v1440h141v-656h752v656h758v-127h-617v-1313h-141v657h-752v-657h-141z" />
<glyph unicode="&#x4a5;" horiz-adv-x="1466" d="M166 0v1030h139v-440h537v440h577v-121h-438v-909h-139v467h-537v-467h-139z" />
<glyph unicode="&#x4a6;" horiz-adv-x="2035" d="M207 0v1440h967v-633q47 27 133 49.5t161 22.5q80 0 146.5 -14.5t130 -55.5t106.5 -105.5t70 -172t27 -248.5q0 -330 -133.5 -484.5t-360.5 -154.5v120q152 0 250 117t98 402q0 256 -86 364.5t-266 108.5q-119 0 -276 -70v-686h-142v1315h-684v-1315h-141z" />
<glyph unicode="&#x4a7;" horiz-adv-x="1634" d="M166 0v1030h754v-459q123 61 243 62q205 0 300.5 -133t95.5 -328q0 -391 -293 -594l-70 103q227 160 227 487q0 152 -65.5 246t-210.5 94q-121 0 -227 -64v-444h-140v907h-475v-907h-139z" />
<glyph unicode="&#x4a8;" horiz-adv-x="1908" d="M115 739q0 156 50 288t131 218t174 141.5t192 77.5l32 -131q-176 -49 -305 -201.5t-129 -394.5q0 -266 152.5 -447t416.5 -181q137 0 279 51q-170 113 -265 287t-95 387q0 150 47 268.5t124.5 190t169 109.5t185.5 38q219 0 364.5 -155t145.5 -445q0 -197 -106.5 -375 t-284.5 -303q135 -39 284 -39h88v-123h-88q-225 0 -420 80q-209 -104 -428 -105q-319 0 -516.5 210t-197.5 554zM895 834q0 -195 91 -356t259 -253q176 102 283.5 265t107.5 350q0 238 -104.5 352.5t-257.5 114.5q-141 0 -260 -121t-119 -352z" />
<glyph unicode="&#x4a9;" horiz-adv-x="1572" d="M98 528q0 207 115 342.5t266 184.5l45 -119q-115 -39 -201.5 -145.5t-86.5 -264.5q0 -188 110.5 -309t333.5 -121q113 0 223 37q-131 82 -208 207t-77 283q0 178 123 305t307.5 127t297 -116t112.5 -304q0 -141 -76.5 -269t-205.5 -225q94 -23 192 -22h96v-119h-92 q-176 0 -332 61q-176 -86 -362 -86q-281 0 -430.5 156.5t-149.5 396.5zM756 625q0 -141 76.5 -253t205.5 -179q127 74 205 186.5t78 249.5q0 143 -76 225t-198 82q-121 0 -206 -88t-85 -223z" />
<glyph unicode="&#x4aa;" horiz-adv-x="1472" d="M113 729q0 315 203.5 525t519.5 210q326 0 520 -186l-76 -104q-84 74 -203 115.5t-237 41.5q-258 0 -419 -171t-161 -429q0 -262 162 -442t424 -180q270 0 465 190l82 -100q-207 -203 -496 -222v-264h-133v267q-293 27 -472 237.5t-179 511.5z" />
<glyph unicode="&#x4ab;" horiz-adv-x="1114" d="M96 514q0 236 156 388.5t385 152.5q106 0 208.5 -38t168.5 -110l-72 -104q-55 57 -136 92t-165 35q-172 0 -286.5 -117t-114.5 -299q0 -180 115.5 -296t289.5 -116q90 0 180 38t150 104l63 -105q-129 -141 -354 -162v-223h-129v228q-201 27 -330 172t-129 360z" />
<glyph unicode="&#x4ac;" horiz-adv-x="1245" d="M33 1313v127h1175v-127h-518v-1186h187v-414h-132v287h-198l2 4v1309h-516z" />
<glyph unicode="&#x4ad;" horiz-adv-x="993" d="M47 907v123h891v-123h-377v-784h164v-369h-131v246h-172v907h-375z" />
<glyph unicode="&#x4ae;" horiz-adv-x="1161" d="M23 1440h161l305 -522l89 -173h4q45 96 88 173l305 522h162l-486 -822v-618h-141v618z" />
<glyph unicode="&#x4af;" horiz-adv-x="1046" d="M49 1030h148l284 -692l39 -119h4q18 63 39 119l287 692h145l-403 -967v-473h-135v473z" />
<glyph unicode="&#x4b0;" horiz-adv-x="1161" d="M23 1440h161l305 -522l89 -173h4q45 96 88 173l305 522h162l-482 -815h256v-113h-260v-512h-141v512h-264v113h260z" />
<glyph unicode="&#x4b1;" horiz-adv-x="1044" d="M53 1030h148l280 -692l39 -119h4q18 63 39 119l283 692h147l-383 -919h217v-111h-235v-410h-135v410h-238v111h217z" />
<glyph unicode="&#x4b2;" horiz-adv-x="1271" d="M39 0l459 752l-420 688h166l252 -426l94 -166h4q43 92 88 166l254 426h166l-422 -688l383 -625h182v-414h-131v287h-135l-301 498l-90 159h-4q-43 -86 -88 -161l-295 -496h-162z" />
<glyph unicode="&#x4b3;" horiz-adv-x="1048" d="M41 0l360 537l-331 493h163l222 -346l34 -59h5q18 33 34 59l222 346h161l-331 -493l278 -414h148v-369h-132v246h-96l-250 387l-34 57h-5q-16 -29 -34 -57l-252 -387h-162z" />
<glyph unicode="&#x4b4;" horiz-adv-x="1824" d="M37 1313v127h1050v-127h-454v-1186h792v1313h142v-1313h180v-414h-131v287h-1124v1313h-455z" />
<glyph unicode="&#x4b5;" horiz-adv-x="1472" d="M47 907v123h844v-123h-352v-784h585v907h140v-907h149v-369h-133v246h-881v907h-352z" />
<glyph unicode="&#x4b6;" horiz-adv-x="1323" d="M115 975v465h143v-436q0 -154 72.5 -230t232.5 -76q186 0 355 111v631h143v-1313h186v-414h-131v287h-198v606l4 68h-4q-193 -107 -375 -107q-428 0 -428 408z" />
<glyph unicode="&#x4b7;" horiz-adv-x="1085" d="M96 702v328h137v-313q0 -98 48.5 -156.5t185.5 -58.5q147 0 256 84v444h139v-907h176v-369h-131v246h-184v391l4 66h-4q-129 -80 -281 -80q-174 0 -260 85t-86 240z" />
<glyph unicode="&#x4b8;" horiz-adv-x="1280" d="M111 979v461h143v-436q0 -147 68.5 -224.5t220.5 -81.5v295h116v-286q152 25 271 102v631h143v-1440h-143v608l4 68h-4q-121 -68 -271 -94v-236h-116v225q-432 2 -432 408z" />
<glyph unicode="&#x4b9;" horiz-adv-x="1052" d="M96 702v328h137v-313q0 -92 45.5 -150.5t170.5 -64.5v256h110v-250q111 23 189 78v444h139v-1030h-139v395l4 66h-4q-74 -47 -189 -72v-176h-110v164q-178 0 -265.5 86t-87.5 239z" />
<glyph unicode="&#x4ba;" horiz-adv-x="1259" d="M207 0v1440h141v-535l-4 -67h4q188 102 395 102q395 0 396 -412v-528h-144v506q0 305 -278 305q-109 0 -210 -35t-159 -76v-700h-141z" />
<glyph unicode="&#x4bb;" horiz-adv-x="1216" d="M166 0v1440h139v-566l-6 -83h4q37 94 146.5 179t265.5 85q186 0 266 -100.5t80 -299.5v-655h-139v618q0 145 -45.5 225.5t-180.5 80.5q-164 0 -277.5 -121t-113.5 -305v-498h-139z" />
<glyph unicode="&#x4bc;" horiz-adv-x="1761" d="M90 1042q0 98 14 164l19 86h135l-18 -86q-14 -72 -15 -153q0 -90 43 -147.5t127 -57.5h23q37 270 212 443t435 173q264 0 420.5 -175t156.5 -484l-2 -76h-1085q-2 -289 157.5 -454.5t385.5 -165.5q258 0 465 178l71 -115l-4 -4q-176 -162 -448 -188q-47 -4 -95 -5 q-297 0 -488 205t-191 533v16h-17q-141 0 -221 84t-80 229zM561 848h936q0 203 -109.5 345t-322.5 142q-205 0 -339 -140t-165 -347z" />
<glyph unicode="&#x4bd;" horiz-adv-x="1361" d="M80 782q0 70 26 158h123q-27 -70 -26 -147q0 -172 127 -172h6q31 201 170 317.5t330 116.5q205 0 318.5 -136.5t113.5 -338.5l-6 -70h-791q4 -190 119 -299t282 -109q82 0 160 31t115 62l37 30l63 -106q-16 -16 -48 -40t-131 -64t-202 -40q-231 0 -383.5 149.5 t-154.5 385.5h-9q-239 0 -239 272zM477 621h647q-6 154 -88 235.5t-205 81.5q-133 0 -231 -83.5t-123 -233.5z" />
<glyph unicode="&#x4be;" horiz-adv-x="1763" d="M90 1042q0 98 14 164l19 86h135l-18 -86q-14 -72 -15 -153q0 -90 43 -147.5t127 -57.5h23q37 270 212 443t435 173q264 0 420.5 -175t156.5 -484l-2 -76h-1085q-2 -289 157.5 -454.5t385.5 -165.5q258 0 465 178l71 -115l-4 -4q-178 -162 -454 -188q-20 -2 -43 -3v-264 h-132v269q-264 29 -428.5 228.5t-164.5 502.5v16h-17q-141 0 -221 84t-80 229zM561 848h936q0 203 -109.5 345t-322.5 142q-205 0 -339 -140t-165 -347z" />
<glyph unicode="&#x4bf;" horiz-adv-x="1363" d="M80 782q0 70 26 158h123q-27 -70 -26 -147q0 -172 127 -172h6q31 201 170 317.5t330 116.5q205 0 318.5 -136.5t113.5 -338.5l-6 -70h-791q4 -190 119 -299t282 -109q82 0 160 31t115 62l37 30l63 -106q-16 -14 -46 -38t-124 -62.5t-192 -43.5v-221h-131v232 q-188 37 -306 178t-120 346h-9q-239 0 -239 272zM477 621h647q-6 154 -88 235.5t-205 81.5q-133 0 -231 -83.5t-123 -233.5z" />
<glyph unicode="&#x4c0;" horiz-adv-x="552" d="M207 0v1440h139v-1440h-139z" />
<glyph unicode="&#x4c1;" horiz-adv-x="1748" d="M45 0l430 756v4l-401 680h159l363 -625h207v625h141v-625h209l363 625h157l-401 -680v-4l432 -756h-162l-389 688h-209v-688h-141v688h-207l-389 -688h-162zM604 1749v35h121v-31q0 -66 44 -103.5t105.5 -37.5t106.5 38t45 105v29h119v-35q0 -111 -80 -176.5 t-190.5 -65.5t-190.5 65.5t-80 176.5z" />
<glyph unicode="&#x4c2;" horiz-adv-x="1476" d="M41 0l348 526v4l-315 500h151l279 -442h166v442h135v-442h166l278 442h154l-316 -500v-4l349 -526h-164l-301 465h-166v-465h-135v465h-164l-303 -465h-162zM467 1407v35h121v-31q0 -66 44 -103.5t105.5 -37.5t106.5 38t45 105v29h119v-35q0 -111 -80 -176.5 t-190.5 -65.5t-190.5 65.5t-80 176.5z" />
<glyph unicode="&#x4c3;" horiz-adv-x="1259" d="M207 0v1440h141v-625h242l389 625h162l-410 -656q100 -23 176 -69.5t121 -102t73.5 -123t39 -126t10.5 -117.5q0 -285 -135 -443.5t-350 -158.5v123q141 0 240.5 112.5t99.5 360.5q0 231 -140.5 340.5t-367.5 109.5h-150v-690h-141z" />
<glyph unicode="&#x4c4;" horiz-adv-x="1032" d="M166 0v1030h139v-440h160l313 440h164l-340 -465v-4q334 -90 334 -463q0 -190 -85 -319t-212 -201l-68 107q227 119 228 413q0 186 -104.5 277.5t-288.5 91.5h-101v-467h-139z" />
<glyph unicode="&#x4c5;" horiz-adv-x="1417" d="M23 -16v133q193 27 267.5 282.5t74.5 749.5v291h790v-1313h203v-92l-135 -322h-113l94 287h-192v1313h-510v-166q0 -274 -20.5 -468t-72 -354.5t-147.5 -245.5t-239 -95z" />
<glyph unicode="&#x4c6;" horiz-adv-x="1138" d="M41 -8v125q127 20 186.5 166.5t59.5 435.5v311h631v-909h161v-88l-114 -279h-109l82 246h-160v909h-356v-190q0 -365 -91 -538t-290 -189z" />
<glyph unicode="&#x4c7;" horiz-adv-x="1529" d="M207 0v1440h141v-656h834v656h143v-1374q0 -133 -38 -223.5t-100.5 -131.5t-118.5 -55t-118 -12v123q39 0 73 10t73 38.5t62.5 91t23.5 154.5v596h-834v-657h-141z" />
<glyph unicode="&#x4c8;" horiz-adv-x="1214" d="M166 0v1030h139v-440h602v440h142v-948q0 -203 -78 -312.5t-219 -191.5l-72 109q227 113 227 395v385h-602v-467h-139z" />
<glyph unicode="&#x4c9;" horiz-adv-x="1587" d="M207 0v1440h141v-656h834v656h143v-1313h203v-92l-135 -322h-113l92 287h-190v657h-834v-657h-141z" />
<glyph unicode="&#x4ca;" horiz-adv-x="1265" d="M166 0v1030h139v-440h602v440h140v-909h161v-88l-116 -279h-107l80 246h-158v467h-602v-467h-139z" />
<glyph unicode="&#x4cb;" horiz-adv-x="1265" d="M115 975v465h143v-436q0 -154 72.5 -230t232.5 -76q186 0 355 111v631h143v-1440h-201v-287h-131v414h189v479l4 68h-4q-193 -107 -375 -107q-428 0 -428 408z" />
<glyph unicode="&#x4cc;" horiz-adv-x="1040" d="M96 709v321h137v-307q0 -96 47.5 -155.5t174.5 -59.5q160 0 280 84v438h139v-1030h-169v-246h-134v352h164v295l4 66h-4q-55 -33 -146 -57.5t-163 -24.5q-166 0 -248 86t-82 238z" />
<glyph unicode="&#x4cd;" horiz-adv-x="1785" d="M152 0l114 1440h146l379 -846l69 -176h4q37 102 70 176l379 846h145l105 -1313h200v-92l-133 -322h-112l92 287h-178l-80 1008l-4 200h-5q-43 -127 -75 -200l-340 -740h-131l-338 740l-78 204h-4q2 -127 -4 -204l-80 -1008h-141z" />
<glyph unicode="&#x4ce;" horiz-adv-x="1525" d="M127 0l84 1030h147l310 -635l63 -145h4q33 80 64 145l311 635h145l76 -909h162v-88l-115 -279h-108l80 246h-146l-51 666v178h-4q-23 -66 -66 -150l-286 -575h-127l-285 571l-68 154h-4q4 -123 0 -178l-51 -666h-135z" />
<glyph unicode="&#x4cf;" horiz-adv-x="471" d="M166 0v1440h139v-1440h-139z" />
<glyph unicode="&#x4d0;" horiz-adv-x="1294" d="M43 0l528 1440h152l528 -1440h-149l-166 459h-580l-163 -459h-150zM375 1749v35h121v-31q0 -66 44 -103.5t105.5 -37.5t106.5 38t45 105v29h118v-35q0 -111 -79.5 -176.5t-190 -65.5t-190.5 65.5t-80 176.5zM399 582h494l-188 522l-56 188h-4q-31 -121 -55 -188z" />
<glyph unicode="&#x4d1;" horiz-adv-x="1060" d="M76 276q0 358 626 359h62v29q0 266 -254 266q-158 0 -293 -99l-63 107q61 53 161.5 85t202.5 32q186 0 285.5 -101.5t99.5 -294.5v-659h-133v121l6 86h-4q-43 -98 -136 -165t-212 -67q-141 0 -244.5 80t-103.5 221zM217 289q0 -78 61.5 -137.5t170.5 -59.5q141 0 228 119 t87 266v47h-59q-66 0 -114 -2t-125 -15t-126 -35.5t-86 -69.5t-37 -113zM272 1407v35h121v-31q0 -66 44 -103.5t105.5 -37.5t106.5 38t45 105v29h119v-35q0 -111 -80 -176.5t-190.5 -65.5t-190.5 65.5t-80 176.5z" />
<glyph unicode="&#x4d2;" horiz-adv-x="1294" d="M43 0l528 1440h152l528 -1440h-149l-166 459h-580l-163 -459h-150zM399 582h494l-188 522l-56 188h-4q-31 -121 -55 -188zM430 1608v176h125v-176h-125zM739 1608v176h127v-176h-127z" />
<glyph unicode="&#x4d3;" horiz-adv-x="1060" d="M76 276q0 358 626 359h62v29q0 266 -254 266q-158 0 -293 -99l-63 107q61 53 161.5 85t202.5 32q186 0 285.5 -101.5t99.5 -294.5v-659h-133v121l6 86h-4q-43 -98 -136 -165t-212 -67q-141 0 -244.5 80t-103.5 221zM217 289q0 -78 61.5 -137.5t170.5 -59.5q141 0 228 119 t87 266v47h-59q-66 0 -114 -2t-125 -15t-126 -35.5t-86 -69.5t-37 -113zM307 1266v176h125v-176h-125zM616 1266v176h127v-176h-127z" />
<glyph unicode="&#x4d4;" horiz-adv-x="1736" d="M33 0l592 1440h985v-127h-670v-525h547v-126h-547v-535h707v-127h-848v664h-350l-267 -664h-149zM500 786h299v527h-84z" />
<glyph unicode="&#x4d5;" horiz-adv-x="1775" d="M78 281q0 70 23.5 125t58.5 90.5t91 61.5t105.5 39t119 20.5t113.5 8.5t107 1h68v37q0 266 -262 266q-154 0 -285 -99l-65 105q61 55 159.5 87t198.5 32q276 0 348 -213h4q127 213 389 213q201 0 314.5 -134.5t113.5 -334.5q0 -2 -6 -70h-774q4 -197 110.5 -305.5 t274.5 -108.5q182 0 311 123l64 -106q-68 -63 -173.5 -103.5t-207.5 -40.5q-158 0 -276.5 76t-176.5 211h-4q-6 -23 -19.5 -51.5t-46 -72.5t-72.5 -77.5t-106.5 -59.5t-144.5 -26q-150 0 -252 81.5t-102 224.5zM221 289q0 -80 60.5 -138.5t169.5 -58.5q141 0 228 120t87 267 v37h-121q-80 0 -142.5 -7t-133 -27.5t-109.5 -69.5t-39 -123zM907 627h629q-6 152 -89 230.5t-202 78.5q-133 0 -223 -79.5t-115 -229.5z" />
<glyph unicode="&#x4d6;" horiz-adv-x="1146" d="M207 0v1440h809v-127h-668v-525h547v-126h-547v-535h707v-127h-848zM350 1749v35h121v-31q0 -66 44 -103.5t105.5 -37.5t106.5 38t45 105v29h119v-35q0 -111 -80 -176.5t-190.5 -65.5t-190.5 65.5t-80 176.5z" />
<glyph unicode="&#x4d7;" horiz-adv-x="1132" d="M96 514q0 246 146.5 393.5t363.5 147.5q205 0 317.5 -136.5t112.5 -338.5q0 -25 -4 -70h-790q4 -190 118.5 -299t280.5 -109q178 0 313 123l64 -106q-72 -66 -175.5 -105t-205.5 -39q-231 0 -386 151.5t-155 387.5zM248 621h647q-6 154 -88 236.5t-205 82.5 q-133 0 -231 -83.5t-123 -235.5zM324 1407v35h120v-31q0 -66 44 -103.5t105.5 -37.5t106.5 38t45 105v29h119v-35q0 -111 -79.5 -176.5t-190.5 -65.5t-190.5 65.5t-79.5 176.5z" />
<glyph unicode="&#x4d8;" horiz-adv-x="1474" d="M113 698l4 80h1091q-4 244 -150.5 398.5t-371.5 154.5q-121 0 -237.5 -41t-157.5 -67.5t-66 -48.5l-75 104q8 8 25.5 22.5t69.5 46t110.5 55t151.5 43t191 19.5q291 0 475.5 -204.5t184.5 -532.5t-174 -540t-469 -212q-276 0 -439 182.5t-163 540.5zM260 657 q0 -551 469 -551q209 0 342 151t133 400h-944z" />
<glyph unicode="&#x4d9;" horiz-adv-x="1134" d="M96 477l4 74h793q-4 168 -109.5 274.5t-259.5 106.5q-92 0 -178 -31t-125 -61l-41 -31l-63 104l12 9l25.5 17t38 23.5t49 25.5t59.5 24.5t70 21.5t79 14.5t87 6.5q219 0 359 -150.5t140 -388.5q0 -254 -139 -397.5t-352 -143.5q-217 0 -333 137.5t-116 364.5zM242 440 q6 -184 90 -266t217 -82t230.5 89t105.5 259h-643z" />
<glyph unicode="&#x4da;" horiz-adv-x="1474" d="M113 698l4 80h1091q-4 244 -150.5 398.5t-371.5 154.5q-121 0 -237.5 -41t-157.5 -67.5t-66 -48.5l-75 104q8 8 25.5 22.5t69.5 46t110.5 55t151.5 43t191 19.5q291 0 475.5 -204.5t184.5 -532.5t-174 -540t-469 -212q-276 0 -439 182.5t-163 540.5zM260 657 q0 -551 469 -551q209 0 342 151t133 400h-944zM510 1608v176h125v-176h-125zM819 1608v176h127v-176h-127z" />
<glyph unicode="&#x4db;" horiz-adv-x="1134" d="M96 477l4 74h793q-4 168 -109.5 274.5t-259.5 106.5q-92 0 -178 -31t-125 -61l-41 -31l-63 104l12 9l25.5 17t38 23.5t49 25.5t59.5 24.5t70 21.5t79 14.5t87 6.5q219 0 359 -150.5t140 -388.5q0 -254 -139 -397.5t-352 -143.5q-217 0 -333 137.5t-116 364.5zM242 440 q6 -184 90 -266t217 -82t230.5 89t105.5 259h-643zM326 1266v176h125v-176h-125zM635 1266v176h127v-176h-127z" />
<glyph unicode="&#x4dc;" horiz-adv-x="1748" d="M45 0l430 756v4l-401 680h159l363 -625h207v625h141v-625h209l363 625h157l-401 -680v-4l432 -756h-162l-389 688h-209v-688h-141v688h-207l-389 -688h-162zM659 1608v176h125v-176h-125zM969 1608v176h127v-176h-127z" />
<glyph unicode="&#x4dd;" horiz-adv-x="1476" d="M41 0l348 526v4l-315 500h151l279 -442h166v442h135v-442h166l278 442h154l-316 -500v-4l349 -526h-164l-301 465h-166v-465h-135v465h-164l-303 -465h-162zM518 1266v176h125v-176h-125zM827 1266v176h127v-176h-127z" />
<glyph unicode="&#x4de;" horiz-adv-x="1101" d="M66 162l84 102q61 -70 155 -114t195 -44q150 0 246 82t96 220q0 129 -87 202.5t-218 73.5h-183v123h146q123 0 209 74.5t86 191.5q0 113 -72 187.5t-217 74.5q-184 0 -332 -123l-65 111q172 141 411 141q195 0 307.5 -102t112.5 -275q0 -225 -215 -325v-4 q121 -33 192.5 -126t71.5 -229q0 -193 -137 -310.5t-346 -117.5q-125 0 -244.5 49.5t-195.5 137.5zM324 1608v176h125v-176h-125zM633 1608v176h127v-176h-127z" />
<glyph unicode="&#x4df;" horiz-adv-x="899" d="M61 125l74 96q121 -127 277 -127q102 0 174.5 52.5t72.5 148.5q0 182 -249 182h-125v111h108q109 0 169.5 44t60.5 130t-57.5 130t-155.5 44q-135 0 -252 -92l-62 98q135 113 334 113q150 0 243 -72t93 -205q0 -174 -158 -235v-4q88 -23 141.5 -86.5t53.5 -161.5 q0 -150 -111.5 -233t-271.5 -83q-205 0 -359 150zM223 1266v176h125v-176h-125zM532 1266v176h127v-176h-127z" />
<glyph unicode="&#x4e0;" horiz-adv-x="1067" d="M74 104l57 111q63 -51 154.5 -81t177.5 -30q160 0 257 84t97 218q0 117 -60.5 183t-197.5 85q-41 6 -309 6v100l409 453l89 84v4q-55 -4 -125 -4h-514v123h813v-105l-439 -481l-57 -51v-4q145 -2 195 -13q338 -53 337 -370q0 -195 -137 -315.5t-354 -120.5 q-215 0 -393 124z" />
<glyph unicode="&#x4e1;" horiz-adv-x="980" d="M25 -305l57 110q63 -51 154.5 -80.5t177.5 -29.5q160 0 257 84t97 217q0 117 -60.5 183.5t-197.5 84.5q-41 6 -309 6v101l409 452l88 84v4q-55 -4 -125 -4h-514v123h813v-104l-438 -482l-57 -51v-4q145 -2 194 -12q338 -53 338 -371q0 -195 -137 -315.5t-354 -120.5 q-215 0 -393 125z" />
<glyph unicode="&#x4e2;" horiz-adv-x="1538" d="M207 0v1440h141v-1037l-12 -194h4q76 127 125 199l729 1032h137v-1440h-141v1036l12 195h-4q-72 -123 -121 -195l-733 -1036h-137zM526 1608v112h504v-112h-504z" />
<glyph unicode="&#x4e3;" horiz-adv-x="1210" d="M166 0v1030h135v-676q0 -141 -6 -153h4q8 14 107 153l505 676h133v-1030h-137v678q0 27 1 61.5t3 60t2 27.5h-4q0 -4 -17.5 -28.5t-45 -61.5t-41.5 -59l-506 -678h-133zM356 1266v112h504v-112h-504z" />
<glyph unicode="&#x4e4;" horiz-adv-x="1538" d="M207 0v1440h141v-1037l-12 -194h4q76 127 125 199l729 1032h137v-1440h-141v1036l12 195h-4q-72 -123 -121 -195l-733 -1036h-137zM551 1608v176h125v-176h-125zM860 1608v176h127v-176h-127z" />
<glyph unicode="&#x4e5;" horiz-adv-x="1210" d="M166 0v1030h135v-676q0 -141 -6 -153h4q8 14 107 153l505 676h133v-1030h-137v678q0 27 1 61.5t3 60t2 27.5h-4q0 -4 -17.5 -28.5t-45 -61.5t-41.5 -59l-506 -678h-133zM395 1266v176h125v-176h-125zM705 1266v176h126v-176h-126z" />
<glyph unicode="&#x4e6;" horiz-adv-x="1689" d="M111 731q0 309 209.5 521t523.5 212q315 0 524 -211t209 -522q0 -319 -209 -537.5t-524 -218.5q-313 0 -523 218.5t-210 537.5zM258 731q0 -264 167 -443t419 -179t419 178t167 444q0 256 -167 428t-419 172t-419 -172t-167 -428zM623 1608v176h125v-176h-125zM932 1608 v176h127v-176h-127z" />
<glyph unicode="&#x4e7;" horiz-adv-x="1277" d="M96 520q0 227 158 381t385 154t386 -153.5t159 -381.5q0 -231 -159 -388t-386 -157t-385 157t-158 388zM240 520q0 -180 115.5 -299t283.5 -119t284.5 119t116.5 299q0 174 -116.5 292t-284.5 118t-283.5 -118t-115.5 -292zM424 1266v176h125v-176h-125zM733 1266v176 h127v-176h-127z" />
<glyph unicode="&#x4e8;" horiz-adv-x="1689" d="M111 731q0 309 210.5 521t522 212t522.5 -212t211 -521q0 -319 -211 -537.5t-522.5 -218.5t-522 218.5t-210.5 537.5zM258 668q23 -244 187.5 -404t400.5 -160q233 0 397 160t187 404h-1172zM258 788h1172q-20 236 -184 390.5t-400 154.5q-238 0 -402.5 -154.5 t-185.5 -390.5z" />
<glyph unicode="&#x4e9;" horiz-adv-x="1277" d="M96 520q0 227 158 381t385 154t386 -153.5t159 -381.5q0 -231 -159 -388t-386 -157t-385 157t-158 388zM233 469q18 -164 133 -270.5t273 -106.5t273.5 106.5t131.5 270.5h-811zM233 571h811q-16 160 -131.5 263.5t-273.5 103.5t-272.5 -103.5t-133.5 -263.5z" />
<glyph unicode="&#x4ea;" horiz-adv-x="1689" d="M111 731q0 309 210.5 521t522 212t522.5 -212t211 -521q0 -319 -211 -537.5t-522.5 -218.5t-522 218.5t-210.5 537.5zM258 668q23 -244 187.5 -404t400.5 -160q233 0 397 160t187 404h-1172zM258 788h1172q-20 236 -184 390.5t-400 154.5q-238 0 -402.5 -154.5 t-185.5 -390.5zM627 1608v176h125v-176h-125zM936 1608v176h127v-176h-127z" />
<glyph unicode="&#x4eb;" horiz-adv-x="1277" d="M96 520q0 227 158 381t385 154t386 -153.5t159 -381.5q0 -231 -159 -388t-386 -157t-385 157t-158 388zM233 469q18 -164 133 -270.5t273 -106.5t273.5 106.5t131.5 270.5h-811zM233 571h811q-16 160 -131.5 263.5t-273.5 103.5t-272.5 -103.5t-133.5 -263.5zM416 1266 v176h125v-176h-125zM725 1266v176h127v-176h-127z" />
<glyph unicode="&#x4ec;" horiz-adv-x="1468" d="M78 195l78 100q78 -84 207 -136.5t264 -52.5q236 0 396.5 158t180.5 395h-811v123h813q-16 240 -178 395.5t-399 155.5q-250 0 -443 -164l-75 107q94 90 233 139t287 49q315 0 520 -211t205 -524q0 -317 -208 -535.5t-521 -218.5q-156 0 -301.5 58t-247.5 162zM451 1608 v176h124v-176h-124zM760 1608v176h127v-176h-127z" />
<glyph unicode="&#x4ed;" horiz-adv-x="1107" d="M72 133l61 105q129 -141 336 -142q158 0 271.5 100.5t129.5 262.5h-530v110h530q-16 164 -128.5 264.5t-268.5 100.5q-178 0 -309 -127l-72 102q63 70 168 108t215 38q227 0 382 -152.5t155 -388.5q0 -238 -153.5 -388.5t-387.5 -150.5q-243 0 -399 158zM299 1266v176 h125v-176h-125zM608 1266v176h127v-176h-127z" />
<glyph unicode="&#x4ee;" horiz-adv-x="1202" d="M14 1440h158l395 -803l82 -188h4q33 100 64 186l299 805h151l-471 -1213q-98 -252 -288 -252q-113 0 -238 88l68 109q98 -70 168 -70q66 0 103.5 47.5t76.5 147.5zM350 1608v112h504v-112h-504z" />
<glyph unicode="&#x4ef;" horiz-adv-x="1077" d="M39 -369l53 111q57 -47 123 -47q123 0 197 168l61 147l-428 1020h154l301 -751l39 -109h4q14 57 35 109l296 751h150l-508 -1245q-41 -100 -117.5 -157.5t-177.5 -57.5q-47 0 -93 15.5t-67 29.5zM285 1266v112h503v-112h-503z" />
<glyph unicode="&#x4f0;" horiz-adv-x="1202" d="M14 1440h158l395 -803l82 -188h4q33 100 64 186l299 805h151l-471 -1213q-98 -252 -288 -252q-113 0 -238 88l68 109q98 -70 168 -70q66 0 103.5 47.5t76.5 147.5zM389 1608v176h125v-176h-125zM698 1608v176h127v-176h-127z" />
<glyph unicode="&#x4f1;" horiz-adv-x="1077" d="M39 -369l53 111q57 -47 123 -47q123 0 197 168l61 147l-428 1020h154l301 -751l39 -109h4q14 57 35 109l296 751h150l-508 -1245q-41 -100 -117.5 -157.5t-177.5 -57.5q-47 0 -93 15.5t-67 29.5zM319 1266v176h125v-176h-125zM629 1266v176h127v-176h-127z" />
<glyph unicode="&#x4f2;" horiz-adv-x="1202" d="M14 1440h158l395 -803l82 -188h4q33 100 64 186l299 805h151l-471 -1213q-98 -252 -288 -252q-113 0 -238 88l68 109q98 -70 168 -70q66 0 103.5 47.5t76.5 147.5zM397 1540l133 244h140l-140 -244h-133zM672 1540l143 244h158l-178 -244h-123z" />
<glyph unicode="&#x4f3;" horiz-adv-x="1077" d="M39 -369l53 111q57 -47 123 -47q123 0 197 168l61 147l-428 1020h154l301 -751l39 -109h4q14 57 35 109l296 751h150l-508 -1245q-41 -100 -117.5 -157.5t-177.5 -57.5q-47 0 -93 15.5t-67 29.5zM317 1198l134 244h139l-139 -244h-134zM592 1198l143 244h158l-178 -244 h-123z" />
<glyph unicode="&#x4f4;" horiz-adv-x="1265" d="M115 975v465h143v-436q0 -154 72.5 -230t232.5 -76q186 0 355 111v631h143v-1440h-143v606l4 68h-4q-193 -107 -375 -107q-428 0 -428 408zM383 1608v176h125v-176h-125zM692 1608v176h127v-176h-127z" />
<glyph unicode="&#x4f5;" horiz-adv-x="1028" d="M96 702v328h137v-313q0 -98 48.5 -156.5t185.5 -58.5q147 0 256 84v444h139v-1030h-139v391l4 66h-4q-129 -80 -281 -80q-174 0 -260 85t-86 240zM279 1266v176h124v-176h-124zM588 1266v176h127v-176h-127z" />
<glyph unicode="&#x4f6;" horiz-adv-x="999" d="M207 0v1440h756v-127h-615v-1186h187v-414h-132v287h-196z" />
<glyph unicode="&#x4f7;" horiz-adv-x="833" d="M166 0v1030h614v-121h-475v-786h164v-369h-131v246h-172z" />
<glyph unicode="&#x4f8;" horiz-adv-x="1665" d="M207 0v1440h141v-582h324q188 0 307 -112.5t119 -319.5q0 -193 -116 -309.5t-298 -116.5h-477zM348 127h316q135 0 211.5 79t76.5 220t-79.5 223t-210.5 82h-314v-604zM614 1608v176h125v-176h-125zM924 1608v176h127v-176h-127zM1317 0v1440h141v-1440h-141z" />
<glyph unicode="&#x4f9;" horiz-adv-x="1366" d="M166 0v1030h139v-393h221q156 0 258.5 -76t102.5 -246q0 -145 -92.5 -230t-272.5 -85h-356zM305 111h205q233 0 233 206q0 98 -57 153.5t-174 55.5h-207v-415zM463 1266v176h125v-176h-125zM772 1266v176h127v-176h-127zM1061 0v1030h139v-1030h-139z" />
<glyph unicode="&#x524;" horiz-adv-x="1566" d="M207 0v1440h1098v-1313h188v-414h-131v287h-199v1313h-815v-1313h-141z" />
<glyph unicode="&#x525;" horiz-adv-x="1243" d="M166 0v1030h862v-907h162v-369h-131v246h-170v907h-584v-907h-139z" />
<glyph unicode="&#x1e9e;" horiz-adv-x="1363" d="M195 0v1057q0 164 110.5 273.5t274.5 109.5h622v-99l-321 -456l-54 -72v-4h64q158 -6 264.5 -123t106.5 -276q0 -170 -120 -290t-290 -120h-330v127h320q119 0 196.5 83t77.5 199.5t-76.5 198.5t-193.5 82h-184v101l276 401q27 41 50.5 70.5t31.5 40.5l10 10v4 q-14 -4 -88 -4h-352q-111 0 -181.5 -73t-70.5 -181v-1059h-143z" />
<glyph unicode="&#x2000;" horiz-adv-x="904" />
<glyph unicode="&#x2001;" horiz-adv-x="1808" />
<glyph unicode="&#x2002;" horiz-adv-x="904" />
<glyph unicode="&#x2003;" horiz-adv-x="1808" />
<glyph unicode="&#x2004;" horiz-adv-x="602" />
<glyph unicode="&#x2005;" horiz-adv-x="452" />
<glyph unicode="&#x2006;" horiz-adv-x="301" />
<glyph unicode="&#x2007;" horiz-adv-x="301" />
<glyph unicode="&#x2008;" horiz-adv-x="226" />
<glyph unicode="&#x2009;" horiz-adv-x="24" />
<glyph unicode="&#x200a;" horiz-adv-x="100" />
<glyph unicode="&#x2010;" horiz-adv-x="884" d="M152 518v127h581v-127h-581z" />
<glyph unicode="&#x2011;" horiz-adv-x="884" d="M152 518v127h581v-127h-581z" />
<glyph unicode="&#x2012;" horiz-adv-x="884" d="M152 518v127h581v-127h-581z" />
<glyph unicode="&#x2013;" horiz-adv-x="1329" d="M154 522v119h1024v-119h-1024z" />
<glyph unicode="&#x2014;" horiz-adv-x="1738" d="M154 522v119h1433v-119h-1433z" />
<glyph unicode="&#x2018;" horiz-adv-x="487" d="M137 1108l117 350h111l-80 -350h-148z" />
<glyph unicode="&#x2019;" horiz-adv-x="479" d="M143 1108l80 350h148l-115 -350h-113z" />
<glyph unicode="&#x201a;" horiz-adv-x="512" d="M121 -184l80 352h143l-115 -352h-108z" />
<glyph unicode="&#x201c;" horiz-adv-x="733" d="M137 1108l117 350h111l-80 -350h-148zM383 1108l115 350h112l-80 -350h-147z" />
<glyph unicode="&#x201d;" horiz-adv-x="722" d="M143 1108l80 350h148l-115 -350h-113zM389 1108l78 350h147l-114 -350h-111z" />
<glyph unicode="&#x201e;" horiz-adv-x="755" d="M121 -184l80 352h143l-115 -352h-108zM362 -184l80 352h146l-115 -352h-111z" />
<glyph unicode="&#x2020;" horiz-adv-x="821" d="M98 911v119h240v410h137v-410h248v-119h-248v-1013h-137v1013h-240z" />
<glyph unicode="&#x2021;" horiz-adv-x="874" d="M125 367v118h240v426h-240v119h240v410h137v-410h248v-119h-248v-426h248v-118h-248v-469h-137v469h-240z" />
<glyph unicode="&#x2022;" horiz-adv-x="940" d="M178 596q0 121 86 207t207 86t206 -86t85 -207t-85 -207t-206 -86t-207 86t-86 207z" />
<glyph unicode="&#x2026;" horiz-adv-x="1431" d="M152 0v170h163v-170h-163zM633 0v170h164v-170h-164zM1114 0v170h166v-170h-166z" />
<glyph unicode="&#x202f;" horiz-adv-x="361" />
<glyph unicode="&#x2030;" horiz-adv-x="2146" d="M115 1180q0 117 84 200.5t202.5 83.5t203.5 -84t85 -200q0 -119 -84 -202t-205 -83q-119 0 -202.5 83t-83.5 202zM127 0l1096 1440h147l-1096 -1440h-147zM236 1180q0 -72 48 -121t117.5 -49t117.5 49t48 121q0 70 -48 120t-117.5 50t-117.5 -50.5t-48 -119.5zM807 258 q0 119 84 203t202.5 84t203.5 -84t85 -203q0 -117 -85 -200t-203.5 -83t-202.5 83t-84 200zM928 260q0 -72 48 -121t117.5 -49t118 49t48.5 121q0 70 -48.5 120t-118 50t-117.5 -50t-48 -120zM1495 258q0 119 84 203t203 84t204 -84t85 -203q0 -117 -85 -200t-204 -83 t-203 83t-84 200zM1618 260q0 -72 47 -121t116.5 -49t119 49t49.5 121q0 70 -49.5 120t-119 50t-116.5 -50t-47 -120z" />
<glyph unicode="&#x2039;" horiz-adv-x="708" d="M102 578l336 421h152l-336 -421l336 -420h-152z" />
<glyph unicode="&#x203a;" horiz-adv-x="708" d="M119 158l336 420l-336 421h151l336 -421l-336 -420h-151z" />
<glyph unicode="&#x2044;" horiz-adv-x="325" d="M-240 0l689 1440h118l-686 -1440h-121z" />
<glyph unicode="&#x205f;" horiz-adv-x="452" />
<glyph unicode="&#x2070;" d="M78 1313q0 467 311 467q313 0 313 -467t-313 -467q-311 0 -311 467zM193 1312.5q0 -360.5 196.5 -360.5t196.5 360.5t-196.5 360.5t-196.5 -360.5z" />
<glyph unicode="&#x2074;" d="M45 1100v78l434 581h111v-557h133v-102h-133v-234h-113v234h-432zM184 1202h293v279l8 127h-4q-33 -55 -67 -101l-230 -301v-4z" />
<glyph unicode="&#x2075;" d="M88 987l78 72q29 -47 83 -77t113 -30q86 0 146.5 56.5t60.5 138.5t-61.5 139t-147.5 57q-88 0 -159 -49l-70 27l51 438h447v-104h-353l-18 -160l-12 -76h4q63 25 125 25q133 0 221 -87t88 -210q0 -125 -91 -213t-226 -88q-174 0 -279 141z" />
<glyph unicode="&#x2076;" d="M88 1257q0 123 38 238t131 200t222 85q90 0 180 -43l-45 -97q-61 33 -133 33q-109 0 -179.5 -91t-88.5 -224h4q31 37 87 59.5t108 22.5q129 0 209.5 -80t80.5 -209q0 -141 -81.5 -223t-208.5 -82q-145 0 -234.5 114.5t-89.5 296.5zM207 1210q0 -92 58.5 -175t146.5 -83 q82 0 129 56.5t47 142.5q0 88 -51.5 141.5t-135.5 53.5q-76 0 -135 -43t-59 -93z" />
<glyph unicode="&#x2077;" d="M104 1655v104h594v-78l-432 -815h-125l357 672l67 117v4q-39 -4 -102 -4h-359z" />
<glyph unicode="&#x2078;" d="M78 1120q0 141 151 238q-106 74 -106 190q0 109 82 170.5t194.5 61.5t195.5 -63.5t83 -174.5q0 -121 -117 -237q133 -82 133 -203q0 -109 -89 -182.5t-216 -73.5q-125 0 -218 73.5t-93 200.5zM190 1124q0 -80 59.5 -128t139.5 -48q74 0 132.5 44t58.5 112 q0 33 -14.5 58.5t-46.5 47t-58.5 36t-75.5 36t-74 33.5q-121 -84 -121 -191zM236 1544q0 -23 6 -41t21.5 -35.5t28.5 -29t40.5 -26.5t43 -22.5t50.5 -22.5l49 -21q92 100 92 192q0 66 -50 101.5t-120 35.5q-68 0 -114.5 -33.5t-46.5 -97.5z" />
<glyph unicode="&#x2079;" d="M78 1475q0 139 82 222t209 83q145 0 234 -116t89 -298q0 -123 -38 -236.5t-131 -198.5t-224 -85q-102 0 -178 43l43 96q61 -33 133 -33q109 0 179.5 90.5t90.5 223.5h-4q-33 -35 -88 -58.5t-108 -23.5q-127 0 -208 81t-81 210zM190 1472.5q0 -86.5 52.5 -140.5t134.5 -54 q78 0 136 43t58 94q0 92 -58 175t-144 83q-84 0 -131.5 -57t-47.5 -143.5z" />
<glyph unicode="&#x2080;" d="M78 125q0 467 311 467q313 0 313 -467t-313 -467q-311 0 -311 467zM193 124.5q0 -360.5 196.5 -360.5t196.5 360.5t-196.5 360.5t-196.5 -360.5z" />
<glyph unicode="&#x2081;" d="M158 369l202 202h107v-790h188v-103h-495v103h194v592l2 49h-2q-8 -16 -43 -49l-82 -80z" />
<glyph unicode="&#x2082;" d="M98 -258q0 94 46 168t110.5 121t130.5 88t112 93t46 116q0 66 -48.5 111.5t-119.5 45.5q-100 0 -185 -100l-71 72q39 57 109.5 96t148.5 39q127 0 203.5 -74t76.5 -186q0 -84 -44 -149.5t-107.5 -109.5t-127 -83t-110.5 -92.5t-49 -116.5h455v-103h-570q-6 35 -6 64z" />
<glyph unicode="&#x2083;" d="M78 -207l72 78q31 -43 90 -75t129 -32q74 0 132 52.5t58 130.5t-60.5 125t-140.5 47h-67l-29 61l203 238l51 51v4q-37 -6 -76 -6h-313v104h537v-75l-244 -285q102 -10 179 -75.5t77 -188.5q0 -119 -88 -204t-217 -85q-84 0 -164 35t-129 100z" />
<glyph unicode="&#x2084;" d="M45 -10l434 581h111v-557h133v-102h-133v-234h-113v234h-432v78zM184 14h293v279l8 127h-4q-33 -55 -67 -101l-230 -301v-4z" />
<glyph unicode="&#x2085;" d="M88 -201l78 72q29 -47 83 -77t113 -30q86 0 146.5 56.5t60.5 138.5t-61.5 139.5t-147.5 57.5q-88 0 -159 -50l-70 27l51 438h447v-104h-353l-18 -160l-12 -76h4q63 25 125 25q133 0 221 -87t88 -210q0 -125 -91 -213t-226 -88q-174 0 -279 141z" />
<glyph unicode="&#x2086;" d="M88 70q0 123 38 237.5t131 199.5t222 85q90 0 180 -43l-45 -96q-61 33 -133 32q-109 0 -179.5 -91t-88.5 -224h4q31 37 87 59.5t108 22.5q129 0 209.5 -80t80.5 -209q0 -141 -81.5 -223t-208.5 -82q-145 0 -234.5 114.5t-89.5 297.5zM207 23q0 -92 58.5 -175.5 t146.5 -83.5q82 0 129 56.5t47 142.5q0 88 -51.5 141.5t-135.5 53.5q-76 0 -135 -43t-59 -92z" />
<glyph unicode="&#x2087;" d="M104 467v104h594v-77l-432 -816h-125l357 672l67 117v4q-39 -4 -102 -4h-359z" />
<glyph unicode="&#x2088;" d="M78 -66q0 141 151 238q-106 74 -106 190q0 109 82 170.5t194.5 61.5t195.5 -63.5t83 -174.5q0 -121 -117 -237q133 -82 133 -203q0 -109 -89 -182.5t-216 -73.5q-125 0 -218 73.5t-93 200.5zM190 -61q0 -80 59.5 -128.5t139.5 -48.5q74 0 132.5 44t58.5 112 q0 33 -14.5 58.5t-46.5 47t-58.5 36t-75.5 36t-74 33.5q-121 -84 -121 -190zM236 358q0 -23 6 -41t21.5 -35.5t28.5 -28.5t40.5 -26.5t43 -22.5t50.5 -22.5t49 -21.5q92 100 92 192q0 66 -50 101.5t-120 35.5q-68 0 -114.5 -33.5t-46.5 -97.5z" />
<glyph unicode="&#x2089;" d="M78 287q0 139 82 222t209 83q145 0 234 -116t89 -298q0 -123 -38 -236.5t-131 -198.5t-224 -85q-102 0 -178 43l43 96q61 -33 133 -33q109 0 179.5 90.5t90.5 223.5h-4q-33 -35 -88 -58.5t-108 -23.5q-127 0 -208 81t-81 210zM190 285q0 -86 52.5 -140.5t134.5 -54.5 q78 0 136 43t58 94q0 92 -58 175t-144 83q-84 0 -131.5 -57t-47.5 -143z" />
<glyph unicode="&#x20ac;" horiz-adv-x="1163" d="M55 545v104h111q-12 78 2 166h-113v105h131q61 242 250 393t438 151q98 0 193 -24l-33 -133q-74 23 -162 22q-195 0 -338 -111.5t-196 -297.5h627l-23 -105h-627q-12 -78 -2 -166h598l-18 -104h-557q47 -195 193.5 -313.5t344.5 -118.5q102 0 183 26l33 -133 q-96 -31 -216 -31q-260 0 -448 158t-244 412h-127z" />
<glyph unicode="&#x2116;" horiz-adv-x="2121" d="M193 0v1440h139l735 -1037l117 -194h4q-10 119 -10 194v1037h141v-1440h-137l-736 1036l-118 195h-4q12 -119 12 -195v-1036h-143zM1475 973q0 113 78.5 190.5t191.5 77.5q115 0 192.5 -78t77.5 -190q0 -115 -77.5 -194t-192.5 -79q-113 0 -191.5 79t-78.5 194zM1493 453 v108h502v-108h-502zM1589 973q0 -70 45 -117t110.5 -47t111 47t45.5 117q0 68 -45.5 112.5t-111 44.5t-110.5 -44.5t-45 -112.5z" />
<glyph unicode="&#x2122;" horiz-adv-x="2007" d="M131 1333v107h756v-107h-322v-790h-114v790h-320zM963 543l71 897h105l237 -514l29 -84h4q10 45 27 84l237 514h105l71 -897h-114l-49 608l2 59h-5l-229 -499h-96l-230 499h-4l2 -59l-49 -608h-114z" />
<glyph unicode="&#x2212;" horiz-adv-x="1163" d="M63 522v119h1037v-119h-1037z" />
<glyph unicode="&#x221e;" horiz-adv-x="962" d="M127 715q0 147 103.5 249.5t251 102.5t251 -102.5t103.5 -249.5q0 -145 -104 -250t-251 -105q-145 0 -249.5 104.5t-104.5 250.5z" />
<glyph unicode="&#x2248;" horiz-adv-x="1163" d="M80 391q141 141 299 141q102 0 220 -71.5t185 -71.5q125 0 232 115l67 -90q-137 -141 -299 -142q-102 0 -220 72t-185 72q-123 0 -232 -113zM80 748q141 141 299 141q102 0 220 -72t185 -72q125 0 232 115l67 -90q-137 -141 -299 -141q-102 0 -220 71.5t-185 71.5 q-121 0 -232 -115z" />
<glyph unicode="&#x2260;" horiz-adv-x="1163" d="M102 344v119h326l176 237h-502v119h586l174 238l86 -60l-133 -178h242v-119h-324l-176 -237h500v-119h-582l-172 -233l-84 59l127 174h-244z" />
<glyph unicode="&#x2264;" horiz-adv-x="1163" d="M104 530v103l926 414v-138l-754 -325v-4l754 -326v-137zM106 -213h924v-119h-924v119z" />
<glyph unicode="&#x2265;" horiz-adv-x="1163" d="M131 -213h924v-119h-924v119zM133 117v137l752 326v4l-752 325v138l926 -414v-103z" />
<glyph unicode="&#x25fc;" horiz-adv-x="1034" d="M0 0v1034h1034v-1034h-1034z" />
<glyph unicode="&#xf6c3;" horiz-adv-x="686" d="M260 -414q39 98 39 166q0 58 -23 119h134q12 -55 12 -100q0 -80 -47 -185h-115z" />
<glyph unicode="&#xf6d4;" horiz-adv-x="624" d="M41 1749v35h121v-31q0 -66 44 -103.5t105.5 -37.5t106.5 38t45 105v29h119v-35q0 -111 -80 -176.5t-190.5 -65.5t-190.5 65.5t-80 176.5z" />
<glyph unicode="&#xf8ff;" horiz-adv-x="2314" d="M86 449v569l258 145v310l543 290l274 -145l271 145l542 -290v-310l254 -145v-569l-254 -148v-311l-542 -289l-271 145l-274 -145l-543 289v311zM193 477l233 -131v-285l487 -258l248 136l242 -136l487 258v285l234 131v510l-234 135v279l-487 258l-242 -131l-248 131 l-487 -258v-279l-233 -135v-510zM293 502v461l203 118v252l440 234l225 -121l219 121l439 -234v-252l204 -118v-461l-204 -123v-248l-439 -233l-219 118l-225 -118l-440 233v248zM782 1128h133v-942h89v467h466v82h-466v393h407q35 0 47 -13t12 -46v-86h86v111 q0 61 -26.5 88.5t-91.5 27.5h-656v-82z" />
<glyph horiz-adv-x="1163" d="M86 721q0 162 25.5 292t82 234.5t154.5 160.5t234 56q180 0 294.5 -102t158.5 -262t44 -379q0 -164 -25.5 -294t-82 -233.5t-154.5 -161t-235 -57.5q-262 0 -379 203t-117 543zM233 721q0 -287 79.5 -449.5t269.5 -162.5q131 0 211.5 83.5t109.5 213t29 315.5 q0 135 -16.5 240.5t-55.5 190.5t-108.5 131t-169.5 46q-348 0 -349 -608z" />
<glyph horiz-adv-x="1163" d="M213 0v127h324v1057l2 80h-4q-14 -29 -72 -86l-154 -152l-90 90l326 324h131v-1313h317v-127h-780z" />
<glyph horiz-adv-x="1163" d="M121 92q0 102 41 191.5t105.5 154t144.5 122.5t158.5 111.5t143 108t105.5 125t41 148.5q0 121 -83 198.5t-216 77.5q-98 0 -183 -54t-140 -142l-105 71q63 115 179 187.5t257 72.5q199 0 319 -114.5t120 -288.5q0 -98 -40 -183t-104.5 -147.5t-142.5 -119t-156 -108.5 t-142.5 -106.5t-105.5 -123t-41 -146.5h754v-127h-901q-8 66 -8 92z" />
<glyph horiz-adv-x="1163" d="M104 172l89 109q66 -72 164 -120t204 -48q133 0 230.5 87t97.5 222q0 145 -105.5 226t-255.5 81h-100l-35 84l361 422l75 80v4q-41 -6 -116 -6h-541v127h842v-94l-428 -496q74 -4 147.5 -27.5t143 -69.5t113.5 -131t44 -196q0 -186 -135 -318.5t-338 -132.5 q-125 0 -246 52.5t-211 144.5z" />
<glyph horiz-adv-x="1163" d="M43 399v93l707 948h153v-918h205v-123h-205v-399h-141v399h-719zM213 522h549v604l8 138h-4q-35 -59 -72 -111l-481 -627v-4z" />
<glyph horiz-adv-x="1163" d="M121 178l92 101q115 -166 324 -166q152 0 255 95t103 241q0 147 -104.5 243t-260.5 96q-145 0 -262 -79l-90 32l78 699h696v-127h-571l-43 -369l-12 -82h4q88 55 217 56q213 0 354 -136.5t141 -332.5q0 -199 -144 -336.5t-355 -137.5q-125 0 -237.5 53.5t-184.5 149.5z " />
<glyph horiz-adv-x="1163" d="M104 649q0 141 37 280.5t111 261.5t198.5 197.5t284.5 75.5q147 0 266 -59l-53 -125q-86 49 -213 49q-207 0 -330.5 -171t-144.5 -404h4q51 76 151.5 122t213.5 46q197 0 321.5 -131.5t124.5 -339.5q0 -213 -129 -344.5t-321 -131.5q-231 0 -376 190.5t-145 483.5z M258 532q0 -82 40 -176t130 -170.5t205 -76.5q133 0 216 97t83 249q0 156 -89 248t-237 92q-137 0 -242.5 -75t-105.5 -188z" />
<glyph horiz-adv-x="1163" d="M131 1313v127h936v-99l-668 -1341h-147l582 1180l77 133v4q-35 -4 -106 -4h-674z" />
<glyph horiz-adv-x="1163" d="M92 406q0 82 29 154.5t74 123.5t77.5 77.5t63.5 47.5q-174 115 -174 287q0 154 114.5 261t321.5 107q199 0 319.5 -103.5t120.5 -268.5q0 -88 -41 -179.5t-76.5 -136.5t-68.5 -78q205 -119 205 -307q0 -172 -135.5 -294t-341.5 -122q-201 0 -344.5 120.5t-143.5 310.5z M240 416q0 -135 102 -222.5t236 -87.5q131 0 232 81t101 202q0 55 -25.5 100.5t-79.5 82t-100.5 59t-130 57.5t-124.5 55q-211 -130 -211 -327zM305 1098q0 -45 19.5 -85t46 -66.5t77 -56.5t86 -46.5t102 -44t99.5 -43.5q160 160 160 325q0 117 -83 184.5t-216 67.5 t-212 -67.5t-79 -167.5z" />
<glyph horiz-adv-x="1163" d="M86 985q0 217 129 348t324 131q231 0 374.5 -190.5t143.5 -485.5q0 -141 -38 -279t-110.5 -260t-198.5 -198t-286 -76q-143 1 -264 60l55 125q94 -51 209 -51q143 0 250.5 88t161 214t67.5 275h-4q-53 -76 -153.5 -122t-210.5 -46q-199 0 -324 130t-125 337zM229 985 q0 -154 89.5 -247t236.5 -93q141 0 245.5 78t104.5 168q0 156 -106.5 297t-257.5 141q-145 0 -228.5 -96t-83.5 -248z" />
<glyph horiz-adv-x="884" d="M152 651v125h581v-125h-581z" />
<glyph horiz-adv-x="569" d="M119 752q0 426 229 804h131q-231 -387 -231 -806q0 -471 231 -883h-131q-229 399 -229 885z" />
<glyph horiz-adv-x="569" d="M90 -133q231 416 232 883q0 416 -232 806h129q231 -377 232 -804q0 -487 -232 -885h-129z" />
<glyph horiz-adv-x="577" d="M188 -133v1689h279v-114h-150v-1460h150v-115h-279z" />
<glyph horiz-adv-x="577" d="M111 -18h149v1460h-149v114h278v-1689h-278v115z" />
<glyph horiz-adv-x="696" d="M90 659v127q82 16 128 78t46 158v168q0 96 24.5 168t58.5 108.5t80 58t78 26.5t64 5h31v-114h-18q-27 0 -52.5 -7.5t-60.5 -31t-55.5 -78.5t-20.5 -139v-201q0 -88 -43 -157.5t-121 -102.5v-4q164 -63 164 -260v-225q0 -84 20.5 -139.5t55.5 -79t60.5 -30.5t52.5 -7h18 v-115q-12 -2 -31 -2q-33 0 -64.5 5t-77.5 27.5t-80 59.5t-58.5 108.5t-24.5 167.5v195q0 92 -44 154.5t-130 78.5z" />
<glyph horiz-adv-x="696" d="M96 -20h19q27 0 52.5 7t59 30.5t55 79t21.5 139.5v225q0 94 43 162.5t121 97.5v4q-72 27 -118 97.5t-46 162.5v201q0 84 -21.5 139t-55 78.5t-59.5 31t-52 7.5h-19v114h31q33 0 64.5 -5t77.5 -26.5t80 -58t58.5 -108.5t24.5 -168v-168q0 -92 45 -156.5t129 -79.5v-127 q-84 -14 -129 -78.5t-45 -154.5v-195q0 -96 -24.5 -167.5t-58.5 -108.5t-80 -59.5t-77.5 -27.5t-64.5 -5l-31 2v115z" />
<glyph horiz-adv-x="1593" d="M123 717q0 313 213 533t514 220q260 0 381 -110.5t121 -278.5v-645h145v-114h-551q-174 0 -290.5 115.5t-116.5 277.5t116.5 277.5t290.5 115.5h266q-4 104 -93 173t-259 69q-250 0 -423 -186.5t-173 -446.5q0 -264 173 -445.5t433 -181.5v-123q-317 0 -532 217.5 t-215 532.5zM682 717q0 -117 80 -199t196 -82h254v563h-249q-119 0 -200 -82.5t-81 -199.5z" />
<glyph horiz-adv-x="1077" d="M102 700l336 422h152l-336 -422l336 -419h-152zM471 700l336 422h151l-335 -422l335 -419h-151z" />
<glyph horiz-adv-x="1077" d="M119 281l336 419l-336 422h151l336 -422l-336 -419h-151zM487 281l336 419l-336 422h152l336 -422l-336 -419h-152z" />
<glyph horiz-adv-x="710" d="M102 700l336 422h152l-336 -422l336 -419h-152z" />
<glyph horiz-adv-x="710" d="M119 281l336 419l-336 422h151l336 -422l-336 -419h-151z" />
<glyph horiz-adv-x="1327" d="M152 645v119h1024v-119h-1024z" />
<glyph horiz-adv-x="1736" d="M152 645v119h1433v-119h-1433z" />
<glyph horiz-adv-x="462" d="M152 627v164h157v-164h-157z" />
<glyph horiz-adv-x="921" d="M94 334q0 94 38 170t92.5 126t107.5 97t91 109.5t38 136.5v88h137v-92q0 -90 -37 -163t-89 -122t-104.5 -97t-89 -110.5t-36.5 -136.5q0 -100 75.5 -168t192.5 -68q133 0 246 86l78 -102q-57 -51 -147.5 -84t-182.5 -33q-176 0 -293 102.5t-117 260.5zM449 1276v162h161 v-162h-161z" />
<glyph horiz-adv-x="532" d="M184 1276v162h160v-162h-160zM195 -2l6 1063h131l6 -1063h-143z" />
<glyph horiz-adv-x="935" d="M176 719q0 121 86 207t207 86t206 -86t85 -207t-85 -207t-206 -86t-207 86t-86 207z" />
<glyph horiz-adv-x="1196" d="M117 553q0 238 126 411t355 173t355 -173t126 -411t-125 -408t-356 -170t-356 171t-125 407zM260 557q0 -186 88 -320.5t250 -134.5t250 134.5t88 318.5q0 186 -88 321.5t-250 135.5t-250 -135.5t-88 -319.5z" />
<glyph horiz-adv-x="958" d="M104 883l369 229h129v-989h285v-123h-742v123h320v737l2 109h-4q-33 -27 -80 -56l-213 -129z" />
<glyph horiz-adv-x="1095" d="M115 946q66 78 179.5 134.5t237.5 56.5q188 0 295 -101.5t107 -240.5q0 -172 -138.5 -326t-443.5 -346v-4q41 4 117 4h518v-123h-856v100q346 231 503 384t157 294q0 115 -78 173.5t-197 58.5q-170 0 -321 -160z" />
<glyph horiz-adv-x="1085" d="M82 -78l84 96q139 -154 338 -153q133 0 230 80t97 211q0 139 -106.5 212.5t-253.5 73.5h-100l-35 84l352 396q16 18 33.5 34.5t28.5 24.5l10 8v4q-41 -4 -117 -4h-475v123h786v-86l-430 -469q76 -4 147.5 -24.5t143.5 -62.5t116 -122t44 -186q0 -186 -134 -305t-337 -119 q-119 0 -230.5 48t-191.5 136z" />
<glyph horiz-adv-x="1198" d="M70 76v92l675 944h152v-913h221v-123h-221v-314h-139v314h-688zM238 199h520v604l8 137h-4q-35 -70 -72 -121z" />
<glyph horiz-adv-x="1095" d="M98 -57l86 90q51 -70 138.5 -111t177.5 -41q145 0 250.5 84t105.5 229.5t-103.5 227.5t-246.5 82q-66 0 -131.5 -18.5t-98.5 -34.5l-32 -19l-86 31l75 649h674v-123h-553l-41 -338l-12 -76h4q94 49 223 50q199 0 335 -114t136 -310q0 -203 -140 -324t-351 -121 q-119 0 -229.5 48.5t-180.5 138.5z" />
<glyph horiz-adv-x="1204" d="M127 594q0 135 37 268t109.5 250t197.5 189.5t283 72.5q141 0 264 -55l-53 -117q-94 47 -209 47q-209 0 -334 -164.5t-146 -390.5h5q53 78 152 122t214 44q197 0 322 -121t125 -311q0 -205 -129 -329t-322 -124q-231 0 -373.5 173.5t-142.5 445.5zM276 508 q0 -145 104.5 -275.5t260.5 -130.5q145 0 227 90.5t82 235.5q0 139 -89 225t-236 86q-139 0 -244 -73.5t-105 -157.5z" />
<glyph horiz-adv-x="1038" d="M82 989v123h907v-92l-637 -1258h-147l555 1104l71 123v4q-35 -4 -106 -4h-643z" />
<glyph horiz-adv-x="1196" d="M121 387q0 72 28.5 138.5t73.5 113.5t78 72.5t64 44.5q-178 109 -179 276q0 141 112 241.5t312 100.5q195 0 312.5 -96t117.5 -254q0 -184 -182 -367q207 -117 207 -290q0 -162 -134 -277t-333 -115t-338 113t-139 299zM262 393q0 -131 100.5 -212t235.5 -81 q127 0 225.5 76t98.5 191q0 51 -24 92t-77 74.5t-96 55t-125 54.5t-121 51q-217 -131 -217 -301zM326 1030q0 -43 19.5 -79t43 -60.5t73.5 -53t81.5 -42t100 -41t97.5 -39.5q160 139 160 303q0 106 -82 168.5t-211 62.5t-205.5 -62.5t-76.5 -156.5z" />
<glyph horiz-adv-x="1169" d="M96 684q0 205 129 329t322 124q231 0 373.5 -173t142.5 -446q0 -135 -37 -268t-109.5 -250t-197.5 -189.5t-283 -72.5q-147 0 -264 55l53 117q84 -45 209 -45q209 0 334 164t145 389h-4q-53 -78 -153.5 -122t-212.5 -44q-197 0 -322 121t-125 311zM240 686 q0 -141 89 -227t236 -86q139 0 243.5 72.5t104.5 158.5q0 145 -104 276.5t-260 131.5q-143 0 -226 -90.5t-83 -235.5z" />
<glyph horiz-adv-x="1163" d="M100 553q0 238 126 411t355.5 173t355.5 -173t126 -411t-125 -408t-356.5 -170t-356.5 171t-125 407zM244 557q0 -186 88 -320.5t249.5 -134.5t250 134.5t88.5 318.5q0 186 -88.5 321.5t-250 135.5t-249.5 -135.5t-88 -319.5z" />
<glyph horiz-adv-x="1163" d="M205 883l368 229h129v-989h285v-123h-741v123h319v737l2 109h-4q-33 -27 -80 -56l-213 -129z" />
<glyph horiz-adv-x="1163" d="M147 946q66 78 179.5 134.5t238.5 56.5q188 0 295 -101.5t107 -240.5q0 -172 -138.5 -326t-443.5 -346v-4q41 4 117 4h518v-123h-856v100q346 231 502.5 384t156.5 294q0 115 -77.5 173.5t-196.5 58.5q-170 0 -322 -160z" />
<glyph horiz-adv-x="1163" d="M121 -78l84 96q139 -154 338 -153q133 0 230 80t97 211q0 139 -106.5 212.5t-253.5 73.5h-100l-35 84l352 396q16 18 33.5 34.5t27.5 24.5l11 8v4q-41 -4 -117 -4h-475v123h786v-86l-430 -469q76 -4 147.5 -24.5t143.5 -62.5t116 -122t44 -186q0 -186 -134.5 -305 t-336.5 -119q-119 0 -230.5 48t-191.5 136z" />
<glyph horiz-adv-x="1163" d="M53 76v92l676 944h152v-913h221v-123h-221v-314h-140v314h-688zM221 199h520v604l9 137h-5q-35 -70 -71 -121z" />
<glyph horiz-adv-x="1163" d="M131 -57l86 90q51 -70 138 -111t177 -41q145 0 251 84t106 229.5t-103.5 227.5t-246.5 82q-66 0 -131.5 -18.5t-98.5 -34.5l-33 -19l-86 31l76 649h674v-123h-553l-41 -338l-12 -76h4q94 49 223 50q199 0 335 -114t136 -310q0 -203 -140 -324t-351 -121 q-119 0 -229.5 48.5t-180.5 138.5z" />
<glyph horiz-adv-x="1163" d="M109 594q0 135 36.5 268t109.5 250t198 189.5t282 72.5q141 0 264 -55l-53 -117q-94 47 -209 47q-209 0 -333.5 -164.5t-145.5 -390.5h4q53 78 152.5 122t214.5 44q197 0 321.5 -121t124.5 -311q0 -205 -129 -329t-321 -124q-231 0 -373.5 173.5t-142.5 445.5zM258 508 q0 -145 104.5 -275.5t260.5 -130.5q145 0 227 90.5t82 235.5q0 139 -89 225t-237 86q-139 0 -243.5 -73.5t-104.5 -157.5z" />
<glyph horiz-adv-x="1163" d="M143 989v123h908v-92l-637 -1258h-148l555 1104l72 123v4q-35 -4 -107 -4h-643z" />
<glyph horiz-adv-x="1163" d="M106 387q0 72 29 138.5t74 113.5t77.5 72.5t63.5 44.5q-178 109 -178 276q0 141 111.5 241.5t312.5 100.5q195 0 312.5 -96t117.5 -254q0 -184 -182 -367q207 -117 207 -290q0 -162 -134.5 -277t-333 -115t-338 113t-139.5 299zM248 393q0 -131 100.5 -212t235.5 -81 q127 0 225 76t98 191q0 51 -23.5 92t-76.5 74.5t-96 55t-125 54.5t-121 51q-217 -131 -217 -301zM311 1030q0 -43 19.5 -79t43 -60.5t74 -53t82 -42t100 -41t97.5 -39.5q160 139 160 303q0 106 -82 168.5t-211 62.5t-206 -62.5t-77 -156.5z" />
<glyph horiz-adv-x="1163" d="M94 684q0 205 129 329t322 124q231 0 373.5 -173t142.5 -446q0 -135 -37 -268t-109.5 -250t-197.5 -189.5t-283 -72.5q-147 0 -264 55l53 117q84 -45 209 -45q209 0 334 164t145 389h-4q-53 -78 -153.5 -122t-212.5 -44q-197 0 -322 121t-125 311zM238 686 q0 -141 89 -227t236 -86q139 0 243.5 72.5t104.5 158.5q0 145 -104.5 276.5t-259.5 131.5q-143 0 -226 -90.5t-83 -235.5z" />
<glyph horiz-adv-x="1036" d="M94 174l86 100q57 -72 153.5 -121t198.5 -49q106 0 178 53.5t72 145.5q0 72 -65.5 124t-158.5 87t-185 75t-157.5 112.5t-65.5 177.5q0 139 94 222t239 99v174h117v-174q190 -18 297 -125l-70 -110q-109 109 -286 108q-104 0 -175 -47t-71 -145q0 -72 65.5 -124 t157.5 -86t185.5 -74t159 -113.5t65.5 -180.5q0 -133 -97.5 -223t-250.5 -100v-191h-115v191q-106 12 -205.5 64t-165.5 130z" />
<glyph horiz-adv-x="1132" d="M100 610.5q0 198.5 124 333.5t317 160v176h116v-172q211 -16 347 -158l-70 -108q-49 63 -135 101t-174 38q-164 0 -273.5 -103.5t-109.5 -265t109.5 -266t273.5 -104.5q186 0 309 139l67 -109q-57 -68 -152 -110.5t-192 -48.5v-166h-116v170q-195 25 -318 160t-123 333.5 z" />
<glyph horiz-adv-x="1206" d="M111 0v123h131v379h-92v106h92v217q0 160 122.5 268.5t311.5 108.5q193 0 336 -106l-78 -107q-106 84 -258 84q-135 0 -215 -74.5t-80 -181.5v-209h473v-106h-473v-379h694v-123h-964z" />
<glyph horiz-adv-x="1232" d="M113 1182h161l252 -428l88 -170h4q45 94 89 170l254 428h161l-307 -504h213v-105h-274l-66 -108v-55h340v-105h-340v-305h-141v305h-342v105h342v55l-66 108h-276v105h215z" />
<glyph horiz-adv-x="1015" d="M-45 -127q66 -10 129 -10q37 0 71.5 9t76.5 33.5t70 82t36 139.5l45 524h-182v117h192l21 227q8 96 40.5 169t73.5 112t95.5 62.5t95.5 30.5t84 7q37 0 79 -4t64 -8l25 -4v-123q-92 14 -166 14q-37 0 -72 -9t-76 -33.5t-68.5 -81t-35.5 -138.5l-23 -221h258v-117h-266 l-47 -530q-8 -98 -41 -171t-74 -112t-95 -63.5t-94 -30.5t-83 -6l-133 12v123z" />
<glyph horiz-adv-x="1239" d="M111 416v100h133q-8 61 -2 139h-131v101h147q49 195 208 320.5t417 125.5q100 0 192 -24l-33 -121q-72 20 -161 20q-188 0 -308 -90t-165 -231h569l-23 -101h-571q-12 -70 2 -139h547l-21 -100h-497q45 -139 165.5 -226.5t305.5 -87.5q96 0 178 27l31 -123 q-94 -31 -211 -31q-246 0 -406 124t-215 317h-151z" />
<glyph d="M78 995q0 467 311 467q313 0 313 -467t-313 -467q-311 0 -311 467zM193 995.5q0 -360.5 196.5 -360.5t196.5 360.5t-196.5 360.5t-196.5 -360.5z" />
<glyph d="M158 1239l202 203h107v-791h188v-102h-495v102h194v592l2 49h-2q-8 -16 -43 -49l-82 -80z" />
<glyph d="M98 612q0 94 46 168t110.5 121t130.5 88t112 93.5t46 115.5q0 66 -48.5 112t-119.5 46q-100 0 -185 -101l-71 72q39 57 109.5 96t148.5 39q127 0 203.5 -73.5t76.5 -186.5q0 -84 -44 -149.5t-107.5 -109.5t-127 -83t-110.5 -92t-49 -117h455v-102h-570q-6 35 -6 63z" />
<glyph d="M78 664l72 77q31 -43 90 -74.5t129 -31.5q74 0 132 52t58 130t-60.5 125t-140.5 47h-67l-29 62l203 237l51 51v4q-37 -6 -76 -6h-313v105h537v-76l-244 -285q102 -10 179 -75.5t77 -188.5q0 -119 -88 -204t-217 -85q-84 0 -164 35t-129 101z" />
<glyph d="M45 782v78l434 582h111v-557h133v-103h-133v-233h-113v233h-432zM184 885h293v278l8 127h-4q-33 -55 -67 -100l-230 -301v-4z" />
<glyph d="M88 670l78 71q29 -47 83 -76.5t113 -29.5q86 0 146.5 56.5t60.5 138t-61.5 139t-147.5 57.5q-88 0 -159 -49l-70 27l51 438h447v-105h-353l-18 -159l-12 -76h4q63 25 125 24q133 0 221 -87t88 -210q0 -125 -91 -213t-226 -88q-174 0 -279 142z" />
<glyph d="M88 940q0 123 38 237.5t131 199.5t222 85q90 0 180 -43l-45 -96q-61 33 -133 33q-109 0 -179.5 -91t-88.5 -225h4q31 37 87 59.5t108 22.5q129 0 209.5 -79.5t80.5 -208.5q0 -141 -81.5 -223.5t-208.5 -82.5q-145 0 -234.5 115t-89.5 297zM207 893q0 -92 58.5 -175 t146.5 -83q82 0 129 56.5t47 142.5q0 88 -51.5 141t-135.5 53q-76 0 -135 -43t-59 -92z" />
<glyph d="M104 1337v105h594v-78l-432 -815h-125l357 672l67 116v4q-39 -4 -102 -4h-359z" />
<glyph d="M78 801q0 141 151 237q-106 74 -106 191q0 109 82 170t194.5 61t195.5 -63.5t83 -173.5q0 -121 -117 -238q133 -82 133 -203q0 -109 -89 -182.5t-216 -73.5q-125 0 -218 74t-93 201zM190 805q0 -80 59.5 -128t139.5 -48q74 0 132.5 44t58.5 111q0 33 -14.5 58.5t-46.5 47 t-58.5 36t-75.5 36t-74 33.5q-121 -84 -121 -190zM236 1225q0 -23 6 -41.5t21.5 -36t28.5 -28.5t40.5 -26.5t43 -22.5t50.5 -22.5t49 -21.5q92 100 92 193q0 66 -50 101.5t-120 35.5q-68 0 -114.5 -34t-46.5 -97z" />
<glyph d="M78 1157q0 139 82 222t209 83q145 0 234 -115.5t89 -297.5q0 -123 -38 -237t-131 -199t-224 -85q-102 0 -178 43l43 97q61 -33 133 -33q109 0 179.5 90t90.5 223h-4q-33 -35 -88 -58.5t-108 -23.5q-127 0 -208 81t-81 210zM190 1155q0 -86 52.5 -140t134.5 -54 q78 0 136 43t58 94q0 92 -58 175t-144 83q-84 0 -131.5 -57.5t-47.5 -143.5z" />
<glyph d="M78 446.5q0 466.5 311 466.5q313 0 313 -466.5t-313 -466.5q-311 0 -311 466.5zM193 446.5q0 -360.5 196.5 -360.5t196.5 360.5t-196.5 360.5t-196.5 -360.5z" />
<glyph d="M158 690l202 203h107v-791h188v-102h-495v102h194v592l2 49h-2q-8 -16 -43 -49l-82 -80z" />
<glyph d="M98 63q0 94 46 168t110.5 121t130.5 88t112 93.5t46 115.5q0 66 -48.5 112t-119.5 46q-100 0 -185 -100l-71 71q39 57 109.5 96t148.5 39q127 0 203.5 -73.5t76.5 -186.5q0 -84 -44 -149.5t-107.5 -109.5t-127 -83t-110.5 -92t-49 -117h455v-102h-570q-6 33 -6 63z" />
<glyph d="M78 115l72 78q31 -43 90 -75t129 -32q74 0 132 52t58 130t-60.5 125t-140.5 47h-67l-29 62l203 237l51 52v4q-37 -6 -76 -7h-313v105h537v-76l-244 -285q102 -10 179 -75.5t77 -188.5q0 -119 -88 -203.5t-217 -84.5q-84 0 -164 34.5t-129 100.5z" />
<glyph d="M45 233v78l434 582h111v-557h133v-103h-133v-233h-113v233h-432zM184 336h293v278l8 127h-4q-33 -55 -67 -100l-230 -301v-4z" />
<glyph d="M88 121l78 72q29 -47 83 -77t113 -30q86 0 146.5 56.5t60.5 138t-61.5 139t-147.5 57.5q-88 0 -159 -49l-70 27l51 438h447v-105h-353l-18 -159l-12 -76h4q63 25 125 25q133 0 221 -87.5t88 -209.5q0 -125 -91 -213t-226 -88q-174 0 -279 141z" />
<glyph d="M88 391q0 123 38 237.5t131 199.5t222 85q90 0 180 -43l-45 -96q-61 33 -133 33q-109 0 -179.5 -91t-88.5 -224h4q31 37 87 59t108 22q129 0 209.5 -79.5t80.5 -208.5q0 -141 -81.5 -223t-208.5 -82q-145 0 -234.5 114.5t-89.5 296.5zM207 344q0 -92 58.5 -175t146.5 -83 q82 0 129 56.5t47 142.5q0 88 -51.5 141t-135.5 53q-76 0 -135 -43t-59 -92z" />
<glyph d="M104 788v105h594v-78l-432 -815h-125l357 672l67 116v5q-39 -4 -102 -5h-359z" />
<glyph d="M78 254q0 141 151 238q-106 74 -106 190q0 109 82 170t194.5 61t195.5 -63.5t83 -173.5q0 -121 -117 -238q133 -82 133 -202q0 -109 -89 -182.5t-216 -73.5q-125 0 -218 73.5t-93 200.5zM190 258q0 -80 59.5 -128t139.5 -48q74 0 132.5 44t58.5 112q0 33 -14.5 58.5 t-46.5 47t-58.5 35.5t-75.5 35.5t-74 34.5q-121 -84 -121 -191zM236 678q0 -23 6 -41.5t21.5 -35.5t28.5 -28.5t40.5 -27t43 -22.5t50.5 -22.5t49 -21.5q92 100 92 193q0 66 -50 101.5t-120 35.5q-68 0 -114.5 -34t-46.5 -97z" />
<glyph d="M78 608q0 139 82 222t209 83q145 0 234 -115.5t89 -297.5q0 -123 -38 -236.5t-131 -198.5t-224 -85q-102 0 -178 43l43 96q61 -33 133 -33q109 0 179.5 90t90.5 223h-4q-33 -35 -88 -58.5t-108 -23.5q-127 0 -208 81t-81 210zM190 606q0 -86 52.5 -140t134.5 -54 q78 0 136 43t58 94q0 92 -58 175t-144 83q-84 0 -131.5 -57.5t-47.5 -143.5z" />
<glyph horiz-adv-x="897" d="M88 238q0 94 57.5 162.5t139.5 109.5t163.5 78t139 86t57.5 114q0 74 -54 108t-140 34q-156 0 -269 -94l-65 106q156 113 334 113q150 0 240.5 -65.5t90.5 -192.5q0 -94 -57 -166t-139 -113t-164 -76.5t-139.5 -84t-57.5 -111.5q0 -72 59.5 -109t149.5 -37q162 0 309 123 l74 -98q-164 -150 -385 -150q-156 0 -250 71t-94 192z" />
<glyph horiz-adv-x="1191" d="M102 534.5q0 233.5 121 377t326 143.5q111 0 204 -45t138 -136h4q-4 12 -4 35v121h135v-1005q0 -229 -142.5 -342t-353.5 -113q-178 0 -335 84l51 113q135 -70 280 -70q162 0 260.5 79t98.5 242v103l8 76h-4q-100 -190 -328 -191q-207 0 -333 147.5t-126 381zM244 536.5 q0 -184.5 92 -295t246 -110.5q137 0 222 95.5t85 308.5q0 395 -326 395q-150 0 -234.5 -104.5t-84.5 -289z" />
<glyph horiz-adv-x="1476" d="M41 0l348 526v4l-315 500h151l279 -442h166v852h135v-852h166l278 442h154l-316 -500v-4l349 -526h-164l-301 465h-166v-465h-135v465h-164l-303 -465h-162z" />
<glyph horiz-adv-x="1204" d="M154 375v655h141v-618q0 -145 44 -225.5t179 -80.5q170 0 275.5 127t105.5 304v493h139v-1030h-137v162l8 82h-4q-37 -96 -144.5 -182.5t-260.5 -86.5q-180 0 -263 98.5t-83 301.5z" />
<glyph horiz-adv-x="1204" d="M154 375v655h141v-618q0 -145 44 -225.5t179 -80.5q170 0 275.5 127t105.5 304v493h139v-1030h-137v162l8 82h-4q-37 -96 -144.5 -182.5t-260.5 -86.5q-180 0 -263 98.5t-83 301.5zM324 1407v35h120v-31q0 -66 44 -103.5t105.5 -37.5t106.5 38t45 105v29h119v-35 q0 -111 -79.5 -176.5t-190.5 -65.5t-190.5 65.5t-79.5 176.5z" />
<glyph horiz-adv-x="1015" d="M166 0v1440h139v-803h166l307 393h168l-358 -448v-4l395 -578h-168l-342 514h-168v-514h-139z" />
<glyph horiz-adv-x="1044" d="M51 0l395 1030h152l391 -1030h-145l-285 756l-37 123h-4q-16 -72 -35 -123l-284 -756h-148z" />
<glyph horiz-adv-x="1216" d="M166 0v1030h137v-162l-8 -82h4q39 94 146.5 181.5t269.5 87.5q186 0 266 -100.5t80 -299.5v-655h-139v618q0 145 -45.5 225.5t-180.5 80.5q-166 0 -278.5 -121t-112.5 -299v-504h-139z" />
<glyph horiz-adv-x="1875" d="M166 0v1030h137v-162l-8 -82h4q39 106 149.5 187.5t229.5 81.5q272 0 317 -258h4q45 104 150.5 181t228.5 77q182 0 262 -100.5t80 -299.5v-655h-139v621q0 145 -46 225t-175 80q-150 0 -248 -130t-98 -298v-498h-140v621q0 143 -43 224t-174 81q-152 0 -252 -132 t-100 -296v-498h-139z" />
<glyph horiz-adv-x="1251" d="M154 375v655h141v-618q0 -145 44 -225.5t179 -80.5q170 0 275.5 127t105.5 304v493h139v-907h160v-369h-131v246h-166v162l8 82h-4q-37 -96 -144.5 -182.5t-260.5 -86.5q-180 0 -263 98.5t-83 301.5z" />
<glyph horiz-adv-x="1873" d="M154 373v655h139v-620q0 -145 46 -225.5t175 -80.5q150 0 248 130t98 298v498h139v-620q0 -143 43 -224.5t175 -81.5q152 0 252 132.5t100 295.5v498h139v-1030h-137v162l8 82h-4q-39 -106 -149.5 -187.5t-229.5 -81.5q-272 0 -317 258h-5q-45 -104 -150.5 -181 t-227.5 -77q-182 0 -262 100.5t-80 299.5z" />
<glyph horiz-adv-x="1916" d="M154 373v655h139v-620q0 -145 46 -225.5t175 -80.5q150 0 248 130t98 298v498h139v-620q0 -143 43 -224.5t175 -81.5q152 0 252 132.5t100 295.5v498h139v-905h156v-369h-131v246h-25v-2h-137v162l8 82h-4q-39 -106 -149.5 -187.5t-229.5 -81.5q-272 0 -317 258h-5 q-45 -104 -150.5 -181t-227.5 -77q-182 0 -262 100.5t-80 299.5z" />
<glyph horiz-adv-x="1163" d="M59 909v121h369v-297q0 -76 -4 -104h4q41 57 121 94t174 37q160 0 262 -101.5t102 -291.5q0 -166 -108.5 -279t-296.5 -113q-197 0 -295 112t-98 280v542h-230zM428 362q0 -117 67.5 -193.5t186.5 -76.5q117 0 188.5 74t71.5 199q0 143 -67.5 208.5t-174.5 65.5 q-125 0 -198.5 -75t-73.5 -202z" />
<glyph horiz-adv-x="1028" d="M154 367v663h141v-297q0 -76 -4 -104h4q41 57 120 94t173 37q160 0 262 -101.5t102 -291.5q0 -166 -108.5 -279t-296.5 -113q-197 0 -295 112t-98 280zM293 362q0 -117 67.5 -193.5t186.5 -76.5q117 0 189.5 74t72.5 199q0 143 -67.5 208.5t-176.5 65.5 q-125 0 -198.5 -75t-73.5 -202z" />
<glyph horiz-adv-x="1648" d="M166 0v1440h139v-865h205q20 207 167.5 343.5t350.5 136.5q219 0 372.5 -153.5t153.5 -381.5q0 -231 -152.5 -388t-371.5 -157q-203 0 -349 136.5t-169 343.5h-207v-455h-139zM649 520q0 -180 110.5 -299t270.5 -119q158 0 268.5 119t110.5 299q0 174 -110.5 292 t-268.5 118q-160 0 -270.5 -118t-110.5 -292z" />
<glyph horiz-adv-x="1191" d="M150 489v400q0 248 128 411.5t359 163.5q143 0 240.5 -74.5t97.5 -193.5q0 -207 -268 -330v-4q63 -4 126.5 -26.5t125 -66.5t99.5 -122t38 -178q0 -215 -132.5 -354.5t-353.5 -139.5q-213 0 -336.5 136t-123.5 378zM285 707h4q47 90 170 149l145 72q127 66 180.5 124 t53.5 136q0 76 -65.5 119t-147.5 43q-170 0 -255 -124t-85 -311v-208zM287 451q0 -168 91 -260.5t230 -92.5q147 0 245.5 95.5t98.5 269.5q0 154 -100 228.5t-231 74.5q-129 0 -231.5 -81.5t-102.5 -233.5z" />
<glyph horiz-adv-x="894" d="M33 -338l61 115q117 -82 244 -82q150 0 241 87t91 226q0 141 -94.5 218t-262.5 77h-104v117h106q127 0 214 73.5t87 196.5q0 111 -68.5 176.5t-176.5 65.5q-143 0 -254 -105l-68 97q143 131 340 131q172 0 270.5 -97.5t102.5 -236.5q2 -115 -57.5 -207t-161.5 -139v-4 q270 -84 270 -365q0 -184 -126 -310t-335 -126q-184 0 -319 92z" />
<glyph horiz-adv-x="1437" d="M33 127h147l463 1313h150l462 -1313h150v-414h-133v287h-1106v-287h-133v414zM330 127h776l-334 958l-51 185h-4q-31 -117 -53 -185z" />
<glyph horiz-adv-x="1269" d="M45 0l516 1440h150l516 -1440h-152l-385 1085l-53 185h-4q-29 -117 -51 -185l-385 -1085h-152z" />
<glyph horiz-adv-x="1191" d="M49 119h115l354 911h156l350 -911h119v-365h-131v246h-832v-246h-131v365zM307 119h576l-248 645l-37 123h-4q-18 -72 -37 -123z" />
<glyph horiz-adv-x="1044" d="M51 0l395 1030h152l391 -1030h-145l-285 756l-37 123h-4q-16 -72 -35 -123l-284 -756h-148z" />
<glyph horiz-adv-x="1759" d="M37 0l600 1440h317v-615h293q197 0 320 -110.5t123 -302.5q0 -186 -124 -299t-309 -113h-444v1313h-78l-547 -1313h-151zM954 127h283q137 0 222 74.5t85 210.5q0 133 -86 209.5t-223 76.5h-281v-571z" />
<glyph horiz-adv-x="1456" d="M49 0l440 1030h316v-399h221q156 0 258 -76t102 -244q0 -143 -92 -227t-272 -84h-356v915h-86l-390 -915h-141zM805 111h209q233 0 233 200q0 98 -57 153.5t-174 55.5h-211v-409z" />
<glyph horiz-adv-x="1392" d="M45 0l516 1440h150l471 -1313h202v-92l-133 -322h-112l92 287h-156l-385 1085l-53 185h-4q-29 -117 -51 -185l-385 -1085h-152z" />
<glyph horiz-adv-x="1146" d="M51 0l395 1030h152l344 -909h191v-88l-117 -279h-107l80 246h-145l-285 756l-37 123h-4q-16 -72 -35 -123l-284 -756h-148z" />
</font>
</defs>
</svg>
